<?xml version="1.0" encoding="UTF-8" standalone="no"?><!DOCTYPE svg PUBLIC "-//W3C//DTD SVG 1.1//EN" "http://www.w3.org/Graphics/SVG/1.1/DTD/svg11.dtd"><svg width="100%" height="100%" viewBox="0 0 1365 174" version="1.1" xmlns="http://www.w3.org/2000/svg" xmlns:xlink="http://www.w3.org/1999/xlink" xml:space="preserve" xmlns:serif="http://www.serif.com/" style="fill-rule:evenodd;clip-rule:evenodd;stroke-linejoin:round;stroke-miterlimit:1.41421;"><g><path d="M166.582,9.403c0.375,-1.621 1.105,-2.857 2.191,-3.706c1.087,-0.849 2.267,-1.274 3.541,-1.274l68.107,0c7.417,0 13.842,1.583 19.274,4.748c5.432,3.166 9.834,7.297 13.206,12.393c3.372,5.096 5.676,10.867 6.912,17.314c1.236,6.447 1.367,12.991 0.393,19.631c-1.124,7.644 -3.446,14.728 -6.968,21.252c-3.521,6.525 -7.905,12.161 -13.149,16.91c-5.245,4.748 -11.202,8.474 -17.87,11.176c-6.668,2.702 -13.674,4.054 -21.017,4.054l-34.165,0l-10.902,52.812c-0.674,3.243 -2.623,4.864 -5.844,4.864l-32.031,0c-3.147,0 -4.383,-1.621 -3.709,-4.864l32.031,-155.31Zm35.402,30.344l-7.642,37.061l25.512,0c2.622,0 5.057,-0.521 7.305,-1.563c2.248,-1.043 4.271,-2.432 6.069,-4.17c1.798,-1.737 3.297,-3.725 4.495,-5.964c1.199,-2.239 2.023,-4.517 2.473,-6.833c0.45,-2.24 0.525,-4.459 0.225,-6.66c-0.3,-2.2 -0.974,-4.189 -2.023,-5.964c-1.049,-1.776 -2.473,-3.205 -4.271,-4.286c-1.798,-1.081 -4.008,-1.621 -6.631,-1.621l-25.512,0Z" style="fill:#ff4500;fill-rule:nonzero;"/><path d="M335.276,103.678c-1.124,5.404 -1.348,10.037 -0.674,13.898c0.674,3.86 1.985,6.987 3.934,9.381c1.948,2.393 4.401,4.15 7.361,5.269c2.96,1.12 6.163,1.68 9.609,1.68c3.597,0 7.137,-0.657 10.621,-1.969c3.484,-1.313 6.687,-3.243 9.609,-5.791c2.922,-2.548 5.47,-5.694 7.642,-9.439c2.173,-3.745 3.784,-8.088 4.833,-13.029l19.443,-94.275c0.3,-1.313 1.012,-2.471 2.136,-3.474c1.123,-1.004 2.435,-1.506 3.933,-1.506l31.469,0c1.723,0 2.922,0.502 3.596,1.506c0.674,1.003 0.862,2.161 0.562,3.474l-19.218,93.695c-2.698,12.972 -6.519,23.859 -11.464,32.661c-4.945,8.802 -10.845,15.886 -17.701,21.252c-6.856,5.366 -14.573,9.227 -23.152,11.582c-8.579,2.355 -17.888,3.532 -27.928,3.532c-5.695,0 -11.295,-0.521 -16.802,-1.564c-5.507,-1.042 -10.64,-2.702 -15.397,-4.98c-4.758,-2.277 -9.029,-5.211 -12.813,-8.802c-3.783,-3.59 -6.799,-7.952 -9.047,-13.087c-2.248,-5.134 -3.615,-11.06 -4.102,-17.778c-0.487,-6.717 0.169,-14.322 1.967,-22.816l19.218,-93.695c0.3,-1.313 0.955,-2.471 1.967,-3.474c1.011,-1.004 2.154,-1.506 3.428,-1.506l32.929,0c1.948,0 3.11,0.483 3.484,1.448c0.375,0.965 0.375,2.142 0,3.532l-19.443,94.275Z" style="fill:#ff4500;fill-rule:nonzero;"/><path d="M480.819,9.403c0.299,-1.235 0.936,-2.374 1.91,-3.417c0.974,-1.042 2.248,-1.563 3.822,-1.563l69.343,0c7.567,0 14.236,1.563 20.005,4.691c5.769,3.127 10.49,7.277 14.161,12.45c3.671,5.173 6.181,11.08 7.53,17.72c1.349,6.64 1.423,13.512 0.225,20.615c-0.899,5.328 -2.454,10.308 -4.664,14.94c-2.211,4.633 -4.908,8.86 -8.092,12.682c-3.185,3.822 -6.744,7.239 -10.677,10.25c-3.934,3.011 -8.036,5.559 -12.307,7.644l18.657,59.298c0.374,1.081 0.243,2.162 -0.394,3.243c-0.637,1.081 -1.704,1.621 -3.203,1.621l-35.514,0c-1.499,0 -2.567,-0.328 -3.203,-0.984c-0.637,-0.657 -1.218,-1.873 -1.742,-3.649l-15.173,-50.264l-20.792,0l-10.339,50.033c-0.675,3.243 -2.548,4.864 -5.62,4.864l-32.255,0c-3.147,0 -4.383,-1.621 -3.709,-4.864l32.031,-155.31Zm35.514,29.417l-8.204,40.304l25.063,0c2.847,0 5.563,-0.579 8.148,-1.737c2.585,-1.158 4.907,-2.664 6.968,-4.517c2.06,-1.853 3.802,-3.976 5.226,-6.369c1.423,-2.394 2.397,-4.865 2.922,-7.413c0.524,-2.47 0.618,-4.903 0.281,-7.296c-0.337,-2.394 -1.087,-4.556 -2.248,-6.486c-1.161,-1.93 -2.735,-3.494 -4.72,-4.69c-1.986,-1.197 -4.402,-1.796 -7.249,-1.796l-26.187,0Z" style="fill:#ff4500;fill-rule:nonzero;"/><path d="M632.318,9.403c0.674,-3.32 2.622,-4.98 5.844,-4.98l107.331,0c3.071,0 4.27,1.66 3.596,4.98l-5.844,28.491c-0.675,3.243 -2.585,4.864 -5.732,4.864l-70.355,0l-5.619,27.449l53.384,0c1.648,0 2.866,0.405 3.653,1.216c0.786,0.81 0.992,2.104 0.618,3.88l-4.833,22.931c-0.674,3.243 -2.735,4.864 -6.181,4.864l-53.385,0l-5.956,28.375l72.378,0c3.221,0 4.533,1.622 3.933,4.865l-5.956,28.375c-0.675,3.243 -2.585,4.864 -5.732,4.864l-109.354,0c-3.221,0 -4.495,-1.621 -3.821,-4.864l32.031,-155.31Z" style="fill:#ff4500;fill-rule:nonzero;"/><path d="M844.619,123.019c0.974,-0.618 1.854,-1.1 2.641,-1.448c0.787,-0.347 1.517,-0.521 2.191,-0.521c1.274,0 2.211,0.656 2.81,1.969l12.138,26.753c0.824,1.545 1.012,2.838 0.562,3.88c-0.45,1.043 -1.611,2.143 -3.484,3.301c-3.297,2.085 -6.706,4.034 -10.227,5.849c-3.522,1.814 -7.212,3.416 -11.071,4.806c-3.858,1.39 -7.942,2.471 -12.25,3.243c-4.308,0.772 -8.897,1.158 -13.767,1.158c-10.94,0 -20.923,-2.162 -29.952,-6.486c-9.028,-4.323 -16.596,-10.307 -22.702,-17.951c-6.107,-7.644 -10.527,-16.678 -13.262,-27.101c-2.735,-10.424 -3.241,-21.696 -1.517,-33.818c1.723,-12.431 5.526,-23.839 11.407,-34.224c5.882,-10.385 13.224,-19.322 22.028,-26.812c8.804,-7.489 18.75,-13.319 29.839,-17.488c11.089,-4.169 22.665,-6.254 34.728,-6.254c4.87,0 9.422,0.444 13.655,1.332c4.234,0.888 8.148,2.123 11.745,3.706c3.596,1.583 6.893,3.417 9.89,5.501c2.997,2.085 5.694,4.324 8.092,6.718c0.899,0.849 1.33,1.833 1.292,2.953c-0.037,1.12 -0.393,2.104 -1.067,2.953l-21.916,25.943c-0.974,1.081 -2.06,1.622 -3.259,1.622c-1.124,0 -2.248,-0.502 -3.372,-1.506c-2.922,-2.934 -6.069,-5.057 -9.44,-6.37c-3.372,-1.313 -7.306,-1.969 -11.801,-1.969c-5.994,0 -11.763,1.139 -17.308,3.417c-5.544,2.277 -10.583,5.385 -15.116,9.323c-4.533,3.938 -8.392,8.57 -11.576,13.898c-3.184,5.327 -5.413,11.08 -6.687,17.257c-1.274,6.176 -1.424,11.967 -0.45,17.372c0.974,5.405 2.904,10.095 5.788,14.072c2.885,3.976 6.631,7.122 11.239,9.439c4.608,2.316 9.909,3.474 15.903,3.474c4.57,0 8.916,-0.83 13.037,-2.49c4.121,-1.66 7.867,-3.494 11.239,-5.501Z" style="fill:#ff4500;fill-rule:nonzero;"/><path d="M886.202,87c2.398,-12.894 6.762,-24.572 13.093,-35.034c6.332,-10.463 13.955,-19.4 22.871,-26.812c8.917,-7.412 18.807,-13.126 29.671,-17.141c10.864,-4.015 21.953,-6.022 33.267,-6.022c11.463,0 21.747,2.22 30.85,6.659c9.104,4.44 16.615,10.482 22.534,18.126c5.919,7.643 10.059,16.638 12.419,26.985c2.36,10.346 2.454,21.426 0.281,33.239c-2.323,12.508 -6.65,23.974 -12.981,34.397c-6.331,10.424 -13.955,19.38 -22.871,26.87c-8.916,7.489 -18.787,13.299 -29.614,17.43c-10.827,4.131 -21.972,6.196 -33.436,6.196c-11.313,0 -21.559,-2.219 -30.738,-6.659c-9.178,-4.44 -16.745,-10.501 -22.702,-18.183c-5.957,-7.683 -10.115,-16.678 -12.475,-26.985c-2.36,-10.308 -2.416,-21.33 -0.169,-33.066Zm41.471,0c-1.273,6.1 -1.442,11.833 -0.505,17.199c0.936,5.366 2.828,10.037 5.675,14.013c2.847,3.977 6.538,7.123 11.071,9.44c4.533,2.316 9.759,3.474 15.678,3.474c5.994,0 11.725,-1.158 17.195,-3.474c5.47,-2.317 10.433,-5.463 14.891,-9.44c4.458,-3.976 8.261,-8.647 11.408,-14.013c3.147,-5.366 5.357,-11.099 6.631,-17.199c1.273,-6.1 1.442,-11.833 0.505,-17.199c-0.936,-5.366 -2.809,-10.037 -5.619,-14.014c-2.81,-3.976 -6.481,-7.122 -11.014,-9.439c-4.533,-2.316 -9.796,-3.474 -15.79,-3.474c-5.92,0 -11.633,1.158 -17.14,3.474c-5.507,2.317 -10.489,5.463 -14.947,9.439c-4.458,3.977 -8.261,8.648 -11.408,14.014c-3.147,5.366 -5.357,11.099 -6.631,17.199Z" style="fill:#ff4500;fill-rule:nonzero;"/><path d="M1093.67,9.403c0.299,-1.235 0.936,-2.374 1.91,-3.417c0.974,-1.042 2.248,-1.563 3.821,-1.563l69.344,0c7.567,0 14.236,1.563 20.005,4.691c5.769,3.127 10.489,7.277 14.161,12.45c3.671,5.173 6.181,11.08 7.53,17.72c1.348,6.64 1.423,13.512 0.224,20.615c-0.899,5.328 -2.453,10.308 -4.664,14.94c-2.21,4.633 -4.907,8.86 -8.092,12.682c-3.184,3.822 -6.743,7.239 -10.676,10.25c-3.934,3.011 -8.036,5.559 -12.307,7.644l18.656,59.298c0.375,1.081 0.244,2.162 -0.393,3.243c-0.637,1.081 -1.704,1.621 -3.203,1.621l-35.515,0c-1.498,0 -2.566,-0.328 -3.203,-0.984c-0.636,-0.657 -1.217,-1.873 -1.742,-3.649l-15.172,-50.264l-20.792,0l-10.339,50.033c-0.675,3.243 -2.548,4.864 -5.62,4.864l-32.255,0c-3.147,0 -4.383,-1.621 -3.709,-4.864l32.031,-155.31Zm35.514,29.417l-8.204,40.304l25.062,0c2.848,0 5.564,-0.579 8.149,-1.737c2.584,-1.158 4.907,-2.664 6.968,-4.517c2.06,-1.853 3.802,-3.976 5.226,-6.369c1.423,-2.394 2.397,-4.865 2.922,-7.413c0.524,-2.47 0.618,-4.903 0.281,-7.296c-0.338,-2.394 -1.087,-4.556 -2.248,-6.486c-1.161,-1.93 -2.735,-3.494 -4.72,-4.69c-1.986,-1.197 -4.402,-1.796 -7.249,-1.796l-26.187,0Z" style="fill:#ff4500;fill-rule:nonzero;"/><path d="M1245.17,9.403c0.674,-3.32 2.622,-4.98 5.844,-4.98l107.33,0c3.072,0 4.271,1.66 3.597,4.98l-5.844,28.491c-0.675,3.243 -2.585,4.864 -5.732,4.864l-70.355,0l-5.62,27.449l53.385,0c1.648,0 2.866,0.405 3.652,1.216c0.787,0.81 0.993,2.104 0.619,3.88l-4.833,22.931c-0.674,3.243 -2.735,4.864 -6.182,4.864l-53.384,0l-5.956,28.375l72.378,0c3.221,0 4.532,1.622 3.933,4.865l-5.956,28.375c-0.675,3.243 -2.585,4.864 -5.732,4.864l-109.354,0c-3.222,0 -4.495,-1.621 -3.821,-4.864l32.031,-155.31Z" style="fill:#ff4500;fill-rule:nonzero;"/><g><path d="M126.873,94.125l-60,0l-2.496,11.741l60,0l2.496,-11.741Z" style="fill:#ff4500;"/><path d="M132.873,67.875l-127.5,0l-2.496,11.741l127.5,0l2.496,-11.741Z" style="fill:#ff4500;"/><path d="M138.873,41.625l-97.5,0l-2.496,11.741l97.5,0l2.496,-11.741Z" style="fill:#ff4500;"/></g></g></svg>