<?xml version="1.0" encoding="UTF-8" standalone="no"?><!DOCTYPE svg PUBLIC "-//W3C//DTD SVG 1.1//EN" "http://www.w3.org/Graphics/SVG/1.1/DTD/svg11.dtd"><svg width="100%" height="100%" viewBox="0 0 300 300" version="1.1" xmlns="http://www.w3.org/2000/svg" xmlns:xlink="http://www.w3.org/1999/xlink" xml:space="preserve" xmlns:serif="http://www.serif.com/" style="fill-rule:evenodd;clip-rule:evenodd;stroke-linejoin:round;stroke-miterlimit:2;"><ellipse cx="149.988" cy="150.783" rx="71.082" ry="73.947" style="fill:#ff4500;"/><path d="M1,150.102c0,20.584 3.891,39.916 11.672,57.995c7.782,18.079 18.439,33.856 31.972,47.33c13.534,13.475 29.334,24.106 47.4,31.893c18.067,7.787 37.386,11.68 57.956,11.68c20.57,0 39.923,-3.893 58.057,-11.68c18.135,-7.787 33.935,-18.418 47.4,-31.893c13.466,-13.474 24.089,-29.251 31.871,-47.33c7.781,-18.079 11.672,-37.411 11.672,-57.995c0,-20.585 -3.891,-39.95 -11.672,-58.097c-7.782,-18.147 -18.405,-33.958 -31.871,-47.432c-13.465,-13.475 -29.265,-24.106 -47.4,-31.893c-18.134,-7.787 -37.487,-11.68 -58.057,-11.68c-20.57,0 -39.889,3.893 -57.956,11.68c-18.066,7.787 -33.866,18.418 -47.4,31.893c-13.533,13.474 -24.19,29.285 -31.972,47.432c-7.781,18.147 -11.672,37.512 -11.672,58.097Zm39.938,0.026c0,15.083 2.865,29.249 8.596,42.497c5.73,13.248 13.579,24.809 23.545,34.683c9.966,9.873 21.602,17.663 34.907,23.369c13.304,5.706 27.531,8.559 42.68,8.559c15.148,0 29.4,-2.853 42.755,-8.559c13.354,-5.706 24.99,-13.496 34.906,-23.369c9.917,-9.874 17.74,-21.435 23.471,-34.683c5.73,-13.248 8.596,-27.414 8.596,-42.497c0,-15.084 -2.866,-29.275 -8.596,-42.572c-5.731,-13.298 -13.554,-24.883 -23.471,-34.757c-9.916,-9.874 -21.552,-17.664 -34.906,-23.37c-13.355,-5.706 -27.607,-8.559 -42.755,-8.559c-15.149,0 -29.376,2.853 -42.68,8.559c-13.305,5.706 -24.941,13.496 -34.907,23.37c-9.966,9.874 -17.815,21.459 -23.545,34.757c-5.731,13.297 -8.596,27.488 -8.596,42.572Z" style="fill:#5a64d8;"/></svg>