<?xml version="1.0" encoding="UTF-8" standalone="no"?>
<!DOCTYPE svg PUBLIC "-//W3C//DTD SVG 1.1//EN" "http://www.w3.org/Graphics/SVG/1.1/DTD/svg11.dtd">
<svg width="100%" height="100%" viewBox="0 0 300 300" version="1.1" xmlns="http://www.w3.org/2000/svg" xmlns:xlink="http://www.w3.org/1999/xlink" xml:space="preserve" xmlns:serif="http://www.serif.com/" style="fill-rule:evenodd;clip-rule:evenodd;stroke-linejoin:round;stroke-miterlimit:2;">
    <path d="M300,21C300,9.41 290.59,0 279,0L21,0C9.41,0 0,9.41 0,21L0,279C0,290.59 9.41,300 21,300L279,300C290.59,300 300,290.59 300,279L300,21Z" style="fill:url(#_Radial1);"/>
    <g transform="matrix(1,0,0,1,-73.4722,113.462)">
        <g transform="matrix(280,0,0,280,103.597,140.59)">
            <path d="M0.046,-0.371C0.046,-0.319 0.056,-0.269 0.076,-0.223C0.096,-0.176 0.123,-0.136 0.158,-0.101C0.193,-0.067 0.233,-0.039 0.279,-0.02C0.326,0 0.375,0.01 0.428,0.01C0.481,0.01 0.531,0 0.577,-0.02C0.624,-0.039 0.664,-0.067 0.699,-0.101C0.733,-0.136 0.761,-0.176 0.78,-0.223C0.8,-0.269 0.81,-0.319 0.81,-0.371C0.81,-0.424 0.8,-0.474 0.78,-0.52C0.761,-0.567 0.733,-0.607 0.699,-0.642C0.664,-0.676 0.624,-0.704 0.577,-0.724C0.531,-0.744 0.481,-0.754 0.428,-0.754C0.375,-0.754 0.326,-0.744 0.279,-0.724C0.233,-0.704 0.193,-0.676 0.158,-0.642C0.123,-0.607 0.096,-0.567 0.076,-0.52C0.056,-0.474 0.046,-0.424 0.046,-0.371ZM0.238,-0.371C0.238,-0.399 0.243,-0.425 0.252,-0.449C0.262,-0.473 0.275,-0.494 0.292,-0.512C0.309,-0.53 0.329,-0.544 0.352,-0.554C0.375,-0.565 0.401,-0.57 0.428,-0.57C0.456,-0.57 0.481,-0.565 0.504,-0.554C0.528,-0.544 0.548,-0.53 0.565,-0.512C0.582,-0.494 0.595,-0.473 0.604,-0.449C0.614,-0.425 0.618,-0.399 0.618,-0.371C0.618,-0.344 0.614,-0.318 0.604,-0.294C0.595,-0.27 0.582,-0.249 0.565,-0.231C0.548,-0.213 0.528,-0.199 0.504,-0.189C0.481,-0.178 0.456,-0.173 0.428,-0.173C0.401,-0.173 0.375,-0.178 0.352,-0.189C0.329,-0.199 0.309,-0.213 0.292,-0.231C0.275,-0.249 0.262,-0.27 0.252,-0.294C0.243,-0.318 0.238,-0.344 0.238,-0.371Z" style="fill:rgb(255,69,0);fill-rule:nonzero;"/>
        </g>
        <path d="M223.821,-71.43L224.17,-71.428L224.519,-71.426L224.867,-71.422L225.215,-71.418L225.562,-71.412L225.91,-71.405L226.257,-71.398L226.603,-71.389L226.95,-71.379L227.296,-71.368L227.641,-71.356L227.987,-71.343L228.332,-71.329L228.676,-71.314L229.021,-71.298L229.365,-71.281L229.709,-71.263L230.052,-71.244L230.395,-71.224L230.738,-71.203L231.081,-71.181L231.423,-71.157L231.765,-71.133L232.106,-71.108L232.448,-71.081L232.789,-71.054L233.129,-71.026L233.469,-70.996L233.809,-70.966L234.149,-70.934L234.488,-70.902L234.828,-70.868L235.166,-70.834L235.505,-70.798L235.843,-70.761L236.18,-70.724L236.518,-70.685L236.855,-70.645L237.192,-70.604L237.528,-70.562L237.865,-70.519L238.2,-70.476L238.536,-70.431L238.871,-70.385L239.206,-70.338L239.541,-70.29L239.875,-70.241L240.209,-70.19L240.543,-70.139L240.876,-70.087L241.209,-70.034L241.541,-69.98L241.874,-69.924L242.206,-69.868L242.538,-69.811L242.869,-69.752L243.2,-69.693L243.531,-69.632L243.861,-69.571L244.191,-69.508L244.521,-69.445L244.851,-69.38L245.18,-69.315L245.509,-69.248L245.837,-69.18L246.165,-69.111L246.493,-69.042L246.821,-68.971L247.148,-68.899L247.475,-68.826L247.801,-68.752L248.128,-68.677L248.454,-68.601L248.779,-68.524L249.105,-68.446L249.43,-68.367L249.754,-68.287L250.079,-68.206L250.403,-68.124L250.726,-68.041L251.05,-67.956L251.373,-67.871L251.695,-67.785L252.018,-67.698L252.34,-67.609L252.662,-67.52L252.983,-67.429L253.304,-67.338L253.625,-67.245L253.945,-67.152L254.266,-67.057L254.585,-66.962L254.905,-66.865L255.224,-66.767L255.543,-66.669L255.861,-66.569L256.18,-66.468L256.498,-66.366L256.815,-66.263L257.132,-66.159L257.449,-66.055L257.766,-65.949L258.082,-65.842L258.398,-65.734L258.714,-65.625L259.029,-65.514L259.344,-65.403L259.659,-65.291L259.973,-65.178L260.287,-65.064L260.601,-64.949L260.914,-64.832L261.227,-64.715L261.54,-64.597L261.852,-64.477L262.164,-64.357L262.476,-64.235L262.787,-64.113L263.098,-63.989L263.409,-63.865L263.719,-63.739L264.029,-63.613L264.339,-63.485L264.649,-63.356L264.958,-63.227L265.266,-63.096L265.575,-62.964L265.883,-62.832L266.189,-62.698L266.496,-62.564L266.802,-62.43L267.107,-62.294L267.411,-62.158L267.715,-62.021L268.019,-61.883L268.321,-61.744L268.623,-61.605L268.925,-61.465L269.226,-61.324L269.526,-61.183L269.825,-61.04L270.125,-60.897L270.423,-60.753L270.721,-60.609L271.018,-60.463L271.314,-60.317L271.61,-60.17L271.906,-60.023L272.2,-59.874L272.494,-59.725L272.788,-59.575L273.081,-59.425L273.373,-59.273L273.665,-59.121L273.956,-58.968L274.246,-58.814L274.536,-58.66L274.825,-58.505L275.114,-58.349L275.402,-58.192L275.689,-58.034L275.976,-57.876L276.262,-57.717L276.547,-57.557L276.832,-57.397L277.116,-57.236L277.4,-57.074L277.683,-56.911L277.965,-56.747L278.247,-56.583L278.528,-56.418L278.809,-56.252L279.089,-56.086L279.368,-55.918L279.647,-55.75L279.925,-55.582L280.203,-55.412L280.479,-55.242L280.756,-55.07L281.031,-54.899L281.306,-54.726L281.581,-54.553L281.854,-54.379L282.128,-54.204L282.4,-54.028L282.672,-53.852L282.943,-53.674L283.214,-53.497L283.484,-53.318L283.754,-53.138L284.022,-52.958L284.291,-52.777L284.558,-52.596L284.825,-52.413L285.092,-52.23L285.357,-52.046L285.622,-51.861L285.887,-51.676L286.151,-51.49L286.414,-51.303L286.677,-51.115L286.939,-50.927L287.2,-50.737L287.461,-50.547L287.721,-50.357L287.981,-50.165L288.24,-49.973L288.498,-49.78L288.756,-49.586L289.013,-49.391L289.269,-49.196L289.525,-49L289.78,-48.803L290.035,-48.606L290.289,-48.407L290.542,-48.208L290.795,-48.009L291.047,-47.808L291.299,-47.607L291.55,-47.405L291.8,-47.202L292.049,-46.998L292.298,-46.794L292.547,-46.589L292.795,-46.383L293.042,-46.176L293.288,-45.969L293.534,-45.761L293.78,-45.552L294.024,-45.342L294.268,-45.132L294.512,-44.921L294.755,-44.709L294.997,-44.496L295.238,-44.283L295.479,-44.069L295.72,-43.854L295.96,-43.638L296.199,-43.422L296.437,-43.204L296.675,-42.986L296.912,-42.768L297.149,-42.548L297.385,-42.328L297.62,-42.107L297.855,-41.886L298.089,-41.663L298.323,-41.44L298.555,-41.216L298.788,-40.991L299.019,-40.766L299.25,-40.54L299.481,-40.313L299.711,-40.085L299.94,-39.856L300.168,-39.627L300.396,-39.397L300.623,-39.167L300.849,-38.936L301.075,-38.704L301.299,-38.472L301.523,-38.239L301.746,-38.006L301.969,-37.772L302.191,-37.537L302.412,-37.301L302.632,-37.065L302.851,-36.829L303.07,-36.592L303.288,-36.354L303.505,-36.115L303.721,-35.876L303.937,-35.636L304.152,-35.396L304.366,-35.155L304.579,-34.914L304.792,-34.671L305.004,-34.429L305.215,-34.185L305.426,-33.941L305.635,-33.696L305.844,-33.451L306.052,-33.205L306.26,-32.959L306.466,-32.711L306.672,-32.464L306.877,-32.215L307.081,-31.966L307.285,-31.716L307.488,-31.466L307.69,-31.215L307.891,-30.964L308.092,-30.712L308.292,-30.459L308.491,-30.206L308.689,-29.952L308.887,-29.697L309.083,-29.442L309.279,-29.186L309.475,-28.929L309.669,-28.672L309.863,-28.415L310.056,-28.156L310.248,-27.897L310.44,-27.638L310.631,-27.378L310.821,-27.117L311.01,-26.855L311.198,-26.593L311.386,-26.331L311.573,-26.067L311.759,-25.804L311.945,-25.539L312.129,-25.274L312.313,-25.008L312.497,-24.742L312.679,-24.475L312.861,-24.207L313.042,-23.939L313.222,-23.67L313.401,-23.401L313.58,-23.131L313.758,-22.86L313.935,-22.589L314.111,-22.317L314.287,-22.044L314.462,-21.771L314.636,-21.497L314.809,-21.223L314.982,-20.948L315.154,-20.672L315.325,-20.396L315.495,-20.119L315.665,-19.842L315.834,-19.564L316.002,-19.285L316.169,-19.006L316.336,-18.726L316.501,-18.445L316.666,-18.164L316.831,-17.882L316.994,-17.6L317.157,-17.317L317.319,-17.033L317.48,-16.749L317.641,-16.464L317.801,-16.178L317.96,-15.892L318.118,-15.606L318.275,-15.318L318.432,-15.03L318.588,-14.742L318.743,-14.453L318.898,-14.163L319.051,-13.872L319.204,-13.581L319.356,-13.29L319.508,-12.998L319.659,-12.705L319.808,-12.411L319.958,-12.117L320.106,-11.822L320.254,-11.527L320.4,-11.231L320.547,-10.935L320.692,-10.637L320.837,-10.34L320.98,-10.041L321.124,-9.742L321.266,-9.443L321.407,-9.142L321.548,-8.841L321.688,-8.54L321.828,-8.238L321.966,-7.935L322.104,-7.632L322.241,-7.328L322.377,-7.023L322.513,-6.718L322.648,-6.413L322.782,-6.106L322.915,-5.799L323.047,-5.491L323.179,-5.183L323.31,-4.874L323.44,-4.565L323.568,-4.256L323.696,-3.946L323.823,-3.636L323.948,-3.326L324.073,-3.015L324.196,-2.704L324.319,-2.392L324.44,-2.081L324.561,-1.769L324.68,-1.456L324.798,-1.144L324.916,-0.831L325.032,-0.517L325.147,-0.204L325.261,0.11L325.375,0.425L325.487,0.739L325.598,1.054L325.708,1.37L325.817,1.685L325.925,2.001L326.032,2.317L326.138,2.634L326.243,2.951L326.347,3.268L326.45,3.586L326.551,3.904L326.652,4.222L326.752,4.54L326.851,4.859L326.948,5.178L327.045,5.498L327.141,5.818L327.235,6.138L327.329,6.458L327.421,6.779L327.513,7.1L327.603,7.422L327.693,7.743L327.781,8.066L327.868,8.388L327.955,8.711L328.04,9.034L328.124,9.357L328.207,9.681L328.289,10.005L328.371,10.329L328.451,10.654L328.53,10.979L328.608,11.304L328.685,11.63L328.761,11.956L328.836,12.282L328.91,12.609L328.982,12.935L329.054,13.263L329.125,13.59L329.195,13.918L329.264,14.246L329.331,14.575L329.398,14.904L329.464,15.233L329.528,15.562L329.592,15.892L329.654,16.222L329.716,16.553L329.776,16.883L329.836,17.214L329.894,17.546L329.951,17.877L330.008,18.21L330.063,18.542L330.117,18.875L330.17,19.208L330.223,19.541L330.274,19.874L330.324,20.208L330.373,20.543L330.421,20.877L330.468,21.212L330.514,21.547L330.559,21.883L330.603,22.219L330.646,22.555L330.688,22.891L330.728,23.228L330.768,23.565L330.807,23.903L330.845,24.241L330.881,24.579L330.917,24.917L330.952,25.256L330.985,25.595L331.018,25.934L331.049,26.274L331.08,26.614L331.109,26.954L331.137,27.295L331.165,27.636L331.191,27.977L331.216,28.319L331.241,28.66L331.264,29.003L331.286,29.345L331.307,29.688L331.328,30.031L331.347,30.375L331.365,30.718L331.382,31.063L331.398,31.407L331.413,31.752L331.427,32.097L331.44,32.442L331.451,32.788L331.462,33.134L331.472,33.48L331.481,33.827L331.489,34.174L331.495,34.521L331.501,34.869L331.506,35.216L331.509,35.565L331.512,35.913L331.513,36.262L331.514,36.611L331.513,36.96L331.512,37.309L331.509,37.658L331.506,38.006L331.501,38.354L331.495,38.701L331.489,39.048L331.481,39.395L331.472,39.742L331.462,40.088L331.451,40.434L331.44,40.78L331.427,41.125L331.413,41.47L331.398,41.814L331.382,42.159L331.365,42.503L331.347,42.846L331.328,43.189L331.307,43.532L331.286,43.875L331.264,44.217L331.241,44.559L331.216,44.901L331.191,45.243L331.165,45.584L331.137,45.924L331.109,46.265L331.08,46.605L331.049,46.944L331.018,47.284L330.985,47.623L330.952,47.962L330.917,48.3L330.881,48.638L330.845,48.976L330.807,49.313L330.768,49.651L330.728,49.987L330.688,50.324L330.646,50.66L330.603,50.996L330.559,51.331L330.514,51.666L330.468,52.001L330.421,52.336L330.373,52.67L330.324,53.004L330.274,53.337L330.223,53.67L330.17,54.003L330.117,54.336L330.063,54.668L330.008,55L329.951,55.332L329.894,55.663L329.836,55.994L329.776,56.324L329.716,56.654L329.654,56.984L329.592,57.314L329.528,57.643L329.463,57.972L329.398,58.301L329.331,58.629L329.263,58.957L329.195,59.285L329.125,59.612L329.054,59.939L328.982,60.265L328.909,60.592L328.836,60.918L328.761,61.243L328.685,61.569L328.608,61.894L328.53,62.218L328.451,62.543L328.37,62.867L328.289,63.19L328.207,63.513L328.124,63.836L328.04,64.159L327.954,64.481L327.868,64.803L327.781,65.125L327.692,65.446L327.603,65.767L327.512,66.088L327.421,66.409L327.328,66.728L327.235,67.048L327.14,67.367L327.045,67.686L326.948,68.005L326.85,68.324L326.752,68.642L326.652,68.959L326.551,69.277L326.449,69.594L326.346,69.91L326.243,70.227L326.138,70.543L326.032,70.858L325.925,71.174L325.817,71.489L325.708,71.803L325.597,72.118L325.486,72.432L325.374,72.746L325.261,73.059L325.147,73.372L325.032,73.685L324.915,73.997L324.798,74.309L324.68,74.621L324.56,74.932L324.44,75.243L324.318,75.554L324.196,75.864L324.072,76.174L323.948,76.484L323.822,76.793L323.695,77.102L323.568,77.411L323.439,77.719L323.309,78.027L323.179,78.335L323.047,78.642L322.914,78.949L322.781,79.254L322.647,79.56L322.512,79.864L322.377,80.168L322.241,80.472L322.103,80.775L321.966,81.077L321.827,81.379L321.688,81.68L321.548,81.98L321.407,82.28L321.265,82.579L321.123,82.878L320.98,83.176L320.836,83.473L320.691,83.77L320.546,84.066L320.4,84.362L320.253,84.657L320.105,84.951L319.957,85.245L319.808,85.538L319.658,85.83L319.507,86.122L319.356,86.414L319.204,86.704L319.051,86.994L318.897,87.284L318.743,87.573L318.587,87.861L318.431,88.149L318.275,88.436L318.117,88.722L317.959,89.008L317.8,89.294L317.64,89.578L317.48,89.862L317.318,90.146L317.156,90.429L316.994,90.711L316.83,90.992L316.666,91.273L316.501,91.554L316.335,91.834L316.168,92.113L316.001,92.391L315.833,92.669L315.664,92.947L315.495,93.224L315.324,93.5L315.153,93.775L314.981,94.05L314.809,94.325L314.635,94.598L314.461,94.871L314.286,95.144L314.111,95.416L313.934,95.687L313.757,95.958L313.579,96.228L313.401,96.497L313.221,96.766L313.041,97.034L312.86,97.302L312.679,97.569L312.496,97.836L312.313,98.101L312.129,98.367L311.944,98.631L311.759,98.895L311.573,99.159L311.386,99.421L311.198,99.683L311.009,99.945L310.82,100.206L310.63,100.466L310.439,100.726L310.248,100.985L310.056,101.244L309.863,101.501L309.669,101.759L309.474,102.015L309.279,102.272L309.083,102.527L308.886,102.782L308.689,103.036L308.49,103.29L308.291,103.543L308.091,103.795L307.891,104.047L307.69,104.298L307.488,104.549L307.285,104.799L307.081,105.048L306.877,105.297L306.672,105.545L306.466,105.792L306.259,106.039L306.052,106.285L305.844,106.531L305.635,106.776L305.425,107.021L305.215,107.264L305.004,107.508L304.792,107.75L304.579,107.992L304.366,108.234L304.152,108.474L303.937,108.715L303.721,108.954L303.505,109.193L303.288,109.431L303.07,109.669L302.851,109.906L302.632,110.143L302.411,110.379L302.19,110.614L301.969,110.848L301.746,111.083L301.523,111.316L301.299,111.549L301.075,111.781L300.849,112.013L300.623,112.244L300.396,112.474L300.168,112.704L299.94,112.933L299.711,113.161L299.481,113.389L299.25,113.616L299.019,113.842L298.788,114.068L298.555,114.292L298.323,114.516L298.089,114.74L297.855,114.962L297.62,115.184L297.385,115.405L297.149,115.625L296.912,115.844L296.675,116.063L296.437,116.281L296.199,116.498L295.96,116.714L295.72,116.93L295.479,117.145L295.238,117.359L294.997,117.573L294.755,117.785L294.512,117.997L294.268,118.208L294.024,118.419L293.78,118.628L293.534,118.837L293.288,119.045L293.042,119.253L292.795,119.459L292.547,119.665L292.298,119.87L292.049,120.075L291.8,120.278L291.55,120.481L291.299,120.683L291.047,120.884L290.795,121.085L290.542,121.285L290.289,121.484L290.035,121.682L289.78,121.88L289.525,122.076L289.269,122.273L289.013,122.468L288.756,122.662L288.498,122.856L288.24,123.049L287.981,123.241L287.721,123.433L287.461,123.624L287.2,123.814L286.939,124.003L286.677,124.191L286.414,124.379L286.151,124.566L285.887,124.752L285.622,124.938L285.357,125.123L285.092,125.306L284.825,125.49L284.558,125.672L284.291,125.854L284.022,126.035L283.754,126.215L283.484,126.394L283.214,126.573L282.943,126.751L282.672,126.928L282.4,127.104L282.128,127.28L281.854,127.455L281.581,127.629L281.306,127.802L281.031,127.975L280.756,128.147L280.479,128.318L280.203,128.488L279.925,128.658L279.647,128.827L279.368,128.995L279.089,129.162L278.809,129.329L278.528,129.494L278.247,129.66L277.965,129.824L277.683,129.987L277.4,130.15L277.116,130.312L276.832,130.473L276.547,130.634L276.262,130.794L275.976,130.953L275.689,131.111L275.402,131.268L275.114,131.425L274.825,131.581L274.536,131.736L274.246,131.891L273.956,132.044L273.665,132.197L273.373,132.349L273.081,132.501L272.788,132.652L272.494,132.801L272.2,132.951L271.906,133.099L271.61,133.247L271.314,133.394L271.018,133.54L270.721,133.685L270.423,133.83L270.125,133.973L269.825,134.117L269.526,134.259L269.226,134.401L268.925,134.541L268.623,134.681L268.321,134.821L268.019,134.959L267.715,135.097L267.411,135.234L267.107,135.37L266.802,135.506L266.496,135.641L266.19,135.775L265.883,135.908L265.575,136.041L265.266,136.172L264.958,136.303L264.649,136.433L264.339,136.561L264.029,136.689L263.719,136.816L263.409,136.941L263.098,137.066L262.787,137.189L262.476,137.312L262.164,137.433L261.852,137.554L261.54,137.673L261.227,137.791L260.914,137.909L260.601,138.025L260.287,138.14L259.973,138.254L259.659,138.368L259.344,138.48L259.029,138.591L258.714,138.701L258.398,138.81L258.082,138.918L257.766,139.025L257.449,139.131L257.132,139.236L256.815,139.34L256.498,139.443L256.18,139.544L255.861,139.645L255.543,139.745L255.224,139.844L254.905,139.941L254.585,140.038L254.266,140.134L253.945,140.228L253.625,140.322L253.304,140.414L252.983,140.506L252.662,140.596L252.34,140.686L252.018,140.774L251.695,140.861L251.373,140.948L251.05,141.033L250.726,141.117L250.403,141.2L250.079,141.282L249.754,141.364L249.43,141.444L249.105,141.523L248.779,141.601L248.454,141.678L248.128,141.754L247.801,141.829L247.475,141.903L247.148,141.976L246.821,142.047L246.493,142.118L246.165,142.188L245.837,142.257L245.509,142.324L245.18,142.391L244.851,142.457L244.521,142.521L244.191,142.585L243.861,142.647L243.531,142.709L243.2,142.769L242.869,142.829L242.538,142.887L242.206,142.944L241.874,143.001L241.541,143.056L241.209,143.11L240.876,143.163L240.543,143.216L240.209,143.267L239.875,143.317L239.541,143.366L239.206,143.414L238.871,143.461L238.536,143.507L238.2,143.552L237.865,143.596L237.528,143.639L237.192,143.681L236.855,143.721L236.518,143.761L236.181,143.8L235.843,143.838L235.505,143.874L235.166,143.91L234.828,143.945L234.489,143.978L234.149,144.011L233.809,144.042L233.469,144.073L233.129,144.102L232.789,144.131L232.448,144.158L232.106,144.184L231.765,144.21L231.423,144.234L231.081,144.257L230.738,144.279L230.395,144.3L230.052,144.321L229.709,144.34L229.365,144.358L229.021,144.375L228.676,144.391L228.332,144.406L227.987,144.42L227.641,144.433L227.296,144.444L226.95,144.455L226.603,144.465L226.257,144.474L225.91,144.482L225.562,144.488L225.215,144.494L224.867,144.499L224.519,144.502L224.17,144.505L223.821,144.506L223.472,144.507L223.123,144.506L222.774,144.505L222.426,144.502L222.078,144.499L221.73,144.494L221.382,144.488L221.035,144.482L220.688,144.474L220.342,144.465L219.995,144.455L219.649,144.444L219.304,144.433L218.959,144.42L218.614,144.406L218.269,144.391L217.925,144.375L217.581,144.358L217.237,144.34L216.894,144.321L216.551,144.3L216.208,144.279L215.866,144.257L215.524,144.234L215.182,144.21L214.841,144.184L214.5,144.158L214.159,144.131L213.819,144.102L213.479,144.073L213.139,144.042L212.799,144.011L212.46,143.978L212.122,143.945L211.783,143.91L211.445,143.874L211.107,143.838L210.77,143.8L210.433,143.761L210.096,143.721L209.76,143.681L209.423,143.639L209.088,143.596L208.752,143.552L208.417,143.507L208.082,143.461L207.748,143.414L207.413,143.366L207.08,143.317L206.746,143.267L206.413,143.216L206.08,143.163L205.747,143.11L205.415,143.056L205.083,143.001L204.752,142.944L204.421,142.887L204.09,142.829L203.759,142.769L203.429,142.709L203.099,142.647L202.769,142.585L202.44,142.521L202.111,142.457L201.783,142.391L201.454,142.324L201.126,142.257L200.799,142.188L200.471,142.118L200.145,142.047L199.818,141.975L199.492,141.903L199.166,141.829L198.84,141.754L198.515,141.678L198.19,141.601L197.865,141.523L197.541,141.444L197.217,141.364L196.893,141.282L196.57,141.2L196.247,141.117L195.924,141.033L195.602,140.947L195.28,140.861L194.958,140.774L194.637,140.685L194.316,140.596L193.995,140.506L193.675,140.414L193.355,140.322L193.035,140.228L192.716,140.133L192.397,140.038L192.078,139.941L191.76,139.843L191.442,139.745L191.124,139.645L190.807,139.544L190.49,139.442L190.173,139.339L189.857,139.236L189.541,139.131L189.225,139.025L188.91,138.918L188.595,138.81L188.28,138.701L187.966,138.591L187.652,138.479L187.338,138.367L187.024,138.254L186.711,138.14L186.399,138.025L186.086,137.908L185.774,137.791L185.463,137.673L185.151,137.553L184.84,137.433L184.53,137.311L184.219,137.189L183.909,137.065L183.6,136.941L183.29,136.815L182.981,136.689L182.673,136.561L182.364,136.432L182.056,136.303L181.749,136.172L181.441,136.04L181.135,135.907L180.829,135.774L180.524,135.64L180.219,135.505L179.915,135.37L179.611,135.234L179.309,135.097L179.006,134.959L178.705,134.82L178.403,134.681L178.103,134.541L177.803,134.4L177.504,134.258L177.205,134.116L176.907,133.973L176.609,133.829L176.312,133.685L176.016,133.539L175.72,133.393L175.425,133.246L175.131,133.099L174.837,132.95L174.543,132.801L174.251,132.651L173.959,132.5L173.667,132.349L173.376,132.197L173.086,132.044L172.796,131.89L172.507,131.736L172.218,131.581L171.93,131.425L171.643,131.268L171.356,131.11L171.07,130.952L170.784,130.793L170.499,130.634L170.215,130.473L169.931,130.312L169.648,130.15L169.365,129.987L169.083,129.823L168.802,129.659L168.521,129.494L168.241,129.328L167.962,129.162L167.683,128.995L167.404,128.826L167.126,128.658L166.849,128.488L166.573,128.318L166.297,128.147L166.021,127.975L165.746,127.802L165.472,127.629L165.199,127.455L164.926,127.28L164.653,127.104L164.381,126.928L164.11,126.751L163.84,126.573L163.57,126.394L163.3,126.215L163.031,126.035L162.763,125.854L162.496,125.672L162.229,125.49L161.962,125.307L161.696,125.123L161.431,124.938L161.167,124.752L160.903,124.566L160.639,124.379L160.376,124.192L160.114,124.003L159.853,123.814L159.592,123.624L159.331,123.433L159.072,123.242L158.812,123.049L158.554,122.856L158.296,122.663L158.038,122.468L157.782,122.273L157.525,122.077L157.27,121.88L157.015,121.683L156.76,121.484L156.507,121.285L156.253,121.085L156.001,120.885L155.749,120.684L155.498,120.482L155.247,120.279L154.997,120.075L154.747,119.871L154.498,119.666L154.25,119.46L154.002,119.253L153.755,119.046L153.508,118.838L153.262,118.629L153.017,118.42L152.772,118.209L152.528,117.998L152.285,117.786L152.042,117.574L151.799,117.36L151.558,117.146L151.316,116.931L151.076,116.716L150.836,116.499L150.597,116.282L150.358,116.064L150.12,115.846L149.882,115.626L149.645,115.406L149.409,115.185L149.173,114.963L148.938,114.741L148.704,114.518L148.47,114.294L148.237,114.069L148.004,113.844L147.772,113.618L147.541,113.391L147.31,113.163L147.079,112.935L146.85,112.705L146.621,112.476L146.393,112.245L146.166,112.014L145.939,111.783L145.713,111.551L145.488,111.318L145.264,111.084L145.04,110.85L144.818,110.616L144.596,110.38L144.374,110.144L144.154,109.908L143.934,109.671L143.715,109.433L143.497,109.195L143.28,108.956L143.063,108.716L142.847,108.476L142.632,108.235L142.418,107.994L142.204,107.752L141.991,107.509L141.779,107.266L141.568,107.022L141.357,106.778L141.148,106.533L140.938,106.287L140.73,106.041L140.523,105.794L140.316,105.546L140.11,105.298L139.905,105.049L139.7,104.8L139.497,104.55L139.294,104.3L139.092,104.048L138.89,103.797L138.69,103.544L138.49,103.291L138.291,103.038L138.092,102.783L137.895,102.528L137.698,102.273L137.502,102.017L137.307,101.76L137.112,101.503L136.918,101.245L136.725,100.987L136.533,100.727L136.342,100.468L136.151,100.207L135.961,99.946L135.772,99.685L135.584,99.423L135.396,99.16L135.209,98.897L135.023,98.632L134.838,98.368L134.653,98.103L134.469,97.837L134.286,97.57L134.104,97.303L133.922,97.036L133.742,96.767L133.562,96.499L133.382,96.229L133.204,95.959L133.026,95.688L132.849,95.417L132.673,95.145L132.498,94.873L132.323,94.599L132.149,94.326L131.976,94.051L131.804,93.776L131.632,93.501L131.462,93.225L131.291,92.948L131.122,92.67L130.954,92.392L130.786,92.114L130.619,91.835L130.453,91.555L130.287,91.274L130.123,90.993L129.959,90.712L129.796,90.429L129.633,90.147L129.472,89.863L129.311,89.579L129.151,89.294L128.991,89.009L128.833,88.723L128.675,88.437L128.518,88.15L128.362,87.862L128.206,87.574L128.052,87.285L127.898,86.995L127.744,86.705L127.592,86.414L127.44,86.123L127.289,85.831L127.139,85.538L126.99,85.245L126.841,84.951L126.693,84.657L126.546,84.362L126.4,84.066L126.255,83.77L126.11,83.473L125.966,83.176L125.823,82.878L125.68,82.579L125.538,82.28L125.397,81.98L125.257,81.68L125.118,81.379L124.979,81.077L124.841,80.775L124.704,80.472L124.568,80.169L124.432,79.864L124.297,79.56L124.163,79.254L124.03,78.949L123.897,78.642L123.766,78.335L123.635,78.027L123.505,77.719L123.377,77.411L123.249,77.102L123.122,76.793L122.997,76.484L122.872,76.174L122.749,75.864L122.626,75.554L122.505,75.243L122.384,74.932L122.265,74.621L122.147,74.309L122.029,73.997L121.913,73.685L121.798,73.372L121.683,73.059L121.57,72.745L121.458,72.432L121.347,72.118L121.237,71.803L121.128,71.489L121.02,71.174L120.913,70.858L120.807,70.543L120.702,70.227L120.598,69.91L120.495,69.594L120.393,69.277L120.293,68.959L120.193,68.642L120.094,68.324L119.996,68.005L119.9,67.687L119.804,67.367L119.71,67.048L119.616,66.728L119.523,66.408L119.432,66.088L119.342,65.767L119.252,65.446L119.164,65.125L119.076,64.803L118.99,64.481L118.905,64.159L118.821,63.836L118.737,63.513L118.655,63.19L118.574,62.867L118.494,62.543L118.415,62.218L118.337,61.894L118.26,61.569L118.184,61.243L118.109,60.918L118.035,60.592L117.962,60.265L117.89,59.939L117.819,59.612L117.75,59.285L117.681,58.957L117.613,58.629L117.547,58.301L117.481,57.972L117.416,57.643L117.353,57.314L117.29,56.984L117.229,56.654L117.168,56.324L117.109,55.994L117.051,55.663L116.993,55.332L116.937,55L116.882,54.668L116.827,54.336L116.774,54.003L116.722,53.67L116.671,53.337L116.621,53.004L116.572,52.67L116.523,52.336L116.476,52.001L116.43,51.666L116.386,51.331L116.342,50.996L116.299,50.66L116.257,50.324L116.216,49.987L116.176,49.651L116.138,49.313L116.1,48.976L116.063,48.638L116.028,48.3L115.993,47.962L115.959,47.623L115.927,47.284L115.895,46.944L115.865,46.605L115.835,46.265L115.807,45.924L115.78,45.584L115.753,45.243L115.728,44.901L115.704,44.559L115.68,44.217L115.658,43.875L115.637,43.532L115.617,43.189L115.598,42.846L115.58,42.503L115.563,42.159L115.547,41.814L115.532,41.47L115.518,41.125L115.505,40.78L115.493,40.434L115.482,40.088L115.472,39.742L115.464,39.395L115.456,39.048L115.449,38.701L115.443,38.354L115.439,38.006L115.435,37.658L115.433,37.309L115.431,36.96L115.431,36.611L115.431,36.262L115.433,35.913L115.435,35.565L115.439,35.216L115.443,34.868L115.449,34.521L115.456,34.174L115.464,33.827L115.472,33.48L115.482,33.134L115.493,32.788L115.505,32.442L115.518,32.097L115.532,31.752L115.547,31.407L115.563,31.063L115.58,30.718L115.598,30.375L115.617,30.031L115.637,29.688L115.658,29.345L115.68,29.003L115.704,28.66L115.728,28.319L115.753,27.977L115.78,27.636L115.807,27.295L115.835,26.954L115.865,26.614L115.895,26.274L115.927,25.934L115.959,25.595L115.993,25.256L116.028,24.917L116.063,24.579L116.1,24.241L116.138,23.903L116.176,23.565L116.216,23.228L116.257,22.891L116.299,22.555L116.342,22.219L116.386,21.883L116.43,21.547L116.476,21.212L116.523,20.877L116.572,20.543L116.621,20.208L116.671,19.874L116.722,19.541L116.774,19.208L116.827,18.875L116.882,18.542L116.937,18.21L116.993,17.877L117.05,17.546L117.109,17.214L117.168,16.883L117.229,16.553L117.29,16.222L117.353,15.892L117.416,15.562L117.481,15.233L117.547,14.904L117.613,14.575L117.681,14.246L117.75,13.918L117.819,13.59L117.89,13.263L117.962,12.935L118.035,12.608L118.109,12.282L118.184,11.956L118.26,11.63L118.337,11.304L118.415,10.979L118.494,10.654L118.574,10.329L118.655,10.005L118.737,9.681L118.82,9.357L118.905,9.034L118.99,8.711L119.076,8.388L119.164,8.066L119.252,7.743L119.341,7.422L119.432,7.1L119.523,6.779L119.616,6.458L119.709,6.138L119.804,5.818L119.9,5.498L119.996,5.178L120.094,4.859L120.193,4.54L120.292,4.222L120.393,3.904L120.495,3.586L120.598,3.268L120.702,2.951L120.807,2.634L120.913,2.317L121.019,2.001L121.128,1.685L121.237,1.37L121.347,1.054L121.458,0.739L121.57,0.425L121.683,0.11L121.797,-0.204L121.913,-0.517L122.029,-0.831L122.146,-1.144L122.265,-1.456L122.384,-1.769L122.504,-2.081L122.626,-2.392L122.748,-2.704L122.872,-3.015L122.996,-3.326L123.122,-3.636L123.248,-3.946L123.376,-4.256L123.505,-4.565L123.634,-4.874L123.765,-5.183L123.897,-5.491L124.03,-5.799L124.163,-6.106L124.297,-6.413L124.432,-6.718L124.567,-7.024L124.704,-7.328L124.841,-7.632L124.979,-7.935L125.117,-8.238L125.257,-8.54L125.397,-8.842L125.538,-9.143L125.679,-9.443L125.822,-9.742L125.965,-10.042L126.109,-10.34L126.254,-10.638L126.399,-10.935L126.546,-11.231L126.693,-11.527L126.841,-11.823L126.989,-12.118L127.139,-12.412L127.289,-12.705L127.44,-12.998L127.591,-13.29L127.744,-13.582L127.897,-13.873L128.051,-14.163L128.206,-14.453L128.361,-14.742L128.517,-15.031L128.674,-15.319L128.832,-15.606L128.991,-15.893L129.15,-16.179L129.31,-16.465L129.471,-16.75L129.633,-17.034L129.795,-17.318L129.958,-17.601L130.122,-17.883L130.287,-18.165L130.452,-18.446L130.618,-18.727L130.785,-19.007L130.953,-19.286L131.122,-19.565L131.291,-19.843L131.461,-20.12L131.632,-20.397L131.803,-20.673L131.976,-20.949L132.149,-21.224L132.323,-21.498L132.497,-21.772L132.673,-22.045L132.849,-22.318L133.026,-22.59L133.203,-22.861L133.382,-23.132L133.561,-23.402L133.741,-23.671L133.922,-23.94L134.103,-24.209L134.286,-24.476L134.469,-24.743L134.652,-25.009L134.837,-25.275L135.022,-25.54L135.209,-25.805L135.395,-26.069L135.583,-26.332L135.771,-26.595L135.961,-26.857L136.151,-27.118L136.341,-27.379L136.533,-27.639L136.725,-27.899L136.918,-28.158L137.112,-28.416L137.306,-28.674L137.501,-28.931L137.697,-29.187L137.894,-29.443L138.092,-29.698L138.29,-29.953L138.489,-30.207L138.689,-30.46L138.89,-30.713L139.091,-30.965L139.293,-31.217L139.496,-31.468L139.7,-31.718L139.904,-31.968L140.11,-32.217L140.316,-32.465L140.522,-32.713L140.73,-32.96L140.938,-33.207L141.147,-33.453L141.357,-33.698L141.568,-33.943L141.779,-34.187L141.991,-34.43L142.204,-34.673L142.417,-34.915L142.632,-35.157L142.847,-35.398L143.063,-35.638L143.279,-35.878L143.497,-36.117L143.715,-36.355L143.934,-36.593L144.154,-36.831L144.374,-37.067L144.595,-37.303L144.817,-37.539L145.04,-37.773L145.264,-38.007L145.488,-38.241L145.713,-38.474L145.939,-38.706L146.165,-38.938L146.393,-39.169L146.621,-39.399L146.85,-39.629L147.079,-39.858L147.31,-40.087L147.541,-40.314L147.772,-40.541L148.004,-40.767L148.237,-40.993L148.47,-41.218L148.704,-41.441L148.938,-41.665L149.173,-41.887L149.409,-42.109L149.645,-42.33L149.882,-42.55L150.12,-42.769L150.358,-42.988L150.597,-43.206L150.836,-43.423L151.076,-43.639L151.316,-43.855L151.558,-44.07L151.799,-44.284L152.042,-44.497L152.285,-44.71L152.528,-44.922L152.772,-45.133L153.017,-45.343L153.262,-45.553L153.508,-45.762L153.755,-45.97L154.002,-46.177L154.25,-46.384L154.498,-46.589L154.747,-46.795L154.997,-46.999L155.247,-47.202L155.498,-47.405L155.749,-47.607L156.001,-47.809L156.253,-48.009L156.507,-48.209L156.76,-48.408L157.015,-48.606L157.27,-48.804L157.525,-49.001L157.782,-49.197L158.038,-49.392L158.296,-49.586L158.554,-49.78L158.812,-49.973L159.071,-50.165L159.331,-50.357L159.592,-50.548L159.853,-50.738L160.114,-50.927L160.376,-51.115L160.639,-51.303L160.903,-51.49L161.167,-51.676L161.431,-51.862L161.696,-52.046L161.962,-52.23L162.229,-52.413L162.496,-52.596L162.763,-52.777L163.031,-52.958L163.3,-53.138L163.57,-53.318L163.84,-53.497L164.11,-53.674L164.381,-53.852L164.653,-54.028L164.926,-54.204L165.199,-54.378L165.472,-54.553L165.746,-54.726L166.021,-54.898L166.297,-55.07L166.573,-55.241L166.849,-55.412L167.126,-55.581L167.404,-55.75L167.683,-55.918L167.962,-56.085L168.241,-56.252L168.521,-56.418L168.802,-56.583L169.084,-56.747L169.366,-56.911L169.648,-57.073L169.931,-57.235L170.215,-57.397L170.499,-57.557L170.784,-57.717L171.07,-57.876L171.356,-58.034L171.643,-58.192L171.93,-58.348L172.218,-58.504L172.507,-58.659L172.796,-58.814L173.086,-58.968L173.376,-59.12L173.667,-59.273L173.959,-59.424L174.251,-59.575L174.543,-59.725L174.837,-59.874L175.131,-60.022L175.425,-60.17L175.72,-60.317L176.016,-60.463L176.312,-60.608L176.609,-60.753L176.907,-60.897L177.205,-61.04L177.504,-61.182L177.803,-61.324L178.103,-61.464L178.403,-61.605L178.705,-61.744L179.006,-61.882L179.309,-62.02L179.611,-62.157L179.915,-62.293L180.219,-62.429L180.524,-62.564L180.829,-62.698L181.135,-62.831L181.441,-62.964L181.749,-63.095L182.056,-63.226L182.364,-63.356L182.673,-63.485L182.981,-63.612L183.29,-63.739L183.6,-63.864L183.909,-63.989L184.219,-64.112L184.53,-64.235L184.84,-64.356L185.151,-64.477L185.463,-64.596L185.774,-64.715L186.086,-64.832L186.399,-64.948L186.711,-65.063L187.024,-65.178L187.338,-65.291L187.652,-65.403L187.966,-65.514L188.28,-65.624L188.595,-65.733L188.91,-65.841L189.225,-65.948L189.541,-66.054L189.857,-66.159L190.173,-66.263L190.49,-66.366L190.807,-66.468L191.124,-66.569L191.442,-66.668L191.76,-66.767L192.078,-66.865L192.397,-66.961L192.716,-67.057L193.035,-67.152L193.355,-67.245L193.675,-67.338L193.995,-67.429L194.316,-67.52L194.637,-67.609L194.958,-67.697L195.28,-67.785L195.602,-67.871L195.924,-67.956L196.247,-68.041L196.57,-68.124L196.893,-68.206L197.217,-68.287L197.541,-68.367L197.865,-68.446L198.19,-68.524L198.515,-68.601L198.84,-68.677L199.166,-68.752L199.492,-68.826L199.818,-68.899L200.145,-68.971L200.471,-69.042L200.799,-69.111L201.126,-69.18L201.454,-69.248L201.783,-69.315L202.111,-69.38L202.44,-69.445L202.769,-69.508L203.099,-69.571L203.429,-69.632L203.759,-69.693L204.09,-69.752L204.421,-69.811L204.752,-69.868L205.083,-69.924L205.415,-69.98L205.747,-70.034L206.08,-70.087L206.413,-70.139L206.746,-70.19L207.08,-70.24L207.413,-70.29L207.748,-70.338L208.082,-70.385L208.417,-70.431L208.752,-70.476L209.088,-70.519L209.423,-70.562L209.76,-70.604L210.096,-70.645L210.433,-70.685L210.77,-70.724L211.107,-70.761L211.445,-70.798L211.783,-70.834L212.122,-70.868L212.46,-70.902L212.8,-70.934L213.139,-70.966L213.479,-70.996L213.819,-71.026L214.159,-71.054L214.5,-71.081L214.841,-71.108L215.182,-71.133L215.524,-71.157L215.866,-71.181L216.208,-71.203L216.551,-71.224L216.894,-71.244L217.237,-71.263L217.581,-71.281L217.925,-71.298L218.269,-71.314L218.614,-71.329L218.959,-71.343L219.304,-71.356L219.649,-71.368L219.995,-71.379L220.342,-71.389L220.688,-71.398L221.035,-71.405L221.382,-71.412L221.73,-71.418L222.078,-71.422L222.426,-71.426L222.774,-71.428L223.123,-71.43L223.472,-71.431L223.821,-71.43ZM223.129,-69.43L222.786,-69.429L222.444,-69.426L222.101,-69.422L221.759,-69.418L221.418,-69.412L221.077,-69.406L220.736,-69.398L220.395,-69.389L220.055,-69.38L219.715,-69.369L219.376,-69.357L219.036,-69.345L218.697,-69.331L218.359,-69.316L218.021,-69.301L217.683,-69.284L217.345,-69.266L217.008,-69.247L216.671,-69.228L216.335,-69.207L215.998,-69.185L215.663,-69.162L215.327,-69.138L214.992,-69.114L214.657,-69.088L214.322,-69.061L213.988,-69.033L213.654,-69.004L213.321,-68.974L212.987,-68.943L212.655,-68.911L212.322,-68.878L211.99,-68.844L211.658,-68.809L211.326,-68.773L210.995,-68.736L210.664,-68.698L210.334,-68.659L210.003,-68.619L209.674,-68.578L209.344,-68.536L209.015,-68.493L208.686,-68.449L208.357,-68.404L208.029,-68.358L207.701,-68.31L207.374,-68.262L207.046,-68.213L206.719,-68.163L206.393,-68.112L206.067,-68.059L205.741,-68.006L205.415,-67.952L205.09,-67.897L204.765,-67.84L204.44,-67.783L204.116,-67.725L203.792,-67.666L203.469,-67.605L203.145,-67.544L202.822,-67.482L202.5,-67.418L202.177,-67.354L201.856,-67.288L201.534,-67.222L201.213,-67.155L200.892,-67.086L200.571,-67.017L200.251,-66.946L199.931,-66.875L199.611,-66.802L199.292,-66.729L198.973,-66.654L198.654,-66.579L198.336,-66.502L198.018,-66.425L197.7,-66.346L197.383,-66.267L197.066,-66.186L196.749,-66.105L196.433,-66.022L196.117,-65.938L195.801,-65.854L195.485,-65.768L195.17,-65.681L194.856,-65.594L194.541,-65.505L194.227,-65.415L193.913,-65.325L193.6,-65.233L193.287,-65.14L192.974,-65.047L192.662,-64.952L192.35,-64.856L192.038,-64.759L191.726,-64.661L191.415,-64.563L191.104,-64.463L190.794,-64.362L190.484,-64.26L190.174,-64.157L189.864,-64.053L189.555,-63.948L189.246,-63.843L188.938,-63.736L188.63,-63.628L188.322,-63.519L188.014,-63.409L187.707,-63.298L187.4,-63.186L187.094,-63.073L186.787,-62.959L186.481,-62.844L186.176,-62.728L185.87,-62.611L185.566,-62.493L185.261,-62.373L184.957,-62.253L184.653,-62.132L184.349,-62.01L184.046,-61.887L183.743,-61.763L183.44,-61.638L183.138,-61.511L182.836,-61.384L182.534,-61.256L182.232,-61.127L181.931,-60.996L181.63,-60.865L181.33,-60.734L181.031,-60.601L180.732,-60.468L180.433,-60.334L180.136,-60.199L179.838,-60.064L179.542,-59.927L179.246,-59.791L178.95,-59.653L178.656,-59.514L178.361,-59.375L178.068,-59.235L177.775,-59.095L177.483,-58.953L177.191,-58.811L176.9,-58.668L176.609,-58.525L176.319,-58.381L176.03,-58.235L175.741,-58.09L175.452,-57.943L175.165,-57.796L174.878,-57.648L174.591,-57.499L174.306,-57.35L174.02,-57.199L173.736,-57.048L173.452,-56.897L173.168,-56.744L172.885,-56.591L172.603,-56.437L172.321,-56.282L172.04,-56.127L171.76,-55.971L171.48,-55.814L171.201,-55.656L170.922,-55.498L170.644,-55.339L170.366,-55.179L170.089,-55.018L169.813,-54.857L169.537,-54.695L169.262,-54.532L168.988,-54.369L168.714,-54.204L168.44,-54.039L168.168,-53.874L167.895,-53.707L167.624,-53.54L167.353,-53.372L167.082,-53.203L166.813,-53.034L166.543,-52.864L166.275,-52.693L166.007,-52.521L165.739,-52.349L165.473,-52.175L165.206,-52.002L164.941,-51.827L164.676,-51.652L164.411,-51.475L164.147,-51.299L163.884,-51.121L163.621,-50.943L163.359,-50.764L163.098,-50.584L162.837,-50.403L162.577,-50.222L162.317,-50.04L162.058,-49.857L161.799,-49.674L161.541,-49.489L161.284,-49.305L161.027,-49.119L160.771,-48.932L160.516,-48.745L160.261,-48.557L160.006,-48.368L159.752,-48.179L159.499,-47.989L159.247,-47.798L158.995,-47.606L158.743,-47.414L158.492,-47.221L158.242,-47.027L157.992,-46.832L157.743,-46.637L157.495,-46.441L157.247,-46.244L157,-46.047L156.753,-45.848L156.507,-45.649L156.261,-45.449L156.016,-45.249L155.772,-45.048L155.528,-44.846L155.285,-44.643L155.043,-44.439L154.801,-44.235L154.559,-44.03L154.318,-43.824L154.078,-43.618L153.839,-43.411L153.6,-43.203L153.361,-42.994L153.123,-42.785L152.886,-42.575L152.649,-42.364L152.413,-42.152L152.178,-41.94L151.943,-41.726L151.709,-41.513L151.475,-41.298L151.242,-41.083L151.009,-40.867L150.777,-40.65L150.546,-40.432L150.315,-40.214L150.085,-39.995L149.855,-39.775L149.626,-39.554L149.398,-39.333L149.17,-39.111L148.943,-38.888L148.716,-38.665L148.49,-38.44L148.265,-38.216L148.04,-37.99L147.816,-37.764L147.593,-37.537L147.371,-37.31L147.149,-37.082L146.928,-36.853L146.708,-36.624L146.489,-36.394L146.27,-36.164L146.052,-35.933L145.835,-35.702L145.619,-35.469L145.403,-35.237L145.189,-35.003L144.975,-34.769L144.761,-34.535L144.549,-34.299L144.337,-34.064L144.126,-33.827L143.915,-33.59L143.706,-33.352L143.497,-33.114L143.289,-32.875L143.082,-32.636L142.875,-32.396L142.669,-32.155L142.464,-31.914L142.26,-31.672L142.056,-31.429L141.853,-31.186L141.651,-30.943L141.45,-30.698L141.249,-30.453L141.049,-30.208L140.85,-29.962L140.652,-29.715L140.454,-29.467L140.258,-29.219L140.061,-28.971L139.866,-28.722L139.672,-28.472L139.478,-28.221L139.285,-27.97L139.092,-27.719L138.901,-27.467L138.71,-27.214L138.52,-26.96L138.33,-26.706L138.142,-26.451L137.954,-26.196L137.767,-25.94L137.58,-25.684L137.395,-25.427L137.21,-25.169L137.026,-24.911L136.842,-24.652L136.66,-24.392L136.478,-24.132L136.297,-23.871L136.117,-23.61L135.937,-23.348L135.758,-23.085L135.58,-22.822L135.403,-22.558L135.226,-22.294L135.05,-22.029L134.875,-21.763L134.7,-21.497L134.527,-21.23L134.354,-20.962L134.182,-20.694L134.01,-20.425L133.84,-20.156L133.67,-19.886L133.501,-19.616L133.332,-19.344L133.165,-19.073L132.998,-18.8L132.832,-18.527L132.666,-18.254L132.502,-17.979L132.338,-17.705L132.174,-17.429L132.012,-17.153L131.85,-16.876L131.689,-16.599L131.529,-16.321L131.37,-16.043L131.211,-15.764L131.053,-15.484L130.896,-15.204L130.74,-14.923L130.584,-14.641L130.429,-14.359L130.275,-14.076L130.121,-13.793L129.969,-13.509L129.817,-13.224L129.665,-12.939L129.515,-12.653L129.365,-12.367L129.216,-12.079L129.068,-11.792L128.921,-11.503L128.774,-11.215L128.628,-10.925L128.483,-10.635L128.338,-10.344L128.194,-10.053L128.051,-9.761L127.909,-9.468L127.768,-9.175L127.627,-8.881L127.487,-8.587L127.348,-8.292L127.209,-7.996L127.071,-7.7L126.934,-7.403L126.798,-7.105L126.663,-6.807L126.528,-6.508L126.394,-6.209L126.261,-5.909L126.128,-5.608L125.996,-5.307L125.865,-5.005L125.735,-4.703L125.606,-4.4L125.477,-4.097L125.35,-3.794L125.224,-3.491L125.099,-3.187L124.975,-2.883L124.852,-2.578L124.729,-2.274L124.608,-1.969L124.488,-1.663L124.369,-1.358L124.251,-1.052L124.134,-0.745L124.018,-0.439L123.903,-0.132L123.789,0.176L123.676,0.483L123.564,0.791L123.453,1.099L123.343,1.408L123.234,1.717L123.126,2.026L123.019,2.335L122.913,2.645L122.808,2.955L122.704,3.266L122.601,3.576L122.499,3.888L122.399,4.199L122.299,4.511L122.2,4.823L122.102,5.135L122.005,5.448L121.91,5.761L121.815,6.074L121.721,6.387L121.628,6.701L121.537,7.016L121.446,7.33L121.356,7.645L121.267,7.96L121.18,8.276L121.093,8.592L121.007,8.908L120.923,9.224L120.839,9.541L120.757,9.858L120.675,10.176L120.594,10.493L120.515,10.811L120.436,11.13L120.359,11.448L120.282,11.767L120.207,12.087L120.132,12.406L120.059,12.726L119.986,13.047L119.915,13.367L119.844,13.688L119.775,14.01L119.706,14.331L119.639,14.653L119.573,14.975L119.507,15.298L119.443,15.621L119.38,15.944L119.317,16.267L119.256,16.591L119.196,16.915L119.136,17.24L119.078,17.565L119.021,17.89L118.964,18.215L118.909,18.541L118.855,18.867L118.802,19.193L118.749,19.52L118.698,19.847L118.648,20.174L118.599,20.502L118.551,20.83L118.504,21.158L118.457,21.487L118.412,21.816L118.368,22.145L118.325,22.475L118.283,22.805L118.242,23.135L118.202,23.466L118.163,23.797L118.125,24.128L118.088,24.459L118.052,24.791L118.017,25.123L117.983,25.456L117.95,25.789L117.918,26.122L117.887,26.455L117.857,26.789L117.828,27.123L117.8,27.458L117.773,27.793L117.748,28.128L117.723,28.463L117.699,28.799L117.676,29.135L117.654,29.471L117.633,29.808L117.614,30.145L117.595,30.483L117.577,30.82L117.56,31.158L117.545,31.497L117.53,31.835L117.516,32.174L117.504,32.514L117.492,32.853L117.481,33.193L117.472,33.534L117.463,33.874L117.455,34.215L117.449,34.557L117.443,34.898L117.439,35.24L117.435,35.582L117.433,35.925L117.431,36.268L117.431,36.611L117.431,36.954L117.433,37.297L117.435,37.64L117.439,37.982L117.443,38.324L117.449,38.665L117.455,39.007L117.463,39.348L117.472,39.688L117.481,40.028L117.492,40.368L117.504,40.708L117.516,41.047L117.53,41.386L117.545,41.724L117.56,42.063L117.577,42.401L117.595,42.738L117.614,43.075L117.633,43.412L117.654,43.749L117.676,44.085L117.699,44.421L117.723,44.756L117.748,45.092L117.773,45.426L117.8,45.761L117.828,46.095L117.857,46.429L117.887,46.763L117.918,47.096L117.95,47.429L117.983,47.761L118.017,48.094L118.052,48.425L118.088,48.757L118.125,49.088L118.163,49.419L118.202,49.75L118.242,50.08L118.283,50.41L118.325,50.739L118.368,51.069L118.412,51.397L118.457,51.726L118.504,52.054L118.551,52.382L118.599,52.71L118.648,53.037L118.698,53.364L118.749,53.69L118.802,54.017L118.855,54.343L118.909,54.668L118.964,54.993L119.021,55.318L119.078,55.643L119.136,55.967L119.196,56.291L119.256,56.615L119.317,56.938L119.38,57.261L119.443,57.584L119.507,57.906L119.573,58.228L119.639,58.549L119.706,58.871L119.775,59.192L119.844,59.512L119.915,59.833L119.986,60.153L120.059,60.472L120.132,60.792L120.207,61.111L120.282,61.429L120.359,61.748L120.436,62.066L120.515,62.383L120.594,62.701L120.675,63.018L120.756,63.334L120.839,63.651L120.923,63.967L121.007,64.282L121.093,64.598L121.18,64.913L121.267,65.228L121.356,65.542L121.446,65.856L121.536,66.17L121.628,66.483L121.721,66.796L121.815,67.109L121.909,67.422L122.005,67.734L122.102,68.046L122.2,68.357L122.299,68.668L122.398,68.979L122.499,69.289L122.601,69.6L122.704,69.909L122.808,70.219L122.913,70.528L123.019,70.837L123.126,71.145L123.233,71.454L123.342,71.762L123.452,72.069L123.563,72.376L123.675,72.683L123.788,72.99L123.902,73.296L124.017,73.602L124.133,73.908L124.251,74.213L124.369,74.518L124.488,74.822L124.608,75.127L124.729,75.431L124.851,75.734L124.974,76.038L125.098,76.341L125.224,76.643L125.35,76.946L125.477,77.248L125.605,77.55L125.734,77.851L125.865,78.152L125.996,78.453L126.127,78.753L126.26,79.053L126.393,79.351L126.527,79.65L126.662,79.947L126.798,80.244L126.934,80.541L127.071,80.837L127.209,81.132L127.347,81.427L127.486,81.721L127.626,82.014L127.767,82.307L127.909,82.599L128.051,82.891L128.194,83.182L128.338,83.472L128.482,83.762L128.627,84.051L128.773,84.34L128.92,84.628L129.067,84.915L129.216,85.202L129.365,85.488L129.514,85.774L129.665,86.059L129.816,86.343L129.968,86.627L130.121,86.91L130.274,87.192L130.428,87.474L130.583,87.756L130.739,88.036L130.895,88.317L131.053,88.596L131.211,88.875L131.369,89.153L131.529,89.431L131.689,89.708L131.85,89.985L132.011,90.261L132.174,90.536L132.337,90.811L132.501,91.085L132.666,91.358L132.831,91.631L132.997,91.903L133.164,92.175L133.332,92.446L133.5,92.717L133.669,92.987L133.839,93.256L134.01,93.525L134.181,93.793L134.353,94.06L134.526,94.327L134.7,94.593L134.874,94.859L135.049,95.124L135.225,95.389L135.402,95.652L135.579,95.916L135.757,96.178L135.936,96.44L136.116,96.702L136.296,96.963L136.477,97.223L136.659,97.483L136.842,97.742L137.025,98L137.209,98.258L137.394,98.515L137.58,98.772L137.766,99.028L137.953,99.283L138.141,99.538L138.33,99.793L138.519,100.046L138.709,100.299L138.9,100.552L139.092,100.804L139.284,101.055L139.477,101.305L139.671,101.555L139.866,101.805L140.061,102.054L140.257,102.302L140.454,102.55L140.652,102.797L140.85,103.043L141.049,103.289L141.249,103.534L141.449,103.779L141.651,104.023L141.853,104.266L142.056,104.509L142.259,104.752L142.464,104.993L142.669,105.234L142.875,105.475L143.081,105.715L143.289,105.954L143.497,106.193L143.706,106.431L143.915,106.668L144.125,106.905L144.337,107.141L144.548,107.377L144.761,107.612L144.974,107.846L145.188,108.08L145.403,108.314L145.619,108.546L145.835,108.778L146.052,109.01L146.27,109.241L146.489,109.471L146.708,109.701L146.928,109.93L147.149,110.158L147.371,110.386L147.593,110.614L147.816,110.84L148.04,111.066L148.265,111.292L148.49,111.517L148.716,111.741L148.943,111.965L149.17,112.187L149.398,112.409L149.626,112.631L149.855,112.851L150.085,113.071L150.315,113.29L150.546,113.508L150.777,113.726L151.009,113.943L151.242,114.159L151.475,114.374L151.709,114.589L151.943,114.803L152.178,115.016L152.413,115.228L152.649,115.44L152.886,115.651L153.123,115.861L153.361,116.071L153.6,116.279L153.839,116.487L154.078,116.694L154.318,116.901L154.559,117.107L154.801,117.312L155.043,117.516L155.285,117.719L155.528,117.922L155.772,118.124L156.016,118.325L156.261,118.526L156.507,118.726L156.753,118.925L157,119.123L157.247,119.321L157.495,119.517L157.743,119.713L157.992,119.909L158.242,120.103L158.492,120.297L158.743,120.49L158.995,120.683L159.247,120.874L159.499,121.065L159.752,121.255L160.006,121.445L160.261,121.634L160.516,121.822L160.771,122.009L161.027,122.195L161.284,122.381L161.541,122.566L161.799,122.75L162.058,122.934L162.317,123.116L162.577,123.298L162.837,123.48L163.098,123.66L163.359,123.84L163.621,124.019L163.884,124.197L164.147,124.375L164.411,124.552L164.676,124.728L164.941,124.903L165.206,125.078L165.473,125.252L165.739,125.425L166.007,125.597L166.275,125.769L166.543,125.94L166.813,126.11L167.082,126.28L167.353,126.448L167.624,126.616L167.895,126.784L168.168,126.95L168.44,127.116L168.714,127.281L168.988,127.445L169.262,127.609L169.537,127.771L169.813,127.933L170.089,128.095L170.366,128.255L170.644,128.415L170.922,128.574L171.201,128.733L171.48,128.89L171.76,129.047L172.04,129.203L172.321,129.359L172.603,129.513L172.885,129.667L173.168,129.821L173.452,129.973L173.736,130.125L174.02,130.276L174.306,130.426L174.591,130.575L174.878,130.724L175.165,130.872L175.452,131.02L175.741,131.166L176.03,131.312L176.319,131.457L176.609,131.601L176.9,131.745L177.191,131.888L177.483,132.03L177.775,132.171L178.068,132.312L178.361,132.452L178.656,132.591L178.95,132.729L179.246,132.867L179.542,133.004L179.838,133.14L180.136,133.276L180.433,133.41L180.732,133.544L181.031,133.677L181.33,133.81L181.63,133.942L181.931,134.073L182.232,134.203L182.534,134.332L182.835,134.461L183.138,134.588L183.44,134.714L183.743,134.839L184.046,134.963L184.349,135.086L184.653,135.209L184.957,135.33L185.261,135.45L185.566,135.569L185.87,135.687L186.176,135.804L186.481,135.92L186.787,136.035L187.094,136.149L187.4,136.262L187.707,136.374L188.014,136.485L188.322,136.595L188.63,136.704L188.938,136.812L189.246,136.919L189.555,137.025L189.864,137.13L190.174,137.234L190.484,137.336L190.794,137.438L191.104,137.539L191.415,137.639L191.726,137.738L192.038,137.836L192.35,137.932L192.662,138.028L192.974,138.123L193.287,138.217L193.6,138.309L193.913,138.401L194.227,138.492L194.541,138.582L194.856,138.67L195.17,138.758L195.485,138.845L195.801,138.93L196.117,139.015L196.433,139.098L196.749,139.181L197.066,139.263L197.383,139.343L197.7,139.423L198.018,139.501L198.336,139.579L198.654,139.655L198.973,139.731L199.292,139.805L199.611,139.879L199.931,139.951L200.251,140.023L200.571,140.093L200.892,140.163L201.213,140.231L201.534,140.298L201.856,140.365L202.177,140.43L202.5,140.495L202.822,140.558L203.145,140.62L203.469,140.682L203.792,140.742L204.116,140.801L204.44,140.86L204.765,140.917L205.09,140.973L205.415,141.028L205.741,141.083L206.067,141.136L206.393,141.188L206.72,141.239L207.046,141.289L207.374,141.339L207.701,141.387L208.029,141.434L208.357,141.48L208.686,141.525L209.015,141.569L209.344,141.612L209.674,141.654L210.003,141.696L210.334,141.736L210.664,141.775L210.995,141.813L211.326,141.85L211.658,141.886L211.99,141.921L212.322,141.955L212.655,141.988L212.987,142.02L213.321,142.05L213.654,142.08L213.988,142.109L214.322,142.137L214.657,142.164L214.992,142.19L215.327,142.215L215.663,142.239L215.998,142.261L216.335,142.283L216.671,142.304L217.008,142.324L217.345,142.343L217.683,142.36L218.021,142.377L218.359,142.393L218.697,142.408L219.036,142.421L219.376,142.434L219.715,142.446L220.055,142.456L220.395,142.466L220.736,142.474L221.077,142.482L221.418,142.489L221.759,142.494L222.101,142.499L222.444,142.502L222.786,142.505L223.129,142.506L223.472,142.507L223.815,142.506L224.158,142.505L224.501,142.502L224.843,142.499L225.185,142.494L225.527,142.489L225.868,142.482L226.209,142.474L226.55,142.466L226.89,142.456L227.23,142.446L227.57,142.434L227.909,142.421L228.248,142.408L228.587,142.393L228.925,142.377L229.263,142.36L229.601,142.343L229.938,142.324L230.275,142.304L230.612,142.283L230.948,142.261L231.284,142.239L231.62,142.215L231.956,142.19L232.291,142.164L232.625,142.137L232.96,142.109L233.294,142.08L233.628,142.05L233.961,142.02L234.294,141.988L234.627,141.955L234.96,141.921L235.292,141.886L235.624,141.85L235.955,141.813L236.287,141.775L236.618,141.736L236.948,141.696L237.278,141.654L237.608,141.612L237.938,141.569L238.267,141.525L238.596,141.48L238.925,141.434L239.253,141.387L239.581,141.339L239.909,141.289L240.236,141.239L240.563,141.188L240.89,141.136L241.216,141.083L241.543,141.028L241.868,140.973L242.194,140.917L242.519,140.86L242.844,140.801L243.168,140.742L243.492,140.682L243.816,140.62L244.139,140.558L244.463,140.495L244.786,140.43L245.108,140.365L245.43,140.298L245.752,140.231L246.074,140.163L246.395,140.093L246.716,140.023L247.037,139.951L247.357,139.879L247.677,139.805L247.997,139.731L248.316,139.655L248.635,139.579L248.954,139.501L249.272,139.423L249.59,139.343L249.908,139.262L250.225,139.181L250.542,139.098L250.859,139.015L251.176,138.93L251.492,138.844L251.808,138.758L252.123,138.67L252.438,138.581L252.753,138.492L253.068,138.401L253.382,138.309L253.696,138.216L254.009,138.123L254.323,138.028L254.636,137.932L254.948,137.835L255.261,137.738L255.573,137.639L255.884,137.539L256.196,137.438L256.507,137.336L256.818,137.233L257.128,137.129L257.438,137.024L257.748,136.919L258.057,136.812L258.367,136.704L258.675,136.595L258.984,136.485L259.292,136.374L259.6,136.262L259.908,136.149L260.215,136.035L260.522,135.92L260.829,135.804L261.135,135.687L261.441,135.568L261.747,135.449L262.052,135.329L262.357,135.208L262.662,135.086L262.966,134.963L263.27,134.839L263.574,134.713L263.878,134.587L264.181,134.46L264.484,134.332L264.786,134.203L265.089,134.072L265.391,133.941L265.692,133.809L265.992,133.677L266.292,133.544L266.592,133.41L266.891,133.275L267.189,133.14L267.486,133.003L267.783,132.866L268.079,132.729L268.375,132.59L268.67,132.451L268.965,132.311L269.259,132.171L269.552,132.029L269.844,131.887L270.136,131.744L270.428,131.601L270.719,131.456L271.009,131.311L271.298,131.166L271.587,131.019L271.876,130.872L272.163,130.724L272.45,130.575L272.737,130.426L273.023,130.275L273.308,130.124L273.593,129.973L273.877,129.82L274.16,129.667L274.443,129.513L274.725,129.358L275.007,129.203L275.288,129.047L275.568,128.89L275.848,128.732L276.127,128.574L276.405,128.415L276.683,128.255L276.961,128.095L277.237,127.933L277.513,127.771L277.789,127.608L278.064,127.445L278.338,127.281L278.612,127.116L278.885,126.95L279.157,126.783L279.429,126.616L279.7,126.448L279.971,126.279L280.24,126.11L280.51,125.94L280.779,125.769L281.047,125.597L281.314,125.425L281.581,125.252L281.847,125.078L282.113,124.903L282.378,124.728L282.643,124.552L282.906,124.375L283.17,124.197L283.432,124.019L283.694,123.84L283.956,123.66L284.216,123.48L284.477,123.299L284.736,123.117L284.995,122.934L285.254,122.75L285.511,122.566L285.768,122.381L286.025,122.195L286.281,122.009L286.536,121.822L286.791,121.634L287.045,121.445L287.298,121.256L287.551,121.066L287.804,120.875L288.055,120.683L288.306,120.491L288.557,120.298L288.806,120.104L289.056,119.909L289.304,119.714L289.552,119.518L289.8,119.321L290.046,119.124L290.293,118.925L290.538,118.726L290.783,118.526L291.027,118.326L291.271,118.125L291.514,117.923L291.757,117.72L291.999,117.517L292.24,117.312L292.481,117.107L292.721,116.902L292.96,116.695L293.199,116.488L293.437,116.28L293.675,116.072L293.912,115.862L294.149,115.652L294.384,115.441L294.62,115.23L294.854,115.017L295.088,114.804L295.322,114.59L295.554,114.376L295.787,114.16L296.018,113.944L296.249,113.728L296.48,113.51L296.709,113.292L296.938,113.073L297.167,112.853L297.395,112.632L297.622,112.411L297.849,112.189L298.075,111.966L298.301,111.743L298.526,111.519L298.75,111.294L298.973,111.068L299.196,110.842L299.418,110.615L299.639,110.388L299.86,110.16L300.08,109.932L300.299,109.703L300.517,109.473L300.735,109.243L300.951,109.012L301.167,108.78L301.383,108.548L301.597,108.315L301.811,108.082L302.024,107.848L302.237,107.614L302.448,107.379L302.659,107.143L302.869,106.907L303.079,106.67L303.287,106.432L303.495,106.194L303.703,105.956L303.909,105.716L304.115,105.476L304.32,105.236L304.524,104.995L304.727,104.753L304.93,104.511L305.132,104.268L305.333,104.025L305.534,103.781L305.734,103.536L305.933,103.291L306.131,103.045L306.328,102.798L306.525,102.551L306.721,102.304L306.917,102.055L307.111,101.806L307.305,101.557L307.498,101.307L307.691,101.056L307.882,100.805L308.073,100.553L308.263,100.301L308.453,100.048L308.641,99.794L308.829,99.54L309.016,99.285L309.203,99.029L309.389,98.773L309.574,98.517L309.758,98.259L309.941,98.001L310.124,97.743L310.306,97.484L310.487,97.224L310.668,96.964L310.848,96.703L311.027,96.442L311.205,96.18L311.383,95.917L311.559,95.654L311.735,95.39L311.911,95.125L312.085,94.86L312.259,94.594L312.432,94.328L312.605,94.061L312.776,93.794L312.947,93.526L313.118,93.257L313.287,92.988L313.456,92.718L313.624,92.447L313.791,92.176L313.957,91.904L314.123,91.632L314.288,91.359L314.452,91.086L314.616,90.812L314.779,90.537L314.941,90.262L315.102,89.986L315.263,89.709L315.422,89.432L315.582,89.154L315.74,88.876L315.898,88.597L316.054,88.317L316.211,88.037L316.366,87.756L316.521,87.475L316.675,87.193L316.828,86.911L316.98,86.627L317.132,86.344L317.283,86.059L317.433,85.774L317.583,85.489L317.731,85.202L317.879,84.916L318.027,84.628L318.173,84.34L318.319,84.052L318.464,83.762L318.608,83.473L318.752,83.182L318.895,82.891L319.037,82.599L319.178,82.307L319.319,82.014L319.459,81.721L319.598,81.427L319.736,81.132L319.874,80.837L320.011,80.541L320.147,80.245L320.283,79.948L320.417,79.65L320.551,79.352L320.684,79.053L320.817,78.753L320.949,78.453L321.08,78.152L321.21,77.851L321.339,77.55L321.467,77.248L321.595,76.946L321.721,76.643L321.846,76.341L321.97,76.038L322.093,75.734L322.216,75.431L322.337,75.127L322.457,74.822L322.576,74.518L322.694,74.213L322.811,73.908L322.927,73.602L323.042,73.296L323.156,72.99L323.269,72.683L323.381,72.376L323.492,72.069L323.602,71.762L323.711,71.454L323.819,71.145L323.926,70.837L324.032,70.528L324.137,70.219L324.241,69.909L324.343,69.6L324.445,69.289L324.546,68.979L324.646,68.668L324.745,68.357L324.843,68.045L324.939,67.734L325.035,67.422L325.13,67.109L325.224,66.796L325.316,66.483L325.408,66.17L325.499,65.856L325.588,65.542L325.677,65.228L325.765,64.913L325.851,64.598L325.937,64.282L326.022,63.967L326.105,63.651L326.188,63.334L326.27,63.018L326.35,62.701L326.43,62.383L326.508,62.066L326.586,61.748L326.662,61.429L326.738,61.111L326.812,60.792L326.886,60.472L326.958,60.153L327.03,59.833L327.1,59.512L327.17,59.192L327.238,58.871L327.305,58.549L327.372,58.228L327.437,57.906L327.502,57.584L327.565,57.261L327.627,56.938L327.689,56.615L327.749,56.291L327.808,55.967L327.867,55.643L327.924,55.318L327.98,54.993L328.035,54.668L328.09,54.343L328.143,54.017L328.195,53.69L328.246,53.364L328.296,53.037L328.346,52.71L328.394,52.382L328.441,52.054L328.487,51.726L328.532,51.397L328.576,51.069L328.619,50.739L328.661,50.41L328.702,50.08L328.743,49.75L328.782,49.419L328.82,49.088L328.857,48.757L328.893,48.425L328.928,48.093L328.962,47.761L328.995,47.429L329.026,47.096L329.057,46.763L329.087,46.429L329.116,46.095L329.144,45.761L329.171,45.426L329.197,45.092L329.222,44.756L329.246,44.421L329.268,44.085L329.29,43.749L329.311,43.412L329.331,43.075L329.35,42.738L329.367,42.401L329.384,42.063L329.4,41.724L329.414,41.386L329.428,41.047L329.441,40.708L329.452,40.368L329.463,40.028L329.473,39.688L329.481,39.348L329.489,39.007L329.496,38.665L329.501,38.324L329.506,37.982L329.509,37.64L329.512,37.297L329.513,36.954L329.514,36.611L329.513,36.268L329.512,35.925L329.509,35.582L329.506,35.24L329.501,34.898L329.496,34.557L329.489,34.215L329.481,33.874L329.473,33.534L329.463,33.193L329.452,32.853L329.441,32.514L329.428,32.174L329.414,31.835L329.4,31.497L329.384,31.158L329.367,30.82L329.35,30.483L329.331,30.145L329.311,29.808L329.29,29.471L329.268,29.135L329.246,28.799L329.222,28.463L329.197,28.128L329.171,27.793L329.144,27.458L329.116,27.123L329.087,26.789L329.057,26.456L329.026,26.122L328.995,25.789L328.962,25.456L328.928,25.123L328.893,24.791L328.857,24.459L328.82,24.128L328.782,23.797L328.743,23.466L328.702,23.135L328.661,22.805L328.619,22.475L328.576,22.145L328.532,21.816L328.487,21.487L328.441,21.158L328.394,20.83L328.346,20.502L328.296,20.174L328.246,19.847L328.195,19.52L328.143,19.193L328.09,18.867L328.035,18.541L327.98,18.215L327.924,17.89L327.866,17.565L327.808,17.24L327.749,16.915L327.689,16.591L327.627,16.267L327.565,15.944L327.502,15.621L327.437,15.298L327.372,14.975L327.305,14.653L327.238,14.331L327.17,14.01L327.1,13.688L327.03,13.367L326.958,13.047L326.886,12.726L326.812,12.406L326.738,12.087L326.662,11.767L326.586,11.448L326.508,11.13L326.43,10.811L326.35,10.493L326.269,10.176L326.188,9.858L326.105,9.541L326.022,9.224L325.937,8.908L325.851,8.592L325.765,8.276L325.677,7.96L325.588,7.645L325.499,7.33L325.408,7.016L325.316,6.701L325.223,6.387L325.13,6.074L325.035,5.761L324.939,5.448L324.842,5.135L324.744,4.823L324.646,4.511L324.546,4.199L324.445,3.888L324.343,3.576L324.24,3.266L324.136,2.955L324.031,2.645L323.926,2.335L323.819,2.026L323.711,1.717L323.602,1.408L323.492,1.099L323.381,0.791L323.269,0.483L323.156,0.176L323.042,-0.132L322.927,-0.439L322.811,-0.745L322.694,-1.052L322.575,-1.358L322.456,-1.663L322.336,-1.969L322.215,-2.274L322.093,-2.578L321.97,-2.883L321.846,-3.187L321.72,-3.491L321.594,-3.794L321.467,-4.097L321.339,-4.4L321.209,-4.703L321.079,-5.005L320.948,-5.307L320.816,-5.608L320.684,-5.909L320.551,-6.209L320.417,-6.508L320.282,-6.807L320.147,-7.105L320.01,-7.403L319.873,-7.7L319.736,-7.996L319.597,-8.292L319.458,-8.587L319.318,-8.881L319.178,-9.175L319.036,-9.468L318.894,-9.761L318.751,-10.053L318.608,-10.345L318.463,-10.635L318.318,-10.925L318.173,-11.215L318.026,-11.504L317.879,-11.792L317.731,-12.08L317.582,-12.367L317.432,-12.654L317.282,-12.939L317.131,-13.225L316.98,-13.509L316.827,-13.793L316.674,-14.077L316.52,-14.36L316.365,-14.642L316.21,-14.923L316.054,-15.204L315.897,-15.485L315.739,-15.765L315.581,-16.044L315.422,-16.322L315.262,-16.6L315.101,-16.877L314.94,-17.154L314.778,-17.43L314.615,-17.706L314.452,-17.98L314.288,-18.255L314.123,-18.528L313.957,-18.801L313.79,-19.074L313.623,-19.345L313.455,-19.617L313.286,-19.887L313.117,-20.157L312.947,-20.427L312.776,-20.695L312.604,-20.963L312.432,-21.231L312.259,-21.498L312.085,-21.764L311.91,-22.03L311.735,-22.295L311.559,-22.559L311.382,-22.823L311.204,-23.086L311.026,-23.349L310.847,-23.611L310.667,-23.872L310.487,-24.133L310.305,-24.393L310.123,-24.653L309.941,-24.912L309.757,-25.17L309.573,-25.428L309.388,-25.685L309.202,-25.942L309.016,-26.198L308.829,-26.453L308.641,-26.708L308.452,-26.962L308.263,-27.215L308.073,-27.468L307.882,-27.72L307.69,-27.972L307.498,-28.223L307.305,-28.473L307.111,-28.723L306.916,-28.972L306.721,-29.221L306.525,-29.469L306.328,-29.716L306.131,-29.963L305.932,-30.209L305.733,-30.455L305.533,-30.7L305.333,-30.944L305.132,-31.188L304.93,-31.431L304.727,-31.674L304.524,-31.915L304.319,-32.157L304.114,-32.397L303.909,-32.637L303.702,-32.877L303.495,-33.116L303.287,-33.354L303.079,-33.592L302.869,-33.829L302.659,-34.065L302.448,-34.301L302.237,-34.536L302.024,-34.771L301.811,-35.005L301.597,-35.238L301.383,-35.471L301.167,-35.703L300.951,-35.935L300.734,-36.166L300.517,-36.396L300.299,-36.626L300.08,-36.855L299.86,-37.084L299.639,-37.312L299.418,-37.539L299.196,-37.766L298.973,-37.992L298.75,-38.217L298.526,-38.442L298.301,-38.666L298.075,-38.89L297.849,-39.113L297.622,-39.335L297.395,-39.556L297.167,-39.776L296.938,-39.996L296.709,-40.215L296.48,-40.434L296.249,-40.651L296.018,-40.868L295.787,-41.084L295.554,-41.299L295.322,-41.514L295.088,-41.728L294.854,-41.941L294.62,-42.153L294.384,-42.365L294.149,-42.576L293.912,-42.786L293.675,-42.995L293.437,-43.204L293.199,-43.412L292.96,-43.619L292.721,-43.825L292.481,-44.031L292.24,-44.236L291.999,-44.44L291.757,-44.644L291.514,-44.846L291.271,-45.048L291.027,-45.25L290.783,-45.45L290.538,-45.65L290.293,-45.849L290.046,-46.047L289.8,-46.245L289.552,-46.442L289.304,-46.638L289.056,-46.833L288.806,-47.027L288.557,-47.221L288.306,-47.414L288.055,-47.607L287.804,-47.798L287.551,-47.989L287.298,-48.179L287.045,-48.369L286.791,-48.557L286.536,-48.745L286.281,-48.933L286.025,-49.119L285.768,-49.305L285.511,-49.49L285.254,-49.674L284.995,-49.857L284.736,-50.04L284.477,-50.222L284.216,-50.403L283.956,-50.584L283.694,-50.764L283.432,-50.943L283.17,-51.121L282.906,-51.299L282.643,-51.475L282.378,-51.652L282.113,-51.827L281.847,-52.001L281.581,-52.175L281.314,-52.348L281.047,-52.521L280.779,-52.693L280.51,-52.863L280.24,-53.034L279.971,-53.203L279.7,-53.372L279.429,-53.54L279.157,-53.707L278.885,-53.873L278.612,-54.039L278.338,-54.204L278.064,-54.368L277.789,-54.532L277.513,-54.695L277.237,-54.857L276.961,-55.018L276.683,-55.179L276.405,-55.339L276.127,-55.498L275.848,-55.656L275.568,-55.814L275.288,-55.97L275.007,-56.127L274.725,-56.282L274.443,-56.437L274.16,-56.591L273.877,-56.744L273.593,-56.896L273.308,-57.048L273.023,-57.199L272.737,-57.349L272.45,-57.499L272.163,-57.647L271.876,-57.795L271.587,-57.943L271.298,-58.089L271.009,-58.235L270.719,-58.38L270.428,-58.524L270.136,-58.668L269.844,-58.811L269.552,-58.953L269.259,-59.094L268.965,-59.235L268.67,-59.375L268.375,-59.514L268.079,-59.652L267.783,-59.79L267.486,-59.927L267.189,-60.063L266.891,-60.199L266.592,-60.333L266.292,-60.467L265.992,-60.601L265.692,-60.733L265.391,-60.865L265.089,-60.996L264.786,-61.126L264.484,-61.255L264.181,-61.384L263.878,-61.511L263.574,-61.637L263.27,-61.762L262.966,-61.886L262.662,-62.01L262.357,-62.132L262.052,-62.253L261.747,-62.373L261.441,-62.492L261.135,-62.61L260.829,-62.727L260.522,-62.843L260.215,-62.958L259.908,-63.072L259.6,-63.185L259.292,-63.297L258.984,-63.408L258.675,-63.518L258.367,-63.627L258.057,-63.735L257.748,-63.842L257.438,-63.948L257.128,-64.053L256.818,-64.157L256.507,-64.26L256.196,-64.362L255.884,-64.463L255.573,-64.562L255.261,-64.661L254.948,-64.759L254.636,-64.856L254.323,-64.952L254.009,-65.046L253.696,-65.14L253.382,-65.233L253.068,-65.325L252.753,-65.415L252.438,-65.505L252.123,-65.594L251.808,-65.681L251.492,-65.768L251.176,-65.854L250.859,-65.938L250.542,-66.022L250.225,-66.104L249.908,-66.186L249.59,-66.267L249.272,-66.346L248.954,-66.425L248.635,-66.502L248.316,-66.579L247.997,-66.654L247.677,-66.729L247.357,-66.802L247.037,-66.875L246.716,-66.946L246.395,-67.017L246.074,-67.086L245.752,-67.155L245.43,-67.222L245.108,-67.288L244.786,-67.354L244.463,-67.418L244.139,-67.482L243.816,-67.544L243.492,-67.605L243.168,-67.666L242.844,-67.725L242.519,-67.783L242.194,-67.84L241.868,-67.897L241.542,-67.952L241.216,-68.006L240.89,-68.059L240.563,-68.112L240.236,-68.163L239.909,-68.213L239.581,-68.262L239.253,-68.31L238.925,-68.358L238.596,-68.404L238.267,-68.449L237.938,-68.493L237.608,-68.536L237.278,-68.578L236.948,-68.619L236.618,-68.659L236.287,-68.698L235.955,-68.736L235.624,-68.773L235.292,-68.809L234.96,-68.844L234.627,-68.878L234.294,-68.911L233.961,-68.943L233.628,-68.974L233.294,-69.004L232.96,-69.033L232.625,-69.061L232.291,-69.088L231.956,-69.114L231.62,-69.138L231.284,-69.162L230.948,-69.185L230.612,-69.207L230.275,-69.228L229.938,-69.247L229.601,-69.266L229.263,-69.284L228.925,-69.301L228.587,-69.316L228.248,-69.331L227.909,-69.345L227.57,-69.357L227.23,-69.369L226.89,-69.38L226.55,-69.389L226.209,-69.398L225.868,-69.406L225.527,-69.412L225.185,-69.418L224.843,-69.422L224.501,-69.426L224.158,-69.429L223.815,-69.43L223.472,-69.431L223.129,-69.43ZM223.842,-19.95L224.211,-19.947L224.579,-19.942L224.946,-19.934L225.312,-19.925L225.678,-19.913L226.042,-19.899L226.405,-19.883L226.768,-19.865L227.129,-19.845L227.49,-19.822L227.849,-19.798L228.208,-19.771L228.566,-19.742L228.922,-19.711L229.278,-19.678L229.633,-19.643L229.987,-19.605L230.34,-19.566L230.692,-19.524L231.044,-19.48L231.394,-19.434L231.743,-19.386L232.091,-19.336L232.439,-19.283L232.785,-19.229L233.131,-19.172L233.475,-19.113L233.819,-19.052L234.162,-18.989L234.503,-18.924L234.844,-18.856L235.184,-18.787L235.523,-18.715L235.861,-18.641L236.198,-18.565L236.534,-18.487L236.869,-18.406L237.203,-18.324L237.536,-18.239L237.868,-18.152L238.199,-18.064L238.53,-17.972L238.859,-17.879L239.187,-17.784L239.515,-17.686L239.841,-17.587L240.167,-17.485L240.491,-17.381L240.815,-17.275L241.137,-17.166L241.459,-17.056L241.78,-16.943L242.099,-16.829L242.418,-16.712L242.736,-16.593L243.052,-16.472L243.368,-16.348L243.683,-16.223L243.997,-16.095L244.31,-15.966L244.621,-15.834L244.932,-15.7L245.242,-15.564L245.55,-15.426L245.857,-15.286L246.162,-15.145L246.466,-15.003L246.769,-14.859L247.071,-14.713L247.371,-14.565L247.67,-14.416L247.968,-14.265L248.265,-14.113L248.56,-13.959L248.854,-13.803L249.147,-13.646L249.439,-13.487L249.729,-13.326L250.018,-13.164L250.306,-13L250.593,-12.834L250.878,-12.667L251.162,-12.498L251.445,-12.328L251.727,-12.155L252.007,-11.982L252.286,-11.806L252.564,-11.629L252.841,-11.451L253.116,-11.27L253.39,-11.088L253.663,-10.905L253.934,-10.719L254.204,-10.532L254.473,-10.344L254.741,-10.154L255.007,-9.962L255.273,-9.769L255.536,-9.574L255.799,-9.377L256.06,-9.178L256.32,-8.979L256.579,-8.777L256.837,-8.574L257.093,-8.369L257.348,-8.162L257.602,-7.954L257.854,-7.744L258.105,-7.533L258.355,-7.32L258.604,-7.105L258.851,-6.889L259.097,-6.671L259.342,-6.452L259.586,-6.23L259.828,-6.008L260.069,-5.783L260.309,-5.557L260.547,-5.33L260.784,-5.1L261.02,-4.869L261.255,-4.637L261.488,-4.403L261.72,-4.167L261.951,-3.929L262.18,-3.69L262.408,-3.45L262.635,-3.208L262.86,-2.964L263.084,-2.72L263.305,-2.474L263.526,-2.227L263.744,-1.979L263.962,-1.73L264.177,-1.479L264.391,-1.227L264.603,-0.974L264.814,-0.719L265.023,-0.464L265.231,-0.207L265.437,0.051L265.641,0.31L265.844,0.571L266.045,0.833L266.245,1.096L266.443,1.36L266.639,1.626L266.834,1.892L267.027,2.16L267.219,2.429L267.409,2.7L267.597,2.972L267.784,3.244L267.969,3.518L268.153,3.794L268.335,4.07L268.515,4.348L268.694,4.627L268.871,4.907L269.047,5.189L269.221,5.471L269.393,5.755L269.564,6.04L269.733,6.327L269.901,6.614L270.067,6.903L270.231,7.193L270.394,7.484L270.555,7.777L270.715,8.071L270.873,8.365L271.029,8.661L271.184,8.959L271.337,9.257L271.488,9.557L271.638,9.858L271.787,10.16L271.933,10.464L272.079,10.768L272.222,11.074L272.364,11.381L272.504,11.689L272.643,11.999L272.78,12.309L272.916,12.621L273.05,12.934L273.182,13.248L273.313,13.564L273.442,13.881L273.569,14.198L273.695,14.518L273.819,14.838L273.942,15.159L274.062,15.482L274.181,15.805L274.297,16.128L274.412,16.453L274.524,16.778L274.635,17.104L274.743,17.431L274.85,17.759L274.955,18.088L275.058,18.417L275.158,18.747L275.257,19.078L275.354,19.409L275.449,19.742L275.542,20.075L275.633,20.409L275.722,20.744L275.809,21.079L275.894,21.416L275.977,21.753L276.058,22.091L276.138,22.43L276.215,22.769L276.29,23.109L276.364,23.45L276.435,23.792L276.504,24.135L276.572,24.478L276.637,24.822L276.701,25.167L276.763,25.513L276.822,25.859L276.88,26.207L276.936,26.555L276.989,26.903L277.041,27.253L277.091,27.603L277.139,27.954L277.185,28.306L277.229,28.659L277.271,29.012L277.311,29.367L277.349,29.722L277.385,30.077L277.419,30.434L277.452,30.791L277.482,31.149L277.51,31.508L277.536,31.867L277.561,32.228L277.583,32.589L277.604,32.951L277.622,33.313L277.639,33.677L277.654,34.041L277.666,34.406L277.677,34.771L277.686,35.138L277.693,35.505L277.697,35.873L277.7,36.242L277.701,36.611L277.7,36.976L277.697,37.341L277.693,37.704L277.686,38.067L277.677,38.43L277.666,38.791L277.654,39.153L277.639,39.513L277.622,39.873L277.604,40.232L277.583,40.59L277.561,40.948L277.536,41.305L277.51,41.662L277.482,42.018L277.451,42.373L277.419,42.727L277.385,43.081L277.349,43.434L277.311,43.787L277.271,44.138L277.229,44.49L277.185,44.84L277.139,45.19L277.091,45.539L277.041,45.888L276.989,46.235L276.935,46.583L276.88,46.929L276.822,47.275L276.762,47.62L276.701,47.964L276.637,48.308L276.572,48.651L276.504,48.994L276.435,49.336L276.364,49.677L276.29,50.017L276.215,50.357L276.138,50.696L276.058,51.034L275.977,51.372L275.894,51.709L275.809,52.046L275.722,52.381L275.633,52.716L275.542,53.051L275.449,53.384L275.354,53.717L275.257,54.049L275.159,54.381L275.058,54.712L274.955,55.042L274.85,55.372L274.744,55.701L274.635,56.029L274.525,56.356L274.412,56.683L274.298,57.009L274.181,57.335L274.063,57.659L273.943,57.983L273.82,58.307L273.696,58.629L273.57,58.951L273.443,59.271L273.314,59.59L273.183,59.907L273.05,60.224L272.917,60.539L272.781,60.852L272.644,61.165L272.505,61.476L272.365,61.786L272.223,62.094L272.079,62.402L271.934,62.708L271.787,63.013L271.639,63.316L271.489,63.618L271.337,63.919L271.184,64.219L271.03,64.517L270.873,64.814L270.715,65.11L270.555,65.404L270.394,65.698L270.231,65.99L270.067,66.28L269.901,66.57L269.733,66.858L269.564,67.144L269.393,67.43L269.221,67.714L269.047,67.997L268.871,68.278L268.694,68.559L268.515,68.838L268.335,69.115L268.152,69.392L267.969,69.667L267.784,69.941L267.597,70.213L267.408,70.484L267.218,70.754L267.026,71.023L266.833,71.29L266.638,71.556L266.442,71.821L266.244,72.084L266.044,72.347L265.843,72.607L265.64,72.867L265.435,73.125L265.229,73.382L265.022,73.638L264.812,73.892L264.601,74.145L264.389,74.396L264.175,74.647L263.959,74.896L263.742,75.144L263.523,75.39L263.303,75.635L263.081,75.879L262.857,76.121L262.632,76.363L262.405,76.602L262.177,76.841L261.948,77.078L261.717,77.313L261.485,77.546L261.252,77.779L261.017,78.009L260.781,78.238L260.544,78.466L260.306,78.691L260.066,78.916L259.826,79.139L259.583,79.36L259.34,79.579L259.095,79.798L258.849,80.014L258.602,80.229L258.353,80.442L258.104,80.654L257.853,80.865L257.6,81.073L257.347,81.281L257.092,81.486L256.836,81.69L256.578,81.893L256.32,82.094L256.06,82.293L255.798,82.491L255.536,82.687L255.272,82.882L255.007,83.075L254.741,83.267L254.473,83.457L254.204,83.645L253.934,83.832L253.663,84.018L253.39,84.201L253.117,84.383L252.841,84.564L252.565,84.743L252.287,84.921L252.009,85.097L251.728,85.271L251.447,85.444L251.164,85.615L250.88,85.785L250.595,85.953L250.309,86.119L250.021,86.284L249.732,86.448L249.442,86.609L249.151,86.77L248.858,86.928L248.564,87.085L248.269,87.241L247.972,87.395L247.675,87.547L247.376,87.698L247.075,87.847L246.774,87.995L246.471,88.141L246.167,88.286L245.862,88.429L245.556,88.57L245.248,88.71L244.938,88.849L244.627,88.985L244.315,89.119L244.002,89.251L243.688,89.381L243.373,89.509L243.058,89.634L242.741,89.757L242.423,89.878L242.104,89.997L241.785,90.114L241.464,90.228L241.142,90.341L240.82,90.451L240.496,90.559L240.171,90.665L239.846,90.768L239.519,90.87L239.192,90.969L238.863,91.066L238.534,91.161L238.204,91.253L237.872,91.344L237.54,91.432L237.207,91.518L236.873,91.602L236.537,91.684L236.201,91.763L235.864,91.841L235.526,91.916L235.187,91.989L234.847,92.06L234.506,92.128L234.165,92.195L233.822,92.259L233.478,92.321L233.134,92.381L232.788,92.438L232.441,92.494L232.094,92.547L231.745,92.598L231.396,92.647L231.046,92.694L230.694,92.739L230.342,92.781L229.989,92.821L229.635,92.86L229.28,92.895L228.924,92.929L228.567,92.961L228.209,92.99L227.85,93.017L227.491,93.042L227.13,93.065L226.768,93.086L226.406,93.104L226.042,93.12L225.678,93.135L225.313,93.146L224.947,93.156L224.579,93.164L224.211,93.169L223.842,93.173L223.472,93.174L223.107,93.173L222.742,93.169L222.378,93.164L222.015,93.156L221.653,93.146L221.291,93.135L220.931,93.12L220.571,93.104L220.212,93.086L219.854,93.065L219.497,93.042L219.14,93.017L218.785,92.99L218.43,92.961L218.076,92.929L217.723,92.895L217.371,92.859L217.019,92.821L216.669,92.781L216.319,92.739L215.97,92.694L215.622,92.647L215.275,92.598L214.928,92.547L214.583,92.494L214.238,92.438L213.894,92.381L213.551,92.321L213.209,92.259L212.868,92.194L212.527,92.128L212.188,92.059L211.849,91.989L211.511,91.916L211.174,91.84L210.838,91.763L210.502,91.684L210.168,91.602L209.834,91.518L209.501,91.432L209.169,91.344L208.838,91.253L208.508,91.161L208.178,91.066L207.85,90.969L207.522,90.87L207.195,90.768L206.869,90.665L206.544,90.559L206.22,90.451L205.897,90.341L205.574,90.229L205.252,90.114L204.932,89.998L204.612,89.879L204.293,89.758L203.975,89.635L203.657,89.509L203.341,89.382L203.025,89.252L202.711,89.12L202.397,88.986L202.084,88.85L201.772,88.711L201.462,88.571L201.153,88.43L200.846,88.287L200.54,88.142L200.235,87.996L199.932,87.849L199.63,87.699L199.329,87.548L199.03,87.396L198.731,87.242L198.435,87.086L198.139,86.929L197.845,86.771L197.552,86.61L197.261,86.448L196.97,86.285L196.682,86.12L196.394,85.953L196.108,85.785L195.823,85.616L195.539,85.444L195.257,85.272L194.976,85.097L194.697,84.921L194.418,84.744L194.141,84.564L193.866,84.384L193.591,84.202L193.319,84.018L193.047,83.832L192.777,83.645L192.508,83.457L192.24,83.267L191.974,83.075L191.709,82.882L191.445,82.687L191.183,82.491L190.922,82.293L190.662,82.093L190.404,81.892L190.147,81.69L189.892,81.485L189.637,81.28L189.384,81.072L189.133,80.864L188.883,80.653L188.634,80.441L188.386,80.228L188.14,80.012L187.895,79.796L187.652,79.578L187.41,79.358L187.169,79.136L186.929,78.913L186.691,78.689L186.454,78.463L186.219,78.235L185.985,78.006L185.752,77.776L185.521,77.543L185.291,77.31L185.062,77.074L184.835,76.837L184.609,76.599L184.384,76.359L184.161,76.118L183.94,75.875L183.72,75.632L183.502,75.387L183.285,75.14L183.07,74.893L182.856,74.644L182.644,74.394L182.433,74.142L182.224,73.889L182.016,73.635L181.81,73.379L181.605,73.123L181.402,72.865L181.2,72.605L181,72.344L180.802,72.083L180.605,71.819L180.409,71.555L180.215,71.289L180.023,71.022L179.832,70.753L179.643,70.483L179.455,70.212L179.268,69.94L179.084,69.666L178.9,69.391L178.719,69.115L178.538,68.837L178.36,68.559L178.183,68.278L178.007,67.997L177.833,67.714L177.661,67.43L177.49,67.145L177.32,66.858L177.152,66.57L176.986,66.281L176.821,65.991L176.658,65.699L176.496,65.406L176.335,65.112L176.177,64.816L176.019,64.519L175.864,64.221L175.71,63.922L175.557,63.621L175.406,63.319L175.256,63.016L175.108,62.711L174.962,62.405L174.817,62.098L174.674,61.79L174.532,61.48L174.391,61.169L174.252,60.857L174.115,60.543L173.979,60.228L173.845,59.912L173.713,59.595L173.581,59.276L173.452,58.956L173.324,58.635L173.197,58.313L173.072,57.989L172.95,57.665L172.829,57.34L172.711,57.015L172.594,56.689L172.479,56.362L172.367,56.034L172.256,55.706L172.148,55.377L172.041,55.047L171.936,54.717L171.834,54.386L171.733,54.054L171.634,53.722L171.538,53.389L171.443,53.055L171.35,52.721L171.26,52.386L171.171,52.05L171.084,51.713L171,51.376L170.917,51.038L170.836,50.7L170.757,50.361L170.681,50.021L170.606,49.68L170.533,49.339L170.463,48.997L170.394,48.655L170.327,48.312L170.262,47.968L170.2,47.623L170.139,47.278L170.08,46.932L170.023,46.585L169.969,46.238L169.916,45.89L169.865,45.542L169.816,45.192L169.769,44.842L169.725,44.492L169.682,44.141L169.641,43.789L169.602,43.436L169.565,43.083L169.531,42.729L169.498,42.374L169.467,42.019L169.438,41.663L169.411,41.307L169.386,40.949L169.363,40.591L169.342,40.233L169.324,39.874L169.307,39.514L169.292,39.153L169.279,38.792L169.268,38.43L169.259,38.068L169.252,37.705L169.247,37.341L169.244,36.976L169.243,36.611L169.244,36.242L169.247,35.873L169.252,35.505L169.259,35.137L169.268,34.771L169.279,34.405L169.292,34.04L169.307,33.676L169.324,33.312L169.342,32.95L169.363,32.588L169.386,32.226L169.411,31.866L169.438,31.506L169.467,31.148L169.498,30.789L169.53,30.432L169.565,30.075L169.602,29.72L169.641,29.365L169.682,29.01L169.725,28.657L169.769,28.304L169.816,27.952L169.865,27.601L169.916,27.25L169.968,26.901L170.023,26.552L170.08,26.204L170.139,25.856L170.2,25.51L170.262,25.164L170.327,24.819L170.394,24.475L170.463,24.131L170.533,23.789L170.606,23.447L170.681,23.106L170.757,22.765L170.836,22.426L170.917,22.087L171,21.749L171.084,21.412L171.171,21.075L171.26,20.739L171.35,20.405L171.443,20.07L171.538,19.737L171.635,19.405L171.733,19.073L171.834,18.742L171.937,18.412L172.041,18.082L172.148,17.754L172.257,17.426L172.367,17.099L172.48,16.773L172.595,16.447L172.711,16.123L172.83,15.799L172.951,15.476L173.073,15.154L173.198,14.832L173.324,14.512L173.453,14.193L173.582,13.875L173.713,13.559L173.846,13.243L173.98,12.929L174.116,12.616L174.253,12.305L174.392,11.994L174.532,11.685L174.674,11.377L174.818,11.07L174.963,10.765L175.109,10.46L175.257,10.157L175.407,9.855L175.558,9.554L175.71,9.255L175.864,8.956L176.02,8.659L176.177,8.363L176.336,8.069L176.496,7.775L176.658,7.483L176.821,7.192L176.986,6.902L177.152,6.613L177.32,6.326L177.49,6.04L177.661,5.755L177.833,5.471L178.007,5.189L178.183,4.907L178.36,4.627L178.538,4.348L178.718,4.071L178.9,3.794L179.083,3.519L179.268,3.245L179.454,2.973L179.642,2.701L179.831,2.431L180.022,2.162L180.214,1.894L180.408,1.627L180.604,1.362L180.801,1.098L180.999,0.835L181.199,0.573L181.4,0.313L181.603,0.054L181.808,-0.204L182.014,-0.461L182.222,-0.717L182.431,-0.971L182.641,-1.224L182.854,-1.476L183.067,-1.726L183.282,-1.976L183.499,-2.224L183.717,-2.471L183.937,-2.716L184.158,-2.961L184.381,-3.204L184.606,-3.446L184.832,-3.687L185.059,-3.926L185.288,-4.164L185.518,-4.399L185.749,-4.634L185.982,-4.866L186.216,-5.098L186.452,-5.327L186.689,-5.555L186.927,-5.781L187.166,-6.006L187.407,-6.228L187.649,-6.45L187.893,-6.669L188.138,-6.887L188.384,-7.104L188.632,-7.319L188.881,-7.532L189.131,-7.743L189.383,-7.953L189.636,-8.161L189.89,-8.368L190.146,-8.573L190.403,-8.776L190.661,-8.978L190.921,-9.178L191.182,-9.376L191.445,-9.573L191.708,-9.768L191.973,-9.962L192.24,-10.154L192.508,-10.344L192.777,-10.533L193.047,-10.72L193.319,-10.905L193.592,-11.089L193.866,-11.271L194.142,-11.451L194.419,-11.63L194.698,-11.807L194.978,-11.982L195.259,-12.156L195.541,-12.328L195.825,-12.499L196.11,-12.668L196.396,-12.835L196.684,-13.001L196.973,-13.165L197.263,-13.327L197.555,-13.488L197.848,-13.647L198.143,-13.804L198.438,-13.96L198.735,-14.114L199.034,-14.266L199.333,-14.417L199.634,-14.566L199.936,-14.714L200.24,-14.86L200.545,-15.004L200.851,-15.147L201.159,-15.288L201.467,-15.427L201.778,-15.565L202.09,-15.701L202.402,-15.835L202.716,-15.966L203.031,-16.096L203.346,-16.224L203.663,-16.349L203.98,-16.472L204.298,-16.593L204.617,-16.712L204.937,-16.829L205.257,-16.944L205.579,-17.056L205.901,-17.167L206.225,-17.275L206.549,-17.381L206.874,-17.485L207.2,-17.587L207.527,-17.686L207.854,-17.784L208.183,-17.879L208.512,-17.972L208.842,-18.064L209.173,-18.152L209.505,-18.239L209.838,-18.324L210.171,-18.406L210.506,-18.487L210.841,-18.565L211.177,-18.641L211.514,-18.715L211.852,-18.786L212.191,-18.856L212.53,-18.924L212.871,-18.989L213.212,-19.052L213.554,-19.113L213.897,-19.172L214.241,-19.229L214.585,-19.283L214.931,-19.336L215.277,-19.386L215.624,-19.434L215.972,-19.48L216.321,-19.524L216.671,-19.566L217.021,-19.605L217.372,-19.643L217.725,-19.678L218.078,-19.711L218.431,-19.742L218.786,-19.771L219.142,-19.798L219.498,-19.822L219.855,-19.845L220.213,-19.865L220.572,-19.883L220.931,-19.899L221.292,-19.913L221.653,-19.925L222.015,-19.934L222.378,-19.942L222.742,-19.947L223.107,-19.95L223.472,-19.951L223.842,-19.95ZM223.118,-17.95L222.766,-17.947L222.414,-17.942L222.063,-17.935L221.712,-17.926L221.363,-17.914L221.014,-17.901L220.667,-17.885L220.32,-17.868L219.974,-17.848L219.629,-17.826L219.285,-17.803L218.942,-17.777L218.6,-17.749L218.258,-17.719L217.918,-17.687L217.578,-17.653L217.239,-17.617L216.901,-17.579L216.564,-17.539L216.228,-17.496L215.893,-17.452L215.558,-17.406L215.225,-17.357L214.892,-17.307L214.56,-17.254L214.229,-17.2L213.899,-17.143L213.57,-17.084L213.241,-17.023L212.914,-16.961L212.587,-16.896L212.261,-16.829L211.936,-16.76L211.612,-16.689L211.289,-16.616L210.966,-16.54L210.645,-16.463L210.324,-16.384L210.004,-16.303L209.686,-16.219L209.367,-16.134L209.05,-16.046L208.734,-15.957L208.418,-15.865L208.104,-15.771L207.79,-15.676L207.477,-15.578L207.165,-15.478L206.853,-15.376L206.543,-15.272L206.233,-15.166L205.924,-15.058L205.617,-14.948L205.309,-14.836L205.003,-14.722L204.698,-14.606L204.393,-14.487L204.09,-14.367L203.787,-14.244L203.485,-14.12L203.183,-13.993L202.883,-13.865L202.583,-13.734L202.284,-13.601L201.986,-13.467L201.69,-13.331L201.395,-13.193L201.101,-13.054L200.808,-12.914L200.517,-12.772L200.227,-12.628L199.938,-12.483L199.651,-12.336L199.365,-12.187L199.08,-12.037L198.797,-11.886L198.515,-11.733L198.234,-11.578L197.954,-11.422L197.676,-11.264L197.399,-11.105L197.124,-10.944L196.85,-10.781L196.577,-10.617L196.305,-10.452L196.035,-10.285L195.766,-10.116L195.498,-9.946L195.232,-9.774L194.967,-9.6L194.703,-9.425L194.44,-9.249L194.179,-9.071L193.919,-8.891L193.661,-8.71L193.403,-8.527L193.147,-8.343L192.893,-8.157L192.639,-7.969L192.387,-7.78L192.136,-7.59L191.887,-7.397L191.639,-7.204L191.392,-7.008L191.146,-6.811L190.902,-6.613L190.659,-6.413L190.417,-6.211L190.177,-6.008L189.937,-5.803L189.7,-5.597L189.463,-5.389L189.228,-5.18L188.994,-4.969L188.761,-4.756L188.529,-4.542L188.299,-4.326L188.07,-4.109L187.843,-3.89L187.616,-3.669L187.391,-3.447L187.168,-3.224L186.945,-2.999L186.724,-2.772L186.504,-2.543L186.285,-2.313L186.068,-2.082L185.852,-1.849L185.637,-1.614L185.424,-1.379L185.212,-1.142L185.002,-0.904L184.793,-0.665L184.585,-0.424L184.379,-0.183L184.175,0.06L183.972,0.304L183.77,0.549L183.57,0.795L183.372,1.043L183.174,1.291L182.979,1.541L182.785,1.792L182.592,2.044L182.4,2.298L182.211,2.553L182.022,2.808L181.835,3.065L181.65,3.323L181.466,3.583L181.284,3.843L181.103,4.105L180.923,4.368L180.745,4.632L180.568,4.898L180.393,5.164L180.219,5.432L180.047,5.701L179.876,5.971L179.707,6.242L179.539,6.515L179.373,6.789L179.208,7.064L179.044,7.34L178.882,7.617L178.722,7.896L178.563,8.176L178.405,8.457L178.249,8.739L178.094,9.022L177.941,9.307L177.789,9.592L177.639,9.879L177.49,10.168L177.342,10.457L177.196,10.748L177.052,11.039L176.909,11.332L176.767,11.627L176.627,11.922L176.489,12.219L176.351,12.517L176.216,12.816L176.081,13.116L175.949,13.418L175.817,13.72L175.687,14.024L175.559,14.329L175.432,14.636L175.306,14.943L175.182,15.252L175.06,15.561L174.94,15.871L174.822,16.182L174.706,16.493L174.591,16.805L174.479,17.118L174.368,17.432L174.26,17.746L174.153,18.061L174.048,18.377L173.945,18.694L173.845,19.012L173.746,19.33L173.648,19.649L173.553,19.969L173.46,20.29L173.369,20.611L173.279,20.933L173.192,21.256L173.106,21.58L173.023,21.905L172.941,22.23L172.861,22.556L172.783,22.883L172.707,23.211L172.633,23.539L172.561,23.869L172.491,24.199L172.422,24.53L172.356,24.861L172.292,25.194L172.229,25.527L172.168,25.861L172.11,26.196L172.053,26.531L171.998,26.868L171.945,27.205L171.894,27.543L171.845,27.882L171.798,28.221L171.753,28.562L171.709,28.903L171.668,29.245L171.628,29.588L171.591,29.931L171.555,30.276L171.522,30.621L171.49,30.967L171.46,31.313L171.432,31.661L171.406,32.009L171.382,32.359L171.36,32.708L171.339,33.059L171.321,33.411L171.305,33.763L171.29,34.116L171.278,34.47L171.267,34.825L171.258,35.181L171.252,35.537L171.247,35.894L171.244,36.252L171.243,36.611L171.244,36.965L171.247,37.319L171.252,37.672L171.258,38.024L171.267,38.375L171.278,38.726L171.29,39.076L171.305,39.426L171.321,39.774L171.339,40.122L171.36,40.469L171.382,40.816L171.406,41.162L171.432,41.507L171.46,41.852L171.49,42.196L171.521,42.539L171.555,42.881L171.591,43.223L171.628,43.564L171.668,43.904L171.709,44.244L171.753,44.583L171.798,44.921L171.845,45.259L171.894,45.596L171.945,45.932L171.998,46.268L172.053,46.603L172.11,46.937L172.168,47.271L172.229,47.604L172.291,47.936L172.356,48.267L172.422,48.598L172.491,48.928L172.561,49.258L172.633,49.586L172.707,49.915L172.783,50.242L172.861,50.569L172.941,50.895L173.023,51.22L173.106,51.545L173.192,51.869L173.279,52.192L173.369,52.515L173.46,52.837L173.553,53.159L173.649,53.479L173.746,53.799L173.845,54.119L173.946,54.437L174.049,54.756L174.153,55.073L174.26,55.39L174.369,55.706L174.479,56.021L174.592,56.336L174.706,56.65L174.823,56.963L174.941,57.276L175.061,57.588L175.183,57.9L175.307,58.21L175.433,58.52L175.56,58.829L175.688,59.136L175.818,59.442L175.949,59.746L176.082,60.049L176.217,60.351L176.352,60.652L176.489,60.952L176.628,61.25L176.768,61.546L176.91,61.842L177.053,62.136L177.197,62.429L177.343,62.721L177.491,63.011L177.639,63.301L177.79,63.589L177.941,63.875L178.095,64.16L178.249,64.444L178.405,64.727L178.563,65.009L178.722,65.289L178.883,65.568L179.045,65.845L179.208,66.122L179.373,66.397L179.539,66.671L179.707,66.943L179.876,67.215L180.047,67.485L180.219,67.753L180.393,68.021L180.568,68.287L180.745,68.552L180.923,68.816L181.102,69.078L181.283,69.339L181.465,69.599L181.649,69.858L181.835,70.115L182.021,70.371L182.21,70.626L182.399,70.879L182.591,71.132L182.783,71.383L182.977,71.632L183.173,71.881L183.37,72.128L183.568,72.374L183.768,72.619L183.97,72.862L184.173,73.104L184.377,73.345L184.583,73.585L184.79,73.823L184.999,74.061L185.209,74.297L185.421,74.531L185.634,74.765L185.849,74.997L186.065,75.228L186.282,75.457L186.501,75.685L186.721,75.911L186.942,76.136L187.165,76.36L187.388,76.581L187.614,76.802L187.84,77.021L188.068,77.238L188.297,77.454L188.527,77.668L188.758,77.881L188.991,78.092L189.225,78.302L189.461,78.511L189.697,78.717L189.935,78.923L190.175,79.126L190.415,79.329L190.657,79.53L190.9,79.729L191.145,79.927L191.391,80.123L191.638,80.318L191.886,80.511L192.136,80.703L192.387,80.893L192.639,81.082L192.892,81.27L193.147,81.455L193.403,81.64L193.661,81.823L193.919,82.004L194.18,82.184L194.441,82.362L194.704,82.539L194.967,82.715L195.233,82.888L195.499,83.061L195.767,83.232L196.036,83.401L196.307,83.569L196.579,83.736L196.852,83.9L197.126,84.064L197.402,84.226L197.679,84.386L197.957,84.545L198.237,84.703L198.518,84.859L198.8,85.013L199.084,85.166L199.368,85.318L199.655,85.468L199.942,85.616L200.231,85.763L200.521,85.909L200.813,86.053L201.105,86.195L201.4,86.337L201.695,86.476L201.992,86.614L202.29,86.751L202.589,86.886L202.889,87.019L203.189,87.15L203.49,87.278L203.792,87.405L204.095,87.529L204.399,87.652L204.703,87.772L205.008,87.89L205.315,88.006L205.622,88.12L205.929,88.232L206.238,88.342L206.548,88.45L206.858,88.556L207.169,88.659L207.481,88.761L207.794,88.86L208.108,88.957L208.423,89.053L208.738,89.146L209.054,89.237L209.372,89.326L209.69,89.413L210.008,89.497L210.328,89.58L210.649,89.661L210.97,89.739L211.292,89.816L211.616,89.89L211.94,89.962L212.264,90.032L212.59,90.1L212.917,90.166L213.244,90.23L213.572,90.292L213.902,90.352L214.232,90.409L214.563,90.465L214.894,90.518L215.227,90.57L215.561,90.619L215.895,90.666L216.23,90.711L216.566,90.754L216.903,90.795L217.241,90.834L217.58,90.87L217.919,90.905L218.26,90.938L218.601,90.968L218.943,90.996L219.287,91.022L219.631,91.047L219.975,91.069L220.321,91.089L220.668,91.106L221.015,91.122L221.364,91.136L221.713,91.147L222.063,91.157L222.414,91.164L222.766,91.169L223.119,91.173L223.472,91.174L223.83,91.173L224.188,91.169L224.544,91.164L224.899,91.157L225.253,91.147L225.607,91.136L225.959,91.122L226.31,91.106L226.661,91.089L227.01,91.069L227.358,91.047L227.706,91.022L228.052,90.996L228.397,90.968L228.742,90.937L229.085,90.905L229.427,90.87L229.769,90.834L230.109,90.795L230.449,90.754L230.787,90.711L231.125,90.666L231.461,90.619L231.797,90.569L232.131,90.518L232.465,90.465L232.798,90.409L233.129,90.352L233.46,90.292L233.79,90.23L234.118,90.166L234.446,90.1L234.773,90.032L235.099,89.962L235.423,89.89L235.747,89.815L236.07,89.739L236.392,89.661L236.713,89.58L237.033,89.497L237.352,89.413L237.67,89.326L237.987,89.237L238.303,89.146L238.619,89.053L238.933,88.957L239.246,88.86L239.558,88.761L239.87,88.659L240.18,88.556L240.489,88.45L240.798,88.342L241.105,88.233L241.412,88.121L241.718,88.007L242.022,87.891L242.326,87.773L242.629,87.652L242.931,87.53L243.231,87.406L243.531,87.279L243.83,87.151L244.128,87.02L244.426,86.887L244.723,86.752L245.019,86.615L245.313,86.477L245.607,86.338L245.899,86.197L246.19,86.054L246.48,85.91L246.768,85.764L247.056,85.617L247.342,85.469L247.626,85.319L247.91,85.167L248.192,85.014L248.473,84.86L248.753,84.704L249.031,84.546L249.309,84.387L249.585,84.227L249.86,84.065L250.133,83.901L250.406,83.736L250.677,83.57L250.947,83.402L251.215,83.232L251.483,83.061L251.749,82.889L252.014,82.715L252.278,82.539L252.54,82.363L252.801,82.184L253.061,82.004L253.32,81.823L253.578,81.64L253.834,81.455L254.089,81.269L254.343,81.082L254.596,80.893L254.847,80.703L255.097,80.511L255.346,80.317L255.594,80.122L255.841,79.926L256.086,79.728L256.33,79.529L256.573,79.328L256.815,79.125L257.055,78.921L257.294,78.716L257.532,78.509L257.769,78.3L258.005,78.09L258.239,77.879L258.472,77.666L258.704,77.452L258.935,77.236L259.164,77.018L259.392,76.799L259.619,76.579L259.845,76.357L260.07,76.133L260.293,75.908L260.515,75.682L260.736,75.453L260.956,75.224L261.174,74.993L261.391,74.761L261.606,74.528L261.82,74.293L262.032,74.057L262.242,73.82L262.451,73.582L262.659,73.342L262.865,73.101L263.069,72.859L263.272,72.616L263.473,72.371L263.673,72.126L263.871,71.878L264.068,71.63L264.263,71.38L264.457,71.13L264.649,70.877L264.84,70.624L265.029,70.369L265.216,70.113L265.402,69.856L265.586,69.598L265.769,69.338L265.951,69.077L266.131,68.815L266.309,68.551L266.486,68.286L266.661,68.02L266.835,67.753L267.007,67.485L267.177,67.215L267.347,66.944L267.514,66.671L267.68,66.397L267.845,66.122L268.008,65.846L268.169,65.569L268.329,65.29L268.488,65.01L268.645,64.729L268.8,64.446L268.954,64.162L269.106,63.877L269.257,63.591L269.406,63.303L269.554,63.014L269.7,62.724L269.845,62.432L269.988,62.139L270.13,61.845L270.27,61.55L270.408,61.253L270.545,60.955L270.681,60.656L270.815,60.356L270.947,60.054L271.078,59.751L271.208,59.446L271.336,59.141L271.462,58.834L271.587,58.526L271.71,58.216L271.832,57.905L271.952,57.594L272.07,57.282L272.186,56.969L272.3,56.655L272.413,56.341L272.523,56.026L272.632,55.711L272.738,55.395L272.843,55.078L272.946,54.761L273.047,54.443L273.146,54.124L273.244,53.804L273.339,53.484L273.432,53.163L273.524,52.842L273.614,52.52L273.702,52.197L273.788,51.873L273.872,51.549L273.954,51.224L274.034,50.899L274.112,50.573L274.189,50.246L274.264,49.918L274.336,49.59L274.407,49.261L274.476,48.932L274.543,48.602L274.608,48.271L274.672,47.939L274.733,47.607L274.793,47.274L274.85,46.94L274.906,46.606L274.96,46.271L275.012,45.935L275.062,45.599L275.11,45.262L275.157,44.924L275.201,44.585L275.244,44.246L275.284,43.907L275.323,43.566L275.36,43.225L275.395,42.883L275.428,42.54L275.459,42.197L275.488,41.853L275.516,41.509L275.541,41.163L275.565,40.817L275.587,40.471L275.607,40.123L275.625,39.775L275.641,39.426L275.655,39.077L275.667,38.727L275.678,38.376L275.686,38.024L275.693,37.672L275.698,37.319L275.7,36.965L275.701,36.611L275.7,36.252L275.698,35.894L275.693,35.537L275.686,35.18L275.678,34.825L275.667,34.47L275.655,34.116L275.641,33.762L275.625,33.41L275.607,33.058L275.587,32.707L275.565,32.357L275.541,32.008L275.516,31.66L275.488,31.312L275.459,30.965L275.428,30.619L275.395,30.274L275.36,29.929L275.323,29.586L275.284,29.243L275.243,28.901L275.201,28.559L275.156,28.219L275.11,27.879L275.062,27.54L275.012,27.202L274.96,26.865L274.906,26.529L274.85,26.193L274.793,25.858L274.733,25.524L274.672,25.19L274.608,24.858L274.543,24.526L274.476,24.195L274.407,23.865L274.336,23.536L274.264,23.207L274.189,22.879L274.112,22.552L274.034,22.226L273.954,21.901L273.872,21.576L273.788,21.252L273.702,20.929L273.614,20.607L273.524,20.285L273.433,19.964L273.339,19.644L273.244,19.325L273.147,19.007L273.047,18.689L272.946,18.372L272.844,18.056L272.739,17.741L272.632,17.426L272.524,17.113L272.413,16.8L272.301,16.487L272.187,16.176L272.07,15.865L271.953,15.555L271.833,15.246L271.711,14.938L271.588,14.63L271.463,14.324L271.336,14.019L271.209,13.715L271.079,13.413L270.948,13.112L270.816,12.812L270.682,12.513L270.546,12.215L270.409,11.918L270.271,11.623L270.13,11.329L269.989,11.036L269.846,10.745L269.701,10.454L269.555,10.165L269.407,9.877L269.258,9.59L269.107,9.305L268.954,9.02L268.801,8.737L268.645,8.455L268.488,8.174L268.33,7.895L268.17,7.616L268.008,7.339L267.845,7.063L267.68,6.788L267.514,6.515L267.347,6.242L267.177,5.971L267.007,5.701L266.835,5.432L266.661,5.165L266.485,4.898L266.309,4.633L266.13,4.369L265.95,4.106L265.769,3.845L265.586,3.584L265.401,3.325L265.215,3.067L265.028,2.81L264.839,2.554L264.648,2.3L264.456,2.047L264.262,1.794L264.067,1.544L263.87,1.294L263.671,1.045L263.472,0.798L263.27,0.552L263.067,0.307L262.863,0.063L262.657,-0.18L262.449,-0.421L262.24,-0.661L262.029,-0.9L261.817,-1.138L261.603,-1.375L261.388,-1.611L261.171,-1.845L260.953,-2.078L260.733,-2.31L260.512,-2.54L260.29,-2.768L260.067,-2.995L259.842,-3.221L259.616,-3.445L259.39,-3.667L259.161,-3.887L258.932,-4.106L258.701,-4.324L258.47,-4.54L258.237,-4.754L258.002,-4.967L257.767,-5.178L257.53,-5.388L257.292,-5.596L257.053,-5.802L256.813,-6.007L256.571,-6.21L256.329,-6.412L256.085,-6.612L255.839,-6.811L255.593,-7.008L255.345,-7.203L255.096,-7.397L254.846,-7.589L254.595,-7.78L254.343,-7.969L254.089,-8.157L253.834,-8.343L253.578,-8.527L253.32,-8.71L253.061,-8.891L252.802,-9.071L252.541,-9.249L252.278,-9.426L252.015,-9.601L251.75,-9.774L251.484,-9.946L251.217,-10.116L250.948,-10.285L250.678,-10.452L250.407,-10.618L250.135,-10.782L249.862,-10.945L249.587,-11.105L249.311,-11.265L249.034,-11.423L248.756,-11.579L248.476,-11.734L248.195,-11.887L247.913,-12.038L247.63,-12.188L247.345,-12.337L247.06,-12.484L246.772,-12.629L246.484,-12.773L246.195,-12.915L245.904,-13.056L245.612,-13.195L245.319,-13.332L245.024,-13.468L244.728,-13.602L244.432,-13.735L244.134,-13.866L243.836,-13.994L243.537,-14.121L243.237,-14.245L242.936,-14.368L242.634,-14.488L242.331,-14.606L242.028,-14.722L241.723,-14.837L241.417,-14.949L241.11,-15.059L240.803,-15.167L240.494,-15.273L240.185,-15.376L239.874,-15.478L239.563,-15.578L239.251,-15.676L238.937,-15.772L238.623,-15.865L238.308,-15.957L237.991,-16.046L237.674,-16.134L237.356,-16.219L237.037,-16.303L236.717,-16.384L236.396,-16.463L236.074,-16.54L235.751,-16.615L235.427,-16.689L235.102,-16.76L234.776,-16.829L234.449,-16.896L234.121,-16.96L233.793,-17.023L233.463,-17.084L233.132,-17.143L232.8,-17.199L232.468,-17.254L232.134,-17.307L231.799,-17.357L231.464,-17.406L231.127,-17.452L230.789,-17.496L230.451,-17.539L230.111,-17.579L229.771,-17.617L229.429,-17.653L229.087,-17.687L228.743,-17.719L228.399,-17.749L228.053,-17.777L227.707,-17.803L227.359,-17.826L227.011,-17.848L226.661,-17.868L226.311,-17.885L225.96,-17.901L225.607,-17.914L225.254,-17.926L224.9,-17.935L224.544,-17.942L224.188,-17.947L223.831,-17.95L223.472,-17.951L223.118,-17.95Z" style="fill:rgb(110,120,221);"/>
    </g>
    <defs>
        <radialGradient id="_Radial1" cx="0" cy="0" r="1" gradientUnits="userSpaceOnUse" gradientTransform="matrix(150,150,-150,150,150,150)"><stop offset="0" style="stop-color:rgb(110,120,221);stop-opacity:0"/><stop offset="0.12" style="stop-color:rgb(110,120,221);stop-opacity:0"/><stop offset="0.44" style="stop-color:rgb(145,152,229);stop-opacity:1"/><stop offset="0.69" style="stop-color:rgb(110,120,221);stop-opacity:0"/><stop offset="1" style="stop-color:rgb(110,120,221);stop-opacity:0"/></radialGradient>
    </defs>
</svg>
