<?xml version="1.0" encoding="UTF-8" standalone="no"?>
<!DOCTYPE svg PUBLIC "-//W3C//DTD SVG 1.1//EN" "http://www.w3.org/Graphics/SVG/1.1/DTD/svg11.dtd">
<svg width="100%" height="100%" viewBox="0 0 1666 300" version="1.1" xmlns="http://www.w3.org/2000/svg" xmlns:xlink="http://www.w3.org/1999/xlink" xml:space="preserve" xmlns:serif="http://www.serif.com/" style="fill-rule:evenodd;clip-rule:evenodd;stroke-linejoin:round;stroke-miterlimit:2;">
    <g transform="matrix(1,0,0,1,-267.205,-75)">
        <g transform="matrix(1,0,0,1,-37.3222,8.52651e-14)">
            <g transform="matrix(0.999005,0,0,1.02948,-80.7075,218.884)">
                <path d="M472.169,-55.259C475.669,-55.259 478.769,-54.559 481.469,-53.159C484.169,-51.759 486.469,-49.909 488.369,-47.609C490.269,-45.309 491.719,-42.734 492.719,-39.884C493.719,-37.034 494.219,-34.159 494.219,-31.259C494.219,-28.259 493.719,-25.309 492.719,-22.409C491.719,-19.509 490.294,-16.934 488.444,-14.684C486.594,-12.434 484.294,-10.634 481.544,-9.284C478.794,-7.934 475.669,-7.259 472.169,-7.259L441.119,-7.259L441.119,-55.259L472.169,-55.259ZM385.619,106.591C385.619,110.791 387.669,112.891 391.769,112.891L434.519,112.891C438.919,112.891 441.119,110.791 441.119,106.591L441.119,38.191L485.219,38.191C495.019,38.191 503.944,36.216 511.994,32.266C520.044,28.316 526.944,23.091 532.694,16.591C538.444,10.091 542.894,2.716 546.044,-5.534C549.194,-13.784 550.769,-22.259 550.769,-30.959C550.769,-39.759 549.169,-48.359 545.969,-56.759C542.769,-65.159 538.244,-72.634 532.394,-79.184C526.544,-85.734 519.519,-91.009 511.319,-95.009C503.119,-99.009 494.069,-101.009 484.169,-101.009L391.769,-101.009C390.069,-101.009 388.619,-100.459 387.419,-99.359C386.219,-98.259 385.619,-96.659 385.619,-94.559L385.619,106.591Z" style="fill:rgb(255,69,0);fill-rule:nonzero;"/>
            </g>
            <g transform="matrix(0.999005,0,0,1.02948,-80.7075,217.186)">
                <path d="M636.719,-94.559C636.719,-96.359 636.344,-97.884 635.594,-99.134C634.844,-100.384 633.169,-101.009 630.569,-101.009L586.619,-101.009C584.919,-101.009 583.544,-100.359 582.494,-99.059C581.444,-97.759 580.919,-96.259 580.919,-94.559L580.919,26.791C580.919,43.291 583.394,57.241 588.344,68.641C593.294,80.041 599.944,89.266 608.294,96.316C616.644,103.366 626.319,108.441 637.319,111.541C648.319,114.641 659.869,116.191 671.969,116.191C684.069,116.191 695.619,114.666 706.619,111.616C717.619,108.566 727.294,103.566 735.644,96.616C743.994,89.666 750.644,80.491 755.594,69.091C760.544,57.691 763.019,43.591 763.019,26.791L763.019,-94.559C763.019,-96.259 762.419,-97.759 761.219,-99.059C760.019,-100.359 758.269,-101.009 755.969,-101.009L713.969,-101.009C711.969,-101.009 710.369,-100.359 709.169,-99.059C707.969,-97.759 707.369,-96.259 707.369,-94.559L707.369,27.541C707.369,33.941 706.419,39.566 704.519,44.416C702.619,49.266 700.069,53.341 696.869,56.641C693.669,59.941 689.919,62.441 685.619,64.141C681.319,65.841 676.769,66.691 671.969,66.691C667.369,66.691 662.944,65.966 658.694,64.516C654.444,63.066 650.694,60.791 647.444,57.691C644.194,54.591 641.594,50.541 639.644,45.541C637.694,40.541 636.719,34.541 636.719,27.541L636.719,-94.559Z" style="fill:rgb(255,69,0);fill-rule:nonzero;"/>
            </g>
            <g transform="matrix(0.999005,0,0,1.02948,-80.7075,218.884)">
                <path d="M892.469,-56.459C896.269,-56.459 899.719,-55.684 902.819,-54.134C905.919,-52.584 908.619,-50.559 910.919,-48.059C913.219,-45.559 914.994,-42.759 916.244,-39.659C917.494,-36.559 918.119,-33.409 918.119,-30.209C918.119,-26.909 917.494,-23.709 916.244,-20.609C914.994,-17.509 913.244,-14.759 910.994,-12.359C908.744,-9.959 906.044,-8.009 902.894,-6.509C899.744,-5.009 896.269,-4.259 892.469,-4.259L860.519,-4.259L860.519,-56.459L892.469,-56.459ZM805.019,106.591C805.019,110.791 807.069,112.891 811.169,112.891L854.219,112.891C858.419,112.891 860.519,110.791 860.519,106.591L860.519,41.791L883.769,41.791L917.819,106.891C919.019,109.191 920.119,110.766 921.119,111.616C922.119,112.466 923.619,112.891 925.619,112.891L977.519,112.891C979.519,112.891 980.819,112.191 981.419,110.791C982.019,109.391 981.919,107.991 981.119,106.591L939.869,29.791C945.069,26.491 949.819,22.616 954.119,18.166C958.419,13.716 962.119,8.941 965.219,3.841C968.319,-1.259 970.719,-6.609 972.419,-12.209C974.119,-17.809 974.969,-23.459 974.969,-29.159C974.969,-38.159 973.319,-46.984 970.019,-55.634C966.719,-64.284 962.069,-71.959 956.069,-78.659C950.069,-85.359 942.894,-90.759 934.544,-94.859C926.194,-98.959 916.919,-101.009 906.719,-101.009L811.169,-101.009C809.069,-101.009 807.519,-100.334 806.519,-98.984C805.519,-97.634 805.019,-96.159 805.019,-94.559L805.019,106.591Z" style="fill:rgb(255,69,0);fill-rule:nonzero;"/>
            </g>
            <g transform="matrix(0.999005,0,0,1.02948,-80.7075,218.884)">
                <path d="M1007.22,106.591C1007.22,110.791 1009.32,112.891 1013.52,112.891L1159.47,112.891C1163.77,112.891 1165.92,110.791 1165.92,106.591L1165.92,69.841C1165.92,65.641 1163.77,63.541 1159.47,63.541L1062.87,63.541L1062.87,26.791L1134.12,26.791C1138.82,26.791 1141.17,24.691 1141.17,20.491L1141.17,-9.209C1141.17,-11.509 1140.54,-13.184 1139.29,-14.234C1138.04,-15.284 1136.32,-15.809 1134.12,-15.809L1062.87,-15.809L1062.87,-51.359L1156.77,-51.359C1160.97,-51.359 1163.07,-53.459 1163.07,-57.659L1163.07,-94.559C1163.07,-98.859 1160.97,-101.009 1156.77,-101.009L1013.52,-101.009C1009.32,-101.009 1007.22,-98.859 1007.22,-94.559L1007.22,106.591Z" style="fill:rgb(255,69,0);fill-rule:nonzero;"/>
            </g>
            <g transform="matrix(0.999005,0,0,1.02948,-69.111,218.961)">
                <path d="M1321.92,52.591C1318.12,55.191 1313.67,57.566 1308.57,59.716C1303.47,61.866 1297.87,62.941 1291.77,62.941C1283.77,62.941 1276.37,61.441 1269.57,58.441C1262.77,55.441 1256.89,51.366 1251.94,46.216C1246.99,41.066 1243.12,34.991 1240.32,27.991C1237.52,20.991 1236.12,13.491 1236.12,5.491C1236.12,-2.509 1237.52,-9.959 1240.32,-16.859C1243.12,-23.759 1246.99,-29.759 1251.94,-34.859C1256.89,-39.959 1262.77,-43.984 1269.57,-46.934C1276.37,-49.884 1283.77,-51.359 1291.77,-51.359C1297.77,-51.359 1303.17,-50.509 1307.97,-48.809C1312.77,-47.109 1317.57,-44.359 1322.37,-40.559C1323.97,-39.259 1325.62,-38.609 1327.32,-38.609C1328.92,-38.609 1330.22,-39.309 1331.22,-40.709L1356.27,-76.559C1356.97,-77.659 1357.19,-78.934 1356.94,-80.384C1356.69,-81.834 1355.82,-83.109 1354.32,-84.209C1350.42,-87.009 1346.17,-89.634 1341.57,-92.084C1336.97,-94.534 1332.07,-96.659 1326.87,-98.459C1321.67,-100.259 1316.14,-101.684 1310.29,-102.734C1304.44,-103.784 1298.27,-104.309 1291.77,-104.309C1276.47,-104.309 1262.12,-101.459 1248.72,-95.759C1235.32,-90.059 1223.62,-82.259 1213.62,-72.359C1203.62,-62.459 1195.72,-50.834 1189.92,-37.484C1184.12,-24.134 1181.22,-9.809 1181.22,5.491C1181.22,20.791 1184.12,35.141 1189.92,48.541C1195.72,61.941 1203.62,73.641 1213.62,83.641C1223.62,93.641 1235.32,101.541 1248.72,107.341C1262.12,113.141 1276.47,116.041 1291.77,116.041C1304.87,116.041 1316.57,114.141 1326.87,110.341C1337.17,106.541 1346.12,101.941 1353.72,96.541C1355.92,95.041 1357.19,93.616 1357.54,92.266C1357.89,90.916 1357.27,89.241 1355.67,87.241L1332.12,52.591C1331.02,50.891 1329.62,50.041 1327.92,50.041C1327.02,50.041 1326.07,50.266 1325.07,50.716C1324.07,51.166 1323.02,51.791 1321.92,52.591Z" style="fill:rgb(255,69,0);fill-rule:nonzero;"/>
            </g>
            <g transform="matrix(1.2,0,0,1.2,-241.729,-45)">
                <path d="M1413.53,100.586C1405.49,99.805 1397.39,99.805 1389.35,100.586L1385.37,119.973C1377.66,121.152 1370.11,123.176 1362.85,126.008L1349.7,111.21C1342.35,114.553 1335.34,118.602 1328.76,123.299L1335.01,142.079C1328.92,146.954 1323.39,152.483 1318.52,158.568L1299.74,152.323C1295.04,158.896 1290.99,165.909 1287.65,173.263L1302.45,186.405C1299.62,193.668 1297.59,201.222 1296.41,208.929L1277.03,212.911C1276.25,220.951 1276.25,229.049 1277.03,237.089L1296.41,241.071C1297.59,248.778 1299.62,256.332 1302.45,263.595L1287.65,276.737C1290.99,284.091 1295.04,291.104 1299.74,297.677L1318.52,291.432C1323.39,297.517 1328.92,303.046 1335.01,307.921L1328.76,326.701C1335.34,331.398 1342.35,335.447 1349.7,338.79L1362.85,323.992C1370.11,326.824 1377.66,328.848 1385.37,330.027L1389.35,349.414C1397.39,350.195 1405.49,350.195 1413.53,349.414L1417.51,330.027C1425.22,328.848 1432.77,326.824 1440.04,323.992L1453.18,338.79C1460.53,335.447 1467.55,331.398 1474.12,326.701L1467.87,307.921C1473.96,303.046 1479.49,297.517 1484.36,291.432L1503.14,297.677C1507.84,291.104 1511.89,284.091 1515.23,276.737L1500.43,263.595C1503.27,256.332 1505.29,248.778 1506.47,241.071L1525.86,237.089C1526.64,229.049 1526.64,220.951 1525.86,212.911L1506.47,208.929C1505.29,201.222 1503.27,193.668 1500.43,186.405L1515.23,173.263C1511.89,165.909 1507.84,158.896 1503.14,152.323L1484.36,158.568C1479.49,152.483 1473.96,146.954 1467.87,142.079L1474.12,123.299C1467.55,118.602 1460.53,114.553 1453.18,111.21L1440.04,126.008C1432.77,123.176 1425.22,121.152 1417.51,119.973L1413.53,100.586ZM1401.44,150.591C1442.84,150.591 1476.44,184.198 1476.44,225.591C1476.44,266.985 1442.84,300.591 1401.44,300.591C1360.05,300.591 1326.44,266.985 1326.44,225.591C1326.44,184.198 1360.05,150.591 1401.44,150.591Z" style="fill:rgb(90,100,216);"/>
            </g>
            <g transform="matrix(1.17843,0,0,1.17843,-200.962,-40.1031)">
                <circle cx="1392.5" cy="224.963" r="53.037" style="fill:rgb(255,69,0);"/>
            </g>
            <g transform="matrix(0.99898,0,0,1.02945,-11.5931,218.884)">
                <path d="M1710.57,-56.459C1714.37,-56.459 1717.82,-55.684 1720.92,-54.134C1724.02,-52.584 1726.72,-50.559 1729.02,-48.059C1731.32,-45.559 1733.09,-42.759 1734.34,-39.659C1735.59,-36.559 1736.22,-33.409 1736.22,-30.209C1736.22,-26.909 1735.59,-23.709 1734.34,-20.609C1733.09,-17.509 1731.34,-14.759 1729.09,-12.359C1726.84,-9.959 1724.14,-8.009 1720.99,-6.509C1717.84,-5.009 1714.37,-4.259 1710.57,-4.259L1678.62,-4.259L1678.62,-56.459L1710.57,-56.459ZM1623.12,106.591C1623.12,110.791 1625.17,112.891 1629.27,112.891L1672.32,112.891C1676.52,112.891 1678.62,110.791 1678.62,106.591L1678.62,41.791L1701.87,41.791L1735.92,106.891C1737.12,109.191 1738.22,110.766 1739.22,111.616C1740.22,112.466 1741.72,112.891 1743.72,112.891L1795.62,112.891C1797.62,112.891 1798.92,112.191 1799.52,110.791C1800.12,109.391 1800.02,107.991 1799.22,106.591L1757.97,29.791C1763.17,26.491 1767.92,22.616 1772.22,18.166C1776.52,13.716 1780.22,8.941 1783.32,3.841C1786.42,-1.259 1788.82,-6.609 1790.52,-12.209C1792.22,-17.809 1793.07,-23.459 1793.07,-29.159C1793.07,-38.159 1791.42,-46.984 1788.12,-55.634C1784.82,-64.284 1780.17,-71.959 1774.17,-78.659C1768.17,-85.359 1760.99,-90.759 1752.64,-94.859C1744.29,-98.959 1735.02,-101.009 1724.82,-101.009L1629.27,-101.009C1627.17,-101.009 1625.62,-100.334 1624.62,-98.984C1623.62,-97.634 1623.12,-96.159 1623.12,-94.559L1623.12,106.591Z" style="fill:rgb(255,69,0);fill-rule:nonzero;"/>
            </g>
            <g transform="matrix(0.99898,0,0,1.02945,-11.8778,218.884)">
                <path d="M1825.32,106.591C1825.32,110.791 1827.42,112.891 1831.62,112.891L1977.57,112.891C1981.87,112.891 1984.02,110.791 1984.02,106.591L1984.02,69.841C1984.02,65.641 1981.87,63.541 1977.57,63.541L1880.97,63.541L1880.97,26.791L1952.22,26.791C1956.92,26.791 1959.27,24.691 1959.27,20.491L1959.27,-9.209C1959.27,-11.509 1958.64,-13.184 1957.39,-14.234C1956.14,-15.284 1954.42,-15.809 1952.22,-15.809L1880.97,-15.809L1880.97,-51.359L1974.87,-51.359C1979.07,-51.359 1981.17,-53.459 1981.17,-57.659L1981.17,-94.559C1981.17,-98.859 1979.07,-101.009 1974.87,-101.009L1831.62,-101.009C1827.42,-101.009 1825.32,-98.859 1825.32,-94.559L1825.32,106.591Z" style="fill:rgb(255,69,0);fill-rule:nonzero;"/>
            </g>
        </g>
    </g>
</svg>
