<?xml version="1.0" encoding="UTF-8" standalone="no"?><!DOCTYPE svg PUBLIC "-//W3C//DTD SVG 1.1//EN" "http://www.w3.org/Graphics/SVG/1.1/DTD/svg11.dtd"><svg width="100%" height="100%" viewBox="0 0 1591 232" version="1.1" xmlns="http://www.w3.org/2000/svg" xmlns:xlink="http://www.w3.org/1999/xlink" xml:space="preserve" xmlns:serif="http://www.serif.com/" style="fill-rule:evenodd;clip-rule:evenodd;stroke-linejoin:round;stroke-miterlimit:2;"><g id="orange"><path d="M86.464,52.996c3.496,0 6.593,0.721 9.291,2.162c2.697,1.441 4.995,3.346 6.893,5.713c1.898,2.368 3.346,5.019 4.345,7.953c0.999,2.934 1.499,5.894 1.499,8.879c0,3.089 -0.5,6.126 -1.499,9.111c-0.999,2.986 -2.422,5.637 -4.27,7.953c-1.849,2.316 -4.146,4.169 -6.893,5.559c-2.748,1.39 -5.87,2.085 -9.366,2.085l-31.019,0l0,-49.415l31.019,0Zm-86.464,166.621c0,4.324 2.048,6.486 6.144,6.486l42.707,0c4.396,0 6.594,-2.162 6.594,-6.486l0,-70.416l44.056,0c9.79,0 18.706,-2.034 26.748,-6.1c8.042,-4.066 14.935,-9.445 20.68,-16.137c5.744,-6.692 10.189,-14.284 13.336,-22.777c3.147,-8.493 4.721,-17.218 4.721,-26.175c0,-9.059 -1.599,-17.913 -4.796,-26.56c-3.196,-8.648 -7.717,-16.343 -13.561,-23.086c-5.844,-6.743 -12.862,-12.174 -21.054,-16.292c-8.192,-4.118 -17.233,-6.177 -27.123,-6.177l-92.308,0c-1.698,0 -3.147,0.566 -4.346,1.699c-1.199,1.132 -1.798,2.78 -1.798,4.941l0,207.08Z" style="fill:#ff4500;fill-rule:nonzero;"/><path d="M250.85,10.839c0,-1.853 -0.375,-3.423 -1.124,-4.71c-0.749,-1.287 -2.422,-1.93 -5.02,-1.93l-43.906,0c-1.698,0 -3.072,0.669 -4.121,2.007c-1.049,1.338 -1.573,2.883 -1.573,4.633l0,124.927c0,16.986 2.472,31.348 7.417,43.084c4.945,11.736 11.589,21.233 19.93,28.49c8.342,7.258 18.007,12.483 28.996,15.674c10.989,3.192 22.528,4.787 34.616,4.787c12.088,0 23.626,-1.57 34.615,-4.71c10.989,-3.139 20.655,-8.287 28.997,-15.442c8.341,-7.155 14.985,-16.6 19.93,-28.336c4.945,-11.736 7.417,-26.252 7.417,-43.547l0,-124.927c0,-1.75 -0.599,-3.295 -1.798,-4.633c-1.199,-1.338 -2.947,-2.007 -5.245,-2.007l-41.958,0c-1.998,0 -3.596,0.669 -4.795,2.007c-1.199,1.338 -1.798,2.883 -1.798,4.633l0,125.699c0,6.589 -0.949,12.38 -2.847,17.373c-1.899,4.993 -4.446,9.188 -7.643,12.585c-3.197,3.397 -6.943,5.971 -11.239,7.721c-4.295,1.75 -8.841,2.625 -13.636,2.625c-4.595,0 -9.016,-0.746 -13.262,-2.239c-4.246,-1.493 -7.992,-3.835 -11.239,-7.026c-3.246,-3.192 -5.844,-7.361 -7.792,-12.508c-1.948,-5.148 -2.922,-11.325 -2.922,-18.531l0,-125.699Z" style="fill:#ff4500;fill-rule:nonzero;"/><path d="M506.345,51.761c3.797,0 7.243,0.797 10.34,2.393c3.097,1.596 5.794,3.68 8.092,6.254c2.298,2.574 4.071,5.456 5.32,8.648c1.249,3.191 1.873,6.434 1.873,9.728c0,3.398 -0.624,6.692 -1.873,9.883c-1.249,3.192 -2.997,6.023 -5.245,8.494c-2.248,2.47 -4.945,4.478 -8.092,6.022c-3.147,1.544 -6.618,2.316 -10.415,2.316l-31.918,0l0,-53.738l31.918,0Zm-87.363,167.856c0,4.324 2.048,6.486 6.144,6.486l43.008,0c4.195,0 6.293,-2.162 6.293,-6.486l0,-66.71l23.227,0l34.016,67.019c1.199,2.368 2.298,3.989 3.297,4.864c0.999,0.875 2.497,1.313 4.495,1.313l51.849,0c1.998,0 3.296,-0.721 3.896,-2.162c0.599,-1.441 0.499,-2.883 -0.3,-4.324l-41.209,-79.064c5.195,-3.397 9.94,-7.386 14.236,-11.968c4.296,-4.581 7.992,-9.497 11.089,-14.747c3.097,-5.25 5.495,-10.758 7.193,-16.523c1.698,-5.765 2.547,-11.582 2.547,-17.45c0,-9.265 -1.648,-18.35 -4.945,-27.255c-3.296,-8.905 -7.942,-16.806 -13.936,-23.704c-5.994,-6.897 -13.162,-12.457 -21.503,-16.677c-8.342,-4.221 -17.608,-6.332 -27.798,-6.332l-95.455,0c-2.098,0 -3.646,0.695 -4.645,2.085c-0.999,1.39 -1.499,2.908 -1.499,4.555l0,207.08Z" style="fill:#ff4500;fill-rule:nonzero;"/><path d="M620.981,219.617c0,4.324 2.098,6.486 6.294,6.486l145.805,0c4.295,0 6.443,-2.162 6.443,-6.486l0,-37.833c0,-4.324 -2.148,-6.486 -6.443,-6.486l-96.504,0l0,-37.833l71.179,0c4.695,0 7.043,-2.162 7.043,-6.486l0,-30.576c0,-2.367 -0.625,-4.092 -1.873,-5.173c-1.249,-1.081 -2.972,-1.621 -5.17,-1.621l-71.179,0l0,-36.598l93.806,0c4.196,0 6.294,-2.162 6.294,-6.486l0,-37.988c0,-4.426 -2.098,-6.64 -6.294,-6.64l-143.107,0c-4.196,0 -6.294,2.214 -6.294,6.64l0,207.08Z" style="fill:#ff4500;fill-rule:nonzero;"/><path d="M936.964,164.102c-3.796,2.677 -8.241,5.122 -13.336,7.335c-5.095,2.214 -10.69,3.32 -16.784,3.32c-7.992,0 -15.384,-1.544 -22.178,-4.632c-6.793,-3.089 -12.662,-7.284 -17.607,-12.586c-4.945,-5.301 -8.816,-11.555 -11.613,-18.762c-2.798,-7.206 -4.196,-14.927 -4.196,-23.163c0,-8.236 1.398,-15.905 4.196,-23.009c2.797,-7.103 6.668,-13.28 11.613,-18.531c4.945,-5.25 10.814,-9.394 17.607,-12.43c6.794,-3.037 14.186,-4.556 22.178,-4.556c5.994,0 11.389,0.875 16.184,2.625c4.795,1.75 9.591,4.581 14.386,8.493c1.598,1.339 3.247,2.008 4.945,2.008c1.598,0 2.897,-0.721 3.896,-2.162l25.025,-36.907c0.699,-1.132 0.924,-2.445 0.674,-3.938c-0.249,-1.492 -1.123,-2.805 -2.622,-3.937c-3.896,-2.883 -8.142,-5.585 -12.737,-8.107c-4.596,-2.523 -9.491,-4.71 -14.686,-6.563c-5.194,-1.853 -10.714,-3.32 -16.558,-4.401c-5.844,-1.081 -12.013,-1.622 -18.507,-1.622c-15.284,0 -29.62,2.934 -43.007,8.802c-13.386,5.868 -25.075,13.898 -35.065,24.09c-9.99,10.192 -17.882,22.16 -23.676,35.903c-5.794,13.744 -8.692,28.491 -8.692,44.242c0,15.751 2.898,30.524 8.692,44.319c5.794,13.795 13.686,25.84 23.676,36.135c9.99,10.294 21.679,18.427 35.065,24.398c13.387,5.971 27.723,8.957 43.007,8.957c13.087,0 24.776,-1.956 35.065,-5.868c10.29,-3.912 19.231,-8.648 26.824,-14.207c2.197,-1.544 3.471,-3.011 3.821,-4.401c0.35,-1.39 -0.275,-3.114 -1.873,-5.173l-23.527,-35.672c-1.099,-1.75 -2.497,-2.625 -4.196,-2.625c-0.899,0 -1.848,0.232 -2.847,0.695c-0.999,0.463 -2.048,1.107 -3.147,1.93Z" style="fill:#ff4500;fill-rule:nonzero;"/><g><ellipse cx="1093.41" cy="116.591" rx="53.698" ry="55.814" style="fill:#5a64d8;"/><path d="M980.923,116.079c0,16.026 2.937,31.076 8.813,45.151c5.875,14.075 13.922,26.357 24.14,36.848c10.218,10.49 22.147,18.766 35.788,24.829c13.641,6.062 28.227,9.093 43.759,9.093c15.531,0 30.143,-3.031 43.835,-9.093c13.692,-6.063 25.621,-14.339 35.788,-24.829c10.167,-10.491 18.188,-22.773 24.064,-36.848c5.875,-14.075 8.813,-29.125 8.813,-45.151c0,-16.025 -2.938,-31.102 -8.813,-45.23c-5.876,-14.127 -13.897,-26.436 -24.064,-36.927c-10.167,-10.49 -22.096,-18.766 -35.788,-24.829c-13.692,-6.062 -28.304,-9.093 -43.835,-9.093c-15.532,0 -30.118,3.031 -43.759,9.093c-13.641,6.063 -25.57,14.339 -35.788,24.829c-10.218,10.491 -18.265,22.8 -24.14,36.927c-5.876,14.128 -8.813,29.205 -8.813,45.23Zm30.154,0.02c0,11.743 2.163,22.772 6.49,33.086c4.327,10.313 10.253,19.314 17.778,27.001c7.524,7.687 16.31,13.751 26.355,18.194c10.046,4.442 20.788,6.663 32.225,6.663c11.438,0 22.198,-2.221 32.282,-6.663c10.083,-4.443 18.868,-10.507 26.355,-18.194c7.487,-7.687 13.394,-16.688 17.721,-27.001c4.327,-10.314 6.49,-21.343 6.49,-33.086c0,-11.743 -2.163,-22.79 -6.49,-33.143c-4.327,-10.352 -10.234,-19.372 -17.721,-27.059c-7.487,-7.687 -16.272,-13.752 -26.355,-18.194c-10.084,-4.442 -20.844,-6.663 -32.282,-6.663c-11.437,0 -22.179,2.221 -32.225,6.663c-10.045,4.442 -18.831,10.507 -26.355,18.194c-7.525,7.687 -13.451,16.707 -17.778,27.059c-4.327,10.353 -6.49,21.4 -6.49,33.143Z" style="fill:#ff4500;"/></g><path d="M1317.77,51.761c3.797,0 7.243,0.797 10.34,2.393c3.097,1.596 5.794,3.68 8.092,6.254c2.298,2.574 4.071,5.456 5.32,8.648c1.248,3.191 1.873,6.434 1.873,9.728c0,3.398 -0.625,6.692 -1.873,9.883c-1.249,3.192 -2.997,6.023 -5.245,8.494c-2.248,2.47 -4.945,4.478 -8.092,6.022c-3.147,1.544 -6.618,2.316 -10.415,2.316l-31.918,0l0,-53.738l31.918,0Zm-87.363,167.856c0,4.324 2.048,6.486 6.144,6.486l43.007,0c4.196,0 6.294,-2.162 6.294,-6.486l0,-66.71l23.227,0l34.016,67.019c1.199,2.368 2.298,3.989 3.297,4.864c0.999,0.875 2.497,1.313 4.495,1.313l51.849,0c1.998,0 3.296,-0.721 3.896,-2.162c0.599,-1.441 0.499,-2.883 -0.3,-4.324l-41.209,-79.064c5.195,-3.397 9.94,-7.386 14.236,-11.968c4.296,-4.581 7.992,-9.497 11.089,-14.747c3.097,-5.25 5.494,-10.758 7.193,-16.523c1.698,-5.765 2.547,-11.582 2.547,-17.45c0,-9.265 -1.648,-18.35 -4.945,-27.255c-3.297,-8.905 -7.942,-16.806 -13.936,-23.704c-5.994,-6.897 -13.162,-12.457 -21.504,-16.677c-8.341,-4.221 -17.607,-6.332 -27.797,-6.332l-95.455,0c-2.098,0 -3.646,0.695 -4.645,2.085c-0.999,1.39 -1.499,2.908 -1.499,4.555l0,207.08Z" style="fill:#ff4500;fill-rule:nonzero;"/><path d="M1432.4,219.617c0,4.324 2.098,6.486 6.294,6.486l145.805,0c4.295,0 6.443,-2.162 6.443,-6.486l0,-37.833c0,-4.324 -2.148,-6.486 -6.443,-6.486l-96.504,0l0,-37.833l71.179,0c4.695,0 7.043,-2.162 7.043,-6.486l0,-30.576c0,-2.367 -0.625,-4.092 -1.873,-5.173c-1.249,-1.081 -2.972,-1.621 -5.17,-1.621l-71.179,0l0,-36.598l93.806,0c4.196,0 6.294,-2.162 6.294,-6.486l0,-37.988c0,-4.426 -2.098,-6.64 -6.294,-6.64l-143.107,0c-4.196,0 -6.294,2.214 -6.294,6.64l0,207.08Z" style="fill:#ff4500;fill-rule:nonzero;"/></g></svg>