<?xml version="1.0" encoding="UTF-8" standalone="no"?>
<!DOCTYPE svg PUBLIC "-//W3C//DTD SVG 1.1//EN" "http://www.w3.org/Graphics/SVG/1.1/DTD/svg11.dtd">
<svg width="100%" height="100%" viewBox="0 0 232 232" version="1.1" xmlns="http://www.w3.org/2000/svg" xmlns:xlink="http://www.w3.org/1999/xlink" xml:space="preserve" xmlns:serif="http://www.serif.com/" style="fill-rule:evenodd;clip-rule:evenodd;stroke-linejoin:round;stroke-miterlimit:2;">
    <g transform="matrix(1,0,0,1,-1285.45,-109)">
        <g transform="matrix(1,0,0,1,2.93184,-2.57721)">
            <g transform="matrix(1.05464,0,0,1.02412,-70.0736,-2.76992)">
                <g transform="matrix(0.98988,0,0,1.02759,14.0922,-5.66992)">
                    <circle cx="1392.5" cy="224.963" r="53.037" style="fill:rgb(90,100,216);"/>
                </g>
                <path d="M1282.52,225C1282.52,240.648 1285.39,255.344 1291.13,269.087C1296.88,282.831 1304.75,294.824 1314.74,305.068C1324.73,315.311 1336.39,323.392 1349.73,329.312C1363.06,335.231 1377.32,338.191 1392.51,338.191C1407.69,338.191 1421.98,335.231 1435.37,329.312C1448.75,323.392 1460.42,315.311 1470.36,305.068C1480.3,294.824 1488.14,282.831 1493.88,269.087C1499.63,255.344 1502.5,240.648 1502.5,225C1502.5,209.352 1499.63,194.63 1493.88,180.835C1488.14,167.04 1480.3,155.021 1470.36,144.778C1460.42,134.535 1448.75,126.453 1435.37,120.534C1421.98,114.614 1407.69,111.654 1392.51,111.654C1377.32,111.654 1363.06,114.614 1349.73,120.534C1336.39,126.453 1324.73,134.535 1314.74,144.778C1304.75,155.021 1296.88,167.04 1291.13,180.835C1285.39,194.63 1282.52,209.352 1282.52,225ZM1312,225.02C1312,236.486 1314.12,247.255 1318.35,257.326C1322.58,267.397 1328.37,276.185 1335.73,283.691C1343.08,291.197 1351.67,297.119 1361.49,301.457C1371.32,305.794 1381.82,307.963 1393,307.963C1404.18,307.963 1414.7,305.794 1424.56,301.457C1434.42,297.119 1443.01,291.197 1450.33,283.691C1457.65,276.185 1463.42,267.397 1467.65,257.326C1471.88,247.255 1474,236.486 1474,225.02C1474,213.553 1471.88,202.766 1467.65,192.657C1463.42,182.549 1457.65,173.741 1450.33,166.235C1443.01,158.729 1434.42,152.807 1424.56,148.47C1414.7,144.132 1404.18,141.963 1393,141.963C1381.82,141.963 1371.32,144.132 1361.49,148.47C1351.67,152.807 1343.08,158.729 1335.73,166.235C1328.37,173.741 1322.58,182.549 1318.35,192.657C1314.12,202.766 1312,213.553 1312,225.02Z" style="fill:rgb(255,69,0);"/>
            </g>
        </g>
    </g>
</svg>
