<?xml version="1.0" encoding="UTF-8" standalone="no"?><!DOCTYPE svg PUBLIC "-//W3C//DTD SVG 1.1//EN" "http://www.w3.org/Graphics/SVG/1.1/DTD/svg11.dtd"><svg width="100%" height="100%" viewBox="0 0 1215 180" version="1.1" xmlns="http://www.w3.org/2000/svg" xmlns:xlink="http://www.w3.org/1999/xlink" xml:space="preserve" xmlns:serif="http://www.serif.com/" style="fill-rule:evenodd;clip-rule:evenodd;stroke-linejoin:round;stroke-miterlimit:1.41421;"><path d="M73.545,42.747c2.622,0 4.945,0.54 6.968,1.621c2.023,1.081 3.746,2.51 5.169,4.286c1.424,1.775 2.51,3.764 3.26,5.964c0.749,2.201 1.124,4.42 1.124,6.66c0,2.316 -0.375,4.594 -1.124,6.833c-0.75,2.239 -1.817,4.227 -3.203,5.964c-1.386,1.737 -3.11,3.127 -5.17,4.17c-2.061,1.042 -4.402,1.563 -7.024,1.563l-23.265,0l0,-37.061l23.265,0Zm-64.848,124.966c0,3.243 1.536,4.864 4.608,4.864l32.03,0c3.297,0 4.945,-1.621 4.945,-4.864l0,-52.812l33.042,0c7.343,0 14.03,-1.525 20.062,-4.575c6.031,-3.05 11.201,-7.084 15.509,-12.103c4.308,-5.019 7.643,-10.713 10.003,-17.083c2.36,-6.37 3.54,-12.913 3.54,-19.631c0,-6.794 -1.199,-13.435 -3.597,-19.92c-2.397,-6.486 -5.788,-12.257 -10.171,-17.315c-4.383,-5.057 -9.646,-9.13 -15.79,-12.218c-6.144,-3.089 -12.925,-4.633 -20.342,-4.633l-69.231,0c-1.274,0 -2.361,0.425 -3.26,1.274c-0.899,0.849 -1.348,2.085 -1.348,3.706l0,155.31Z" style="fill:#ff4500;fill-rule:nonzero;"/><path d="M196.834,12.403c0,-1.39 -0.281,-2.567 -0.843,-3.532c-0.562,-0.965 -1.817,-1.448 -3.765,-1.448l-32.929,0c-1.274,0 -2.304,0.502 -3.091,1.506c-0.787,1.003 -1.18,2.161 -1.18,3.474l0,93.695c0,12.74 1.854,23.511 5.563,32.313c3.709,8.802 8.691,15.925 14.948,21.368c6.256,5.444 13.505,9.362 21.747,11.756c8.242,2.393 16.895,3.59 25.961,3.59c9.066,0 17.72,-1.177 25.962,-3.532c8.242,-2.355 15.491,-6.216 21.747,-11.582c6.256,-5.366 11.239,-12.45 14.948,-21.252c3.709,-8.802 5.563,-19.689 5.563,-32.661l0,-93.695c0,-1.313 -0.45,-2.471 -1.349,-3.474c-0.899,-1.004 -2.21,-1.506 -3.933,-1.506l-31.469,0c-1.498,0 -2.697,0.502 -3.596,1.506c-0.899,1.003 -1.349,2.161 -1.349,3.474l0,94.275c0,4.941 -0.712,9.284 -2.135,13.029c-1.424,3.745 -3.335,6.891 -5.732,9.439c-2.398,2.548 -5.208,4.478 -8.429,5.791c-3.222,1.312 -6.631,1.969 -10.228,1.969c-3.446,0 -6.762,-0.56 -9.946,-1.68c-3.184,-1.119 -5.994,-2.876 -8.429,-5.269c-2.435,-2.394 -4.383,-5.521 -5.844,-9.381c-1.461,-3.861 -2.192,-8.494 -2.192,-13.898l0,-94.275Z" style="fill:#ff4500;fill-rule:nonzero;"/><path d="M388.456,41.82c2.847,0 5.432,0.599 7.755,1.796c2.322,1.196 4.345,2.76 6.068,4.69c1.724,1.93 3.054,4.092 3.99,6.486c0.937,2.393 1.405,4.826 1.405,7.296c0,2.548 -0.468,5.019 -1.405,7.413c-0.936,2.393 -2.247,4.516 -3.933,6.369c-1.686,1.853 -3.709,3.359 -6.069,4.517c-2.36,1.158 -4.964,1.737 -7.811,1.737l-23.939,0l0,-40.304l23.939,0Zm-65.522,125.893c0,3.243 1.536,4.864 4.607,4.864l32.256,0c3.147,0 4.72,-1.621 4.72,-4.864l0,-50.033l17.42,0l25.512,50.264c0.899,1.776 1.724,2.992 2.473,3.649c0.749,0.656 1.873,0.984 3.372,0.984l38.886,0c1.498,0 2.472,-0.54 2.922,-1.621c0.449,-1.081 0.374,-2.162 -0.225,-3.243l-30.907,-59.298c3.897,-2.548 7.455,-5.54 10.677,-8.976c3.222,-3.436 5.994,-7.123 8.317,-11.06c2.323,-3.938 4.121,-8.069 5.395,-12.393c1.273,-4.324 1.91,-8.686 1.91,-13.087c0,-6.949 -1.236,-13.763 -3.709,-20.442c-2.472,-6.678 -5.956,-12.604 -10.452,-17.777c-4.495,-5.174 -9.871,-9.343 -16.127,-12.509c-6.257,-3.165 -13.206,-4.748 -20.848,-4.748l-71.592,0c-1.573,0 -2.734,0.521 -3.484,1.563c-0.749,1.043 -1.123,2.182 -1.123,3.417l0,155.31Z" style="fill:#ff4500;fill-rule:nonzero;"/><path d="M474.433,167.713c0,3.243 1.573,4.864 4.72,4.864l109.353,0c3.222,0 4.833,-1.621 4.833,-4.864l0,-28.375c0,-3.243 -1.611,-4.865 -4.833,-4.865l-72.377,0l0,-28.375l53.384,0c3.521,0 5.282,-1.621 5.282,-4.864l0,-22.931c0,-1.776 -0.468,-3.07 -1.405,-3.88c-0.936,-0.811 -2.229,-1.216 -3.877,-1.216l-53.384,0l0,-27.449l70.354,0c3.147,0 4.721,-1.621 4.721,-4.864l0,-28.491c0,-3.32 -1.574,-4.98 -4.721,-4.98l-107.33,0c-3.147,0 -4.72,1.66 -4.72,4.98l0,155.31Z" style="fill:#ff4500;fill-rule:nonzero;"/><path d="M710.223,126.019c-2.848,2.007 -6.182,3.841 -10.003,5.501c-3.821,1.66 -8.017,2.49 -12.587,2.49c-5.994,0 -11.539,-1.158 -16.634,-3.474c-5.095,-2.317 -9.497,-5.463 -13.205,-9.439c-3.709,-3.977 -6.613,-8.667 -8.71,-14.072c-2.098,-5.405 -3.147,-11.196 -3.147,-17.372c0,-6.177 1.049,-11.93 3.147,-17.257c2.097,-5.328 5.001,-9.96 8.71,-13.898c3.708,-3.938 8.11,-7.046 13.205,-9.323c5.095,-2.278 10.64,-3.417 16.634,-3.417c4.495,0 8.541,0.656 12.138,1.969c3.596,1.313 7.192,3.436 10.789,6.37c1.199,1.004 2.435,1.506 3.709,1.506c1.198,0 2.172,-0.541 2.922,-1.622l18.768,-27.68c0.525,-0.849 0.694,-1.834 0.506,-2.953c-0.187,-1.12 -0.843,-2.104 -1.967,-2.954c-2.922,-2.162 -6.106,-4.188 -9.553,-6.08c-3.446,-1.892 -7.117,-3.532 -11.014,-4.922c-3.896,-1.39 -8.035,-2.49 -12.418,-3.301c-4.384,-0.811 -9.01,-1.216 -13.88,-1.216c-11.464,0 -22.216,2.201 -32.256,6.602c-10.04,4.401 -18.806,10.423 -26.299,18.067c-7.492,7.644 -13.411,16.62 -17.757,26.927c-4.345,10.308 -6.518,21.368 -6.518,33.182c0,11.813 2.173,22.893 6.518,33.239c4.346,10.346 10.265,19.38 17.757,27.101c7.493,7.721 16.259,13.821 26.299,18.299c10.04,4.478 20.792,6.717 32.256,6.717c9.815,0 18.581,-1.467 26.298,-4.401c7.718,-2.934 14.424,-6.486 20.118,-10.655c1.648,-1.158 2.604,-2.258 2.866,-3.301c0.262,-1.042 -0.206,-2.335 -1.405,-3.88l-17.645,-26.753c-0.824,-1.313 -1.873,-1.969 -3.147,-1.969c-0.674,0 -1.386,0.174 -2.135,0.521c-0.749,0.348 -1.536,0.83 -2.36,1.448Z" style="fill:#ff4500;fill-rule:nonzero;"/><ellipse cx="826.875" cy="90.375" rx="39.375" ry="40.875" style="fill:#ff4500;"/><path d="M744.389,90c0,11.736 2.154,22.758 6.462,33.066c4.308,10.307 10.208,19.302 17.701,26.985c7.493,7.682 16.24,13.743 26.243,18.183c10.002,4.44 20.698,6.659 32.086,6.659c11.389,0 22.103,-2.219 32.143,-6.659c10.04,-4.44 18.788,-10.501 26.243,-18.183c7.455,-7.683 13.337,-16.678 17.645,-26.985c4.308,-10.308 6.462,-21.33 6.462,-33.066c0,-11.736 -2.154,-22.777 -6.462,-33.123c-4.308,-10.347 -10.19,-19.361 -17.645,-27.044c-7.455,-7.682 -16.203,-13.743 -26.243,-18.183c-10.04,-4.439 -20.754,-6.659 -32.143,-6.659c-11.388,0 -22.084,2.22 -32.086,6.659c-10.003,4.44 -18.75,10.501 -26.243,18.183c-7.493,7.683 -13.393,16.697 -17.701,27.044c-4.308,10.346 -6.462,21.387 -6.462,33.123Zm22.111,0.015c0,8.6 1.586,16.676 4.759,24.229c3.173,7.554 7.518,14.145 13.036,19.774c5.517,5.63 11.959,10.071 19.325,13.325c7.367,3.253 15.243,4.879 23.63,4.879c8.387,0 16.277,-1.626 23.671,-4.879c7.394,-3.254 13.836,-7.695 19.326,-13.325c5.49,-5.629 9.821,-12.22 12.994,-19.774c3.173,-7.553 4.759,-15.629 4.759,-24.229c0,-8.6 -1.586,-16.691 -4.759,-24.272c-3.173,-7.582 -7.504,-14.187 -12.994,-19.817c-5.49,-5.629 -11.932,-10.07 -19.326,-13.324c-7.394,-3.253 -15.284,-4.88 -23.671,-4.88c-8.387,0 -16.263,1.627 -23.63,4.88c-7.366,3.254 -13.808,7.695 -19.325,13.324c-5.518,5.63 -9.863,12.235 -13.036,19.817c-3.173,7.581 -4.759,15.672 -4.759,24.272Z" style="fill:#ff4500;"/><path d="M1001.42,41.82c2.847,0 5.432,0.599 7.755,1.796c2.322,1.196 4.345,2.76 6.069,4.69c1.723,1.93 3.053,4.092 3.989,6.486c0.937,2.393 1.405,4.826 1.405,7.296c0,2.548 -0.468,5.019 -1.405,7.413c-0.936,2.393 -2.247,4.516 -3.933,6.369c-1.686,1.853 -3.709,3.359 -6.069,4.517c-2.36,1.158 -4.964,1.737 -7.811,1.737l-23.939,0l0,-40.304l23.939,0Zm-65.522,125.893c0,3.243 1.536,4.864 4.608,4.864l32.255,0c3.147,0 4.72,-1.621 4.72,-4.864l0,-50.033l17.42,0l25.513,50.264c0.899,1.776 1.723,2.992 2.472,3.649c0.749,0.656 1.873,0.984 3.372,0.984l38.886,0c1.498,0 2.473,-0.54 2.922,-1.621c0.45,-1.081 0.375,-2.162 -0.225,-3.243l-30.906,-59.298c3.896,-2.548 7.455,-5.54 10.676,-8.976c3.222,-3.436 5.994,-7.123 8.317,-11.06c2.323,-3.938 4.121,-8.069 5.395,-12.393c1.274,-4.324 1.91,-8.686 1.91,-13.087c0,-6.949 -1.236,-13.763 -3.708,-20.442c-2.473,-6.678 -5.957,-12.604 -10.453,-17.777c-4.495,-5.174 -9.871,-9.343 -16.127,-12.509c-6.256,-3.165 -13.206,-4.748 -20.848,-4.748l-71.591,0c-1.574,0 -2.735,0.521 -3.484,1.563c-0.75,1.043 -1.124,2.182 -1.124,3.417l0,155.31Z" style="fill:#ff4500;fill-rule:nonzero;"/><path d="M1087.4,167.713c0,3.243 1.573,4.864 4.72,4.864l109.354,0c3.221,0 4.832,-1.621 4.832,-4.864l0,-28.375c0,-3.243 -1.611,-4.865 -4.832,-4.865l-72.378,0l0,-28.375l53.384,0c3.522,0 5.282,-1.621 5.282,-4.864l0,-22.931c0,-1.776 -0.468,-3.07 -1.405,-3.88c-0.936,-0.811 -2.229,-1.216 -3.877,-1.216l-53.384,0l0,-27.449l70.355,0c3.147,0 4.72,-1.621 4.72,-4.864l0,-28.491c0,-3.32 -1.573,-4.98 -4.72,-4.98l-107.331,0c-3.147,0 -4.72,1.66 -4.72,4.98l0,155.31Z" style="fill:#ff4500;fill-rule:nonzero;"/></svg>