<?xml version="1.0" encoding="UTF-8" standalone="no"?><!DOCTYPE svg PUBLIC "-//W3C//DTD SVG 1.1//EN" "http://www.w3.org/Graphics/SVG/1.1/DTD/svg11.dtd"><svg width="100%" height="100%" viewBox="0 0 225 225" version="1.1" xmlns="http://www.w3.org/2000/svg" xmlns:xlink="http://www.w3.org/1999/xlink" xml:space="preserve" xmlns:serif="http://www.serif.com/" style="fill-rule:evenodd;clip-rule:evenodd;stroke-linejoin:round;stroke-miterlimit:1.41421;"><g><ellipse cx="112.491" cy="113.066" rx="51.55" ry="53.409" style="fill:#ff4500;"/><path d="M4.5,112.576c0,15.334 2.82,29.736 8.46,43.205c5.64,13.467 13.365,25.221 23.174,35.26c9.81,10.037 21.262,17.957 34.358,23.758c13.095,5.802 27.098,8.701 42.007,8.701c14.911,0 28.938,-2.899 42.082,-8.701c13.145,-5.801 24.598,-13.721 34.358,-23.758c9.76,-10.039 17.461,-21.793 23.101,-35.26c5.64,-13.469 8.46,-27.871 8.46,-43.205c0,-15.335 -2.82,-29.761 -8.46,-43.28c-5.64,-13.52 -13.341,-25.298 -23.101,-35.337c-9.76,-10.037 -21.213,-17.957 -34.358,-23.758c-13.144,-5.8 -27.171,-8.701 -42.082,-8.701c-14.909,0 -28.912,2.901 -42.007,8.701c-13.096,5.801 -24.548,13.721 -34.358,23.758c-9.809,10.039 -17.534,21.817 -23.174,35.337c-5.64,13.519 -8.46,27.945 -8.46,43.28Zm28.948,0.019c0,11.237 2.076,21.79 6.23,31.659c4.155,9.87 9.843,18.482 17.067,25.837c7.223,7.357 15.657,13.159 25.301,17.411c9.645,4.251 19.956,6.375 30.936,6.375c10.981,0 21.31,-2.124 30.991,-6.375c9.68,-4.252 18.114,-10.054 25.302,-17.411c7.187,-7.355 12.857,-15.967 17.011,-25.837c4.155,-9.869 6.231,-20.422 6.231,-31.659c0,-11.237 -2.076,-21.809 -6.231,-31.714c-4.154,-9.907 -9.824,-18.538 -17.011,-25.894c-7.188,-7.355 -15.622,-13.158 -25.302,-17.409c-9.681,-4.251 -20.01,-6.377 -30.991,-6.377c-10.98,0 -21.291,2.126 -30.936,6.377c-9.644,4.251 -18.078,10.054 -25.301,17.409c-7.224,7.356 -12.912,15.987 -17.067,25.894c-4.154,9.905 -6.23,20.477 -6.23,31.714Z" style="fill:#ff4500;"/></g></svg>