<?xml version="1.0" encoding="UTF-8" standalone="no"?>
<!DOCTYPE svg PUBLIC "-//W3C//DTD SVG 1.1//EN" "http://www.w3.org/Graphics/SVG/1.1/DTD/svg11.dtd">
<svg width="100%" height="100%" viewBox="0 0 300 300" version="1.1" xmlns="http://www.w3.org/2000/svg" xmlns:xlink="http://www.w3.org/1999/xlink" xml:space="preserve" xmlns:serif="http://www.serif.com/" style="fill-rule:evenodd;clip-rule:evenodd;stroke-linejoin:round;stroke-miterlimit:2;">
    <g transform="matrix(1,0,0,1,-1252.68,-75)">
        <g transform="matrix(1,0,0,1,-37.3222,8.52651e-14)">
            <g transform="matrix(1.2,0,0,1.2,-241.729,-45)">
                <path d="M1413.53,100.586C1405.49,99.805 1397.39,99.805 1389.35,100.586L1385.37,119.973C1377.66,121.152 1370.11,123.176 1362.85,126.008L1349.7,111.21C1342.35,114.553 1335.34,118.602 1328.76,123.299L1335.01,142.079C1328.92,146.954 1323.39,152.483 1318.52,158.568L1299.74,152.323C1295.04,158.896 1290.99,165.909 1287.65,173.263L1302.45,186.405C1299.62,193.668 1297.59,201.222 1296.41,208.929L1277.03,212.911C1276.25,220.951 1276.25,229.049 1277.03,237.089L1296.41,241.071C1297.59,248.778 1299.62,256.332 1302.45,263.595L1287.65,276.737C1290.99,284.091 1295.04,291.104 1299.74,297.677L1318.52,291.432C1323.39,297.517 1328.92,303.046 1335.01,307.921L1328.76,326.701C1335.34,331.398 1342.35,335.447 1349.7,338.79L1362.85,323.992C1370.11,326.824 1377.66,328.848 1385.37,330.027L1389.35,349.414C1397.39,350.195 1405.49,350.195 1413.53,349.414L1417.51,330.027C1425.22,328.848 1432.77,326.824 1440.04,323.992L1453.18,338.79C1460.53,335.447 1467.55,331.398 1474.12,326.701L1467.87,307.921C1473.96,303.046 1479.49,297.517 1484.36,291.432L1503.14,297.677C1507.84,291.104 1511.89,284.091 1515.23,276.737L1500.43,263.595C1503.27,256.332 1505.29,248.778 1506.47,241.071L1525.86,237.089C1526.64,229.049 1526.64,220.951 1525.86,212.911L1506.47,208.929C1505.29,201.222 1503.27,193.668 1500.43,186.405L1515.23,173.263C1511.89,165.909 1507.84,158.896 1503.14,152.323L1484.36,158.568C1479.49,152.483 1473.96,146.954 1467.87,142.079L1474.12,123.299C1467.55,118.602 1460.53,114.553 1453.18,111.21L1440.04,126.008C1432.77,123.176 1425.22,121.152 1417.51,119.973L1413.53,100.586ZM1401.44,150.591C1442.84,150.591 1476.44,184.198 1476.44,225.591C1476.44,266.985 1442.84,300.591 1401.44,300.591C1360.05,300.591 1326.44,266.985 1326.44,225.591C1326.44,184.198 1360.05,150.591 1401.44,150.591Z" style="fill:rgb(90,100,216);"/>
            </g>
        </g>
        <g transform="matrix(1,0,0,1,-37.3222,8.52651e-14)">
            <g transform="matrix(1.17843,0,0,1.17843,-200.962,-40.1031)">
                <circle cx="1392.5" cy="224.963" r="53.037" style="fill:rgb(255,69,0);"/>
            </g>
        </g>
    </g>
</svg>
