<?xml version="1.0" encoding="UTF-8" standalone="no"?><!DOCTYPE svg PUBLIC "-//W3C//DTD SVG 1.1//EN" "http://www.w3.org/Graphics/SVG/1.1/DTD/svg11.dtd"><svg width="100%" height="100%" viewBox="0 0 512 512" version="1.1" xmlns="http://www.w3.org/2000/svg" xmlns:xlink="http://www.w3.org/1999/xlink" xml:space="preserve" style="fill-rule:evenodd;clip-rule:evenodd;stroke-linejoin:round;stroke-miterlimit:1.41421;"><path d="M107.644,470.877l-33.011,-370.257l362.734,0l-33.046,370.199l-148.543,41.181l-148.134,-41.123Z" style="fill:#e44d26;fill-rule:nonzero;"/><path d="M256,480.523l120.03,-33.277l28.24,-316.352l-148.27,0l0,349.629Z" style="fill:#f16529;fill-rule:nonzero;"/><path d="M256,268.217l-60.09,0l-4.15,-46.501l64.24,0l0,-45.411l-0.157,0l-113.711,0l1.087,12.183l11.161,125.139l101.62,0l0,-45.41Z" style="fill:#ebebeb;fill-rule:nonzero;"/><path d="M256,386.153l-0.199,0.053l-50.574,-13.656l-3.233,-36.217l-24.575,0l-21.01,0l6.362,71.301l93.02,25.823l0.209,-0.058l0,-47.246Z" style="fill:#ebebeb;fill-rule:nonzero;"/><path d="M108.382,0l23.077,0l0,22.8l21.11,0l0,-22.8l23.078,0l0,69.044l-23.077,0l0,-23.12l-21.11,0l0,23.12l-23.077,0l0,-69.044l-0.001,0Z" style="fill:#e44d26;fill-rule:nonzero;"/><path d="M205.994,22.896l-20.316,0l0,-22.896l63.72,0l0,22.896l-20.325,0l0,46.148l-23.078,0l0,-46.148l-0.001,0Z" style="fill:#e44d26;fill-rule:nonzero;"/><path d="M259.511,0l24.063,0l14.802,24.26l14.787,-24.26l24.072,0l0,69.044l-22.982,0l0,-34.222l-15.877,24.549l-0.397,0l-15.888,-24.549l0,34.222l-22.58,0l0,-69.044l0,0Z" style="fill:#e44d26;fill-rule:nonzero;"/><path d="M348.72,0l23.084,0l0,46.222l32.453,0l0,22.822l-55.537,0l0,-69.044Z" style="fill:#e44d26;fill-rule:nonzero;"/><path d="M255.843,268.217l0,45.41l55.918,0l-5.271,58.894l-50.647,13.67l0,47.244l93.094,-25.801l0.683,-7.672l10.671,-119.551l1.108,-12.194l-12.237,0l-93.319,0Z" style="fill:#fff;fill-rule:nonzero;"/><path d="M255.843,176.305l0,45.411l109.688,0l0.911,-10.207l2.069,-23.021l1.086,-12.183l-113.754,0Z" style="fill:#fff;fill-rule:nonzero;"/></svg>