<?xml version="1.0" encoding="UTF-8" standalone="no"?><!DOCTYPE svg PUBLIC "-//W3C//DTD SVG 1.1//EN" "http://www.w3.org/Graphics/SVG/1.1/DTD/svg11.dtd"><svg width="100%" height="100%" viewBox="0 0 800 100" version="1.1" xmlns="http://www.w3.org/2000/svg" xmlns:xlink="http://www.w3.org/1999/xlink" xml:space="preserve" xmlns:serif="http://www.serif.com/" style="fill-rule:evenodd;clip-rule:evenodd;stroke-linejoin:round;stroke-miterlimit:2;"><path d="M800,5c0,-2.76 -2.24,-5 -5,-5l-790,0c-2.76,0 -5,2.24 -5,5l0,90c0,2.76 2.24,5 5,5l790,0c2.76,0 5,-2.24 5,-5l0,-90Z" style="fill:#fff;"/><path d="M800,5c0,-2.76 -2.24,-5 -5,-5l-790,0c-2.76,0 -5,2.24 -5,5l0,90c0,2.76 2.24,5 5,5l790,0c2.76,0 5,-2.24 5,-5l0,-90Zm-2.5,0l0,90c0,1.38 -1.12,2.5 -2.5,2.5c0,0 -790,0 -790,0c-1.38,0 -2.5,-1.12 -2.5,-2.5l0,-90c0,-1.38 1.12,-2.5 2.5,-2.5l790,0c1.38,0 2.5,1.12 2.5,2.5Z" style="fill:#f3f3fc;"/><g transform="matrix(1,0,0,0.99622,-21.8899,0.725563)"><g transform="matrix(12.0455,0,0,12.0455,41.3899,41.2625)"><path d="M0.042,-0.434l0,-0.084l0.126,0l0,-0.132l0.145,0l0,0.132l0.221,0l0,0.084l-0.221,0l0,0.232c0,0.043 0.006,0.073 0.016,0.088c0.01,0.016 0.029,0.024 0.057,0.024c0.036,0 0.084,-0.014 0.144,-0.042l0,0.099c-0.069,0.03 -0.13,0.045 -0.183,0.045c-0.063,0 -0.108,-0.016 -0.137,-0.049c-0.028,-0.033 -0.042,-0.086 -0.042,-0.161l0,-0.236l-0.126,0Z" style="fill:#00b27d;fill-rule:nonzero;"/></g><g transform="matrix(12.0455,0,0,12.0455,48.6184,41.2625)"><path d="M0.246,-0.016l-0.191,-0.43l-0.049,0l0,-0.084l0.28,0l0,0.084l-0.067,0l0.112,0.253l0.116,-0.253l-0.067,0l0,-0.084l0.214,0l0,0.084l-0.05,0l-0.257,0.554l0.098,0l0,0.085l-0.334,0l0,-0.085l0.096,0l0.099,-0.124Z" style="fill:#00b27d;fill-rule:nonzero;"/></g><g transform="matrix(12.0455,0,0,12.0455,55.8469,41.2625)"><path d="M0.022,-0.446l0,-0.084l0.186,0l0,0.078c0.05,-0.06 0.106,-0.09 0.169,-0.09c0.059,0 0.105,0.023 0.14,0.07c0.035,0.046 0.052,0.11 0.052,0.189c0,0.094 -0.022,0.167 -0.067,0.218c-0.045,0.051 -0.109,0.077 -0.191,0.077c-0.03,0 -0.064,-0.004 -0.103,-0.012l0,0.108l0.063,0l0,0.085l-0.249,0l0,-0.085l0.049,0l0,-0.554l-0.049,0Zm0.186,0.35l0.016,0.004c0.027,0.006 0.051,0.009 0.074,0.009c0.085,0 0.127,-0.061 0.127,-0.184c0,-0.112 -0.032,-0.168 -0.096,-0.168c-0.041,0 -0.081,0.029 -0.121,0.087l0,0.252Z" style="fill:#00b27d;fill-rule:nonzero;"/></g><g transform="matrix(12.0455,0,0,12.0455,63.0754,41.2625)"><path d="M0.57,-0.124l0,0.099c-0.078,0.025 -0.155,0.037 -0.229,0.037c-0.098,0 -0.174,-0.024 -0.229,-0.073c-0.054,-0.049 -0.082,-0.115 -0.082,-0.2c0,-0.084 0.026,-0.152 0.079,-0.204c0.052,-0.052 0.12,-0.077 0.204,-0.077c0.081,0 0.143,0.024 0.187,0.073c0.043,0.048 0.065,0.117 0.065,0.206l0,0.028l-0.384,0c0.005,0.029 0.011,0.051 0.019,0.066c0.029,0.058 0.085,0.086 0.169,0.086c0.054,0 0.121,-0.013 0.201,-0.041Zm-0.386,-0.195l0.235,0c-0.001,-0.039 -0.009,-0.07 -0.025,-0.093c-0.02,-0.029 -0.049,-0.044 -0.087,-0.044c-0.041,0 -0.073,0.016 -0.096,0.048c-0.016,0.022 -0.025,0.052 -0.027,0.089Z" style="fill:#00b27d;fill-rule:nonzero;"/></g><g transform="matrix(12.0455,0,0,12.0455,77.5324,41.2625)"><path d="M0.06,0l0,-0.084l0.168,0l0,-0.555l-0.168,0l0,-0.084l0.48,0l0,0.084l-0.168,0l0,0.555l0.168,0l0,0.084l-0.48,0Z" style="fill:#4a5159;fill-rule:nonzero;"/></g><g transform="matrix(12.0455,0,0,12.0455,84.7609,41.2625)"><path d="M0.022,0l0,-0.084l0.051,0l0,-0.362l-0.051,0l0,-0.084l0.19,0l0,0.078c0.028,-0.032 0.053,-0.055 0.076,-0.068c0.026,-0.015 0.061,-0.022 0.104,-0.022c0.051,0 0.088,0.014 0.109,0.042c0.022,0.027 0.033,0.072 0.033,0.136l0,0.28l0.049,0l0,0.084l-0.188,0l0,-0.315c0,-0.046 -0.005,-0.077 -0.014,-0.092c-0.009,-0.016 -0.025,-0.024 -0.049,-0.024c-0.037,0 -0.077,0.028 -0.12,0.084l0,0.263l0.059,0l0,0.084l-0.249,0Z" style="fill:#4a5159;fill-rule:nonzero;"/></g><g transform="matrix(12.0455,0,0,12.0455,91.9894,41.2625)"><path d="M0.042,-0.434l0,-0.084l0.126,0l0,-0.132l0.145,0l0,0.132l0.221,0l0,0.084l-0.221,0l0,0.232c0,0.043 0.006,0.073 0.016,0.088c0.01,0.016 0.029,0.024 0.057,0.024c0.036,0 0.084,-0.014 0.144,-0.042l0,0.099c-0.069,0.03 -0.13,0.045 -0.183,0.045c-0.063,0 -0.108,-0.016 -0.137,-0.049c-0.028,-0.033 -0.042,-0.086 -0.042,-0.161l0,-0.236l-0.126,0Z" style="fill:#4a5159;fill-rule:nonzero;"/></g><g transform="matrix(12.0455,0,0,12.0455,99.2179,41.2625)"><path d="M0.57,-0.124l0,0.099c-0.078,0.025 -0.155,0.037 -0.229,0.037c-0.098,0 -0.174,-0.024 -0.229,-0.073c-0.054,-0.049 -0.082,-0.115 -0.082,-0.2c0,-0.084 0.026,-0.152 0.079,-0.204c0.052,-0.052 0.12,-0.077 0.204,-0.077c0.081,0 0.143,0.024 0.187,0.073c0.043,0.048 0.065,0.117 0.065,0.206l0,0.028l-0.384,0c0.005,0.029 0.011,0.051 0.019,0.066c0.029,0.058 0.085,0.086 0.169,0.086c0.054,0 0.121,-0.013 0.201,-0.041Zm-0.386,-0.195l0.235,0c-0.001,-0.039 -0.009,-0.07 -0.025,-0.093c-0.02,-0.029 -0.049,-0.044 -0.087,-0.044c-0.041,0 -0.073,0.016 -0.096,0.048c-0.016,0.022 -0.025,0.052 -0.027,0.089Z" style="fill:#4a5159;fill-rule:nonzero;"/></g><g transform="matrix(12.0455,0,0,12.0455,106.446,41.2625)"><path d="M0.027,0l0,-0.084l0.121,0l0,-0.362l-0.121,0l0,-0.084l0.265,0l0,0.078c0.022,-0.026 0.042,-0.047 0.063,-0.06c0.03,-0.02 0.062,-0.03 0.098,-0.03c0.039,0 0.079,0.009 0.12,0.026l0,0.173l-0.084,0l-0.012,-0.074c-0.018,-0.01 -0.036,-0.015 -0.053,-0.015c-0.039,0 -0.083,0.03 -0.132,0.09l0,0.258l0.157,0l0,0.084l-0.422,0Z" style="fill:#4a5159;fill-rule:nonzero;"/></g><g transform="matrix(12.0455,0,0,12.0455,113.675,41.2625)"><path d="M0.059,0l0,-0.084l0.132,0l0,-0.344l-0.132,0l0,-0.09l0.132,0l0,-0.045c0,-0.147 0.078,-0.22 0.234,-0.22c0.053,0 0.108,0.012 0.165,0.037l0,0.125l-0.082,0l-0.012,-0.059c-0.025,-0.012 -0.049,-0.018 -0.072,-0.018c-0.059,0 -0.089,0.043 -0.089,0.13l0,0.05l0.203,0l0,0.09l-0.203,0l0,0.344l0.155,0l0,0.084l-0.431,0Z" style="fill:#4a5159;fill-rule:nonzero;"/></g><g transform="matrix(12.0455,0,0,12.0455,120.903,41.2625)"><path d="M0.078,-0.377l0,-0.124c0.083,-0.027 0.16,-0.041 0.232,-0.041c0.075,0 0.129,0.011 0.162,0.033c0.033,0.022 0.049,0.06 0.049,0.112l0,0.313l0.055,0l0,0.084l-0.18,0l-0.019,-0.051c-0.051,0.042 -0.106,0.063 -0.168,0.063c-0.05,0 -0.091,-0.014 -0.121,-0.042c-0.031,-0.027 -0.046,-0.064 -0.046,-0.11c0,-0.06 0.025,-0.106 0.075,-0.138c0.05,-0.031 0.122,-0.047 0.216,-0.047l0.044,0l0,-0.055c0,-0.03 -0.007,-0.051 -0.02,-0.062c-0.013,-0.011 -0.038,-0.017 -0.072,-0.017c-0.042,0 -0.079,0.008 -0.113,0.025l-0.009,0.057l-0.085,0Zm0.299,0.234l0,-0.11l-0.022,0c-0.05,0 -0.09,0.01 -0.12,0.029c-0.03,0.019 -0.046,0.044 -0.046,0.076c0,0.043 0.023,0.065 0.069,0.065c0.042,0 0.082,-0.02 0.119,-0.06Z" style="fill:#4a5159;fill-rule:nonzero;"/></g><g transform="matrix(12.0455,0,0,12.0455,128.132,41.2625)"><path d="M0.576,-0.13l0,0.105c-0.077,0.025 -0.149,0.037 -0.218,0.037c-0.103,0 -0.183,-0.024 -0.241,-0.073c-0.058,-0.049 -0.087,-0.117 -0.087,-0.203c0,-0.085 0.03,-0.153 0.09,-0.203c0.06,-0.05 0.141,-0.075 0.245,-0.075c0.068,0 0.136,0.009 0.205,0.026l0,0.179l-0.084,0l-0.012,-0.1c-0.037,-0.015 -0.074,-0.022 -0.114,-0.022c-0.118,0 -0.176,0.06 -0.176,0.18c0,0.067 0.018,0.117 0.055,0.15c0.034,0.03 0.082,0.045 0.144,0.045c0.048,0 0.112,-0.015 0.193,-0.046Z" style="fill:#4a5159;fill-rule:nonzero;"/></g><g transform="matrix(12.0455,0,0,12.0455,135.36,41.2625)"><path d="M0.57,-0.124l0,0.099c-0.078,0.025 -0.155,0.037 -0.229,0.037c-0.098,0 -0.174,-0.024 -0.229,-0.073c-0.054,-0.049 -0.082,-0.115 -0.082,-0.2c0,-0.084 0.026,-0.152 0.079,-0.204c0.052,-0.052 0.12,-0.077 0.204,-0.077c0.081,0 0.143,0.024 0.187,0.073c0.043,0.048 0.065,0.117 0.065,0.206l0,0.028l-0.384,0c0.005,0.029 0.011,0.051 0.019,0.066c0.029,0.058 0.085,0.086 0.169,0.086c0.054,0 0.121,-0.013 0.201,-0.041Zm-0.386,-0.195l0.235,0c-0.001,-0.039 -0.009,-0.07 -0.025,-0.093c-0.02,-0.029 -0.049,-0.044 -0.087,-0.044c-0.041,0 -0.073,0.016 -0.096,0.048c-0.016,0.022 -0.025,0.052 -0.027,0.089Z" style="fill:#4a5159;fill-rule:nonzero;"/></g><g transform="matrix(12.0455,0,0,12.0455,149.817,41.2625)"><path d="M0.068,0l0,-0.084l0.181,0l0,-0.362l-0.181,0l0,-0.084l0.326,0l0,0.446l0.18,0l0,0.084l-0.506,0Zm0.181,-0.626l0,-0.145l0.145,0l0,0.145l-0.145,0Z" style="fill:#00b27d;fill-rule:nonzero;"/></g><g transform="matrix(12.0455,0,0,12.0455,157.046,41.2625)"><path d="M0.022,0l0,-0.084l0.051,0l0,-0.362l-0.051,0l0,-0.084l0.19,0l0,0.078c0.028,-0.032 0.053,-0.055 0.076,-0.068c0.026,-0.015 0.061,-0.022 0.104,-0.022c0.051,0 0.088,0.014 0.109,0.042c0.022,0.027 0.033,0.072 0.033,0.136l0,0.28l0.049,0l0,0.084l-0.188,0l0,-0.315c0,-0.046 -0.005,-0.077 -0.014,-0.092c-0.009,-0.016 -0.025,-0.024 -0.049,-0.024c-0.037,0 -0.077,0.028 -0.12,0.084l0,0.263l0.059,0l0,0.084l-0.249,0Z" style="fill:#00b27d;fill-rule:nonzero;"/></g><g transform="matrix(12.0455,0,0,12.0455,164.274,41.2625)"><path d="M0.042,-0.434l0,-0.084l0.126,0l0,-0.132l0.145,0l0,0.132l0.221,0l0,0.084l-0.221,0l0,0.232c0,0.043 0.006,0.073 0.016,0.088c0.01,0.016 0.029,0.024 0.057,0.024c0.036,0 0.084,-0.014 0.144,-0.042l0,0.099c-0.069,0.03 -0.13,0.045 -0.183,0.045c-0.063,0 -0.108,-0.016 -0.137,-0.049c-0.028,-0.033 -0.042,-0.086 -0.042,-0.161l0,-0.236l-0.126,0Z" style="fill:#00b27d;fill-rule:nonzero;"/></g><g transform="matrix(12.0455,0,0,12.0455,171.503,41.2625)"><path d="M0.57,-0.124l0,0.099c-0.078,0.025 -0.155,0.037 -0.229,0.037c-0.098,0 -0.174,-0.024 -0.229,-0.073c-0.054,-0.049 -0.082,-0.115 -0.082,-0.2c0,-0.084 0.026,-0.152 0.079,-0.204c0.052,-0.052 0.12,-0.077 0.204,-0.077c0.081,0 0.143,0.024 0.187,0.073c0.043,0.048 0.065,0.117 0.065,0.206l0,0.028l-0.384,0c0.005,0.029 0.011,0.051 0.019,0.066c0.029,0.058 0.085,0.086 0.169,0.086c0.054,0 0.121,-0.013 0.201,-0.041Zm-0.386,-0.195l0.235,0c-0.001,-0.039 -0.009,-0.07 -0.025,-0.093c-0.02,-0.029 -0.049,-0.044 -0.087,-0.044c-0.041,0 -0.073,0.016 -0.096,0.048c-0.016,0.022 -0.025,0.052 -0.027,0.089Z" style="fill:#00b27d;fill-rule:nonzero;"/></g><g transform="matrix(12.0455,0,0,12.0455,178.731,41.2625)"><path d="M0.027,0l0,-0.084l0.121,0l0,-0.362l-0.121,0l0,-0.084l0.265,0l0,0.078c0.022,-0.026 0.042,-0.047 0.063,-0.06c0.03,-0.02 0.062,-0.03 0.098,-0.03c0.039,0 0.079,0.009 0.12,0.026l0,0.173l-0.084,0l-0.012,-0.074c-0.018,-0.01 -0.036,-0.015 -0.053,-0.015c-0.039,0 -0.083,0.03 -0.132,0.09l0,0.258l0.157,0l0,0.084l-0.422,0Z" style="fill:#00b27d;fill-rule:nonzero;"/></g><g transform="matrix(12.0455,0,0,12.0455,185.96,41.2625)"><path d="M0.059,0l0,-0.084l0.132,0l0,-0.344l-0.132,0l0,-0.09l0.132,0l0,-0.045c0,-0.147 0.078,-0.22 0.234,-0.22c0.053,0 0.108,0.012 0.165,0.037l0,0.125l-0.082,0l-0.012,-0.059c-0.025,-0.012 -0.049,-0.018 -0.072,-0.018c-0.059,0 -0.089,0.043 -0.089,0.13l0,0.05l0.203,0l0,0.09l-0.203,0l0,0.344l0.155,0l0,0.084l-0.431,0Z" style="fill:#00b27d;fill-rule:nonzero;"/></g><g transform="matrix(12.0455,0,0,12.0455,193.188,41.2625)"><path d="M0.078,-0.377l0,-0.124c0.083,-0.027 0.16,-0.041 0.232,-0.041c0.075,0 0.129,0.011 0.162,0.033c0.033,0.022 0.049,0.06 0.049,0.112l0,0.313l0.055,0l0,0.084l-0.18,0l-0.019,-0.051c-0.051,0.042 -0.106,0.063 -0.168,0.063c-0.05,0 -0.091,-0.014 -0.121,-0.042c-0.031,-0.027 -0.046,-0.064 -0.046,-0.11c0,-0.06 0.025,-0.106 0.075,-0.138c0.05,-0.031 0.122,-0.047 0.216,-0.047l0.044,0l0,-0.055c0,-0.03 -0.007,-0.051 -0.02,-0.062c-0.013,-0.011 -0.038,-0.017 -0.072,-0.017c-0.042,0 -0.079,0.008 -0.113,0.025l-0.009,0.057l-0.085,0Zm0.299,0.234l0,-0.11l-0.022,0c-0.05,0 -0.09,0.01 -0.12,0.029c-0.03,0.019 -0.046,0.044 -0.046,0.076c0,0.043 0.023,0.065 0.069,0.065c0.042,0 0.082,-0.02 0.119,-0.06Z" style="fill:#00b27d;fill-rule:nonzero;"/></g><g transform="matrix(12.0455,0,0,12.0455,200.417,41.2625)"><path d="M0.576,-0.13l0,0.105c-0.077,0.025 -0.149,0.037 -0.218,0.037c-0.103,0 -0.183,-0.024 -0.241,-0.073c-0.058,-0.049 -0.087,-0.117 -0.087,-0.203c0,-0.085 0.03,-0.153 0.09,-0.203c0.06,-0.05 0.141,-0.075 0.245,-0.075c0.068,0 0.136,0.009 0.205,0.026l0,0.179l-0.084,0l-0.012,-0.1c-0.037,-0.015 -0.074,-0.022 -0.114,-0.022c-0.118,0 -0.176,0.06 -0.176,0.18c0,0.067 0.018,0.117 0.055,0.15c0.034,0.03 0.082,0.045 0.144,0.045c0.048,0 0.112,-0.015 0.193,-0.046Z" style="fill:#00b27d;fill-rule:nonzero;"/></g><g transform="matrix(12.0455,0,0,12.0455,207.645,41.2625)"><path d="M0.57,-0.124l0,0.099c-0.078,0.025 -0.155,0.037 -0.229,0.037c-0.098,0 -0.174,-0.024 -0.229,-0.073c-0.054,-0.049 -0.082,-0.115 -0.082,-0.2c0,-0.084 0.026,-0.152 0.079,-0.204c0.052,-0.052 0.12,-0.077 0.204,-0.077c0.081,0 0.143,0.024 0.187,0.073c0.043,0.048 0.065,0.117 0.065,0.206l0,0.028l-0.384,0c0.005,0.029 0.011,0.051 0.019,0.066c0.029,0.058 0.085,0.086 0.169,0.086c0.054,0 0.121,-0.013 0.201,-0.041Zm-0.386,-0.195l0.235,0c-0.001,-0.039 -0.009,-0.07 -0.025,-0.093c-0.02,-0.029 -0.049,-0.044 -0.087,-0.044c-0.041,0 -0.073,0.016 -0.096,0.048c-0.016,0.022 -0.025,0.052 -0.027,0.089Z" style="fill:#00b27d;fill-rule:nonzero;"/></g><g transform="matrix(12.0455,0,0,12.0455,222.102,41.2625)"><path d="M0.071,-0.355l0.041,0c0.08,0 0.119,-0.025 0.119,-0.073c0,-0.014 -0.002,-0.031 -0.007,-0.052l-0.017,-0.076c-0.006,-0.026 -0.009,-0.049 -0.009,-0.071c0,-0.052 0.019,-0.089 0.058,-0.111c0.039,-0.022 0.104,-0.033 0.195,-0.033l0.06,0l0,0.084l-0.047,0c-0.084,0 -0.126,0.019 -0.126,0.057c0,0.01 0.002,0.024 0.006,0.043l0.011,0.052c0.006,0.027 0.009,0.053 0.009,0.077c0,0.04 -0.014,0.073 -0.042,0.1c-0.017,0.016 -0.042,0.031 -0.074,0.045c0.035,0.013 0.061,0.028 0.078,0.046c0.025,0.025 0.038,0.058 0.038,0.098c0,0.025 -0.003,0.051 -0.009,0.078l-0.011,0.052c-0.004,0.018 -0.006,0.033 -0.006,0.044c0,0.037 0.042,0.055 0.126,0.055l0.047,0l0,0.085l-0.06,0c-0.091,0 -0.156,-0.012 -0.195,-0.034c-0.039,-0.022 -0.058,-0.059 -0.058,-0.111c0,-0.021 0.003,-0.045 0.009,-0.07l0.017,-0.076c0.005,-0.022 0.007,-0.039 0.007,-0.053c0,-0.048 -0.039,-0.072 -0.119,-0.072l-0.041,0l0,-0.084Z" style="fill:#4a5159;fill-rule:nonzero;"/></g><g transform="matrix(12.0455,0,0,12.0455,77.3899,53.308)"><path d="M0.018,0l0,-0.084l0.072,0l0,-0.555l-0.072,0l0,-0.084l0.548,0l0,0.181l-0.09,0l0,-0.097l-0.241,0l0,0.26l0.139,0l0,-0.061l0.084,0l0,0.205l-0.084,0l0,-0.06l-0.139,0l0,0.205l0.097,0l0,0.09l-0.314,0Z" style="fill:#007cc2;fill-rule:nonzero;"/></g><g transform="matrix(12.0455,0,0,12.0455,84.6184,53.308)"><path d="M0.015,-0.446l0,-0.084l0.191,0l0,0.315c0,0.045 0.004,0.076 0.013,0.092c0.009,0.016 0.026,0.024 0.052,0.024c0.037,0 0.077,-0.028 0.121,-0.084l0,-0.263l-0.059,0l0,-0.084l0.198,0l0,0.446l0.051,0l0,0.084l-0.19,0l0,-0.078c-0.029,0.032 -0.055,0.055 -0.078,0.068c-0.026,0.015 -0.061,0.022 -0.105,0.022c-0.051,0 -0.088,-0.014 -0.11,-0.041c-0.022,-0.028 -0.033,-0.074 -0.033,-0.138l0,-0.279l-0.051,0Z" style="fill:#007cc2;fill-rule:nonzero;"/></g><g transform="matrix(12.0455,0,0,12.0455,91.8469,53.308)"><path d="M0.022,0l0,-0.084l0.051,0l0,-0.362l-0.051,0l0,-0.084l0.19,0l0,0.078c0.028,-0.032 0.053,-0.055 0.076,-0.068c0.026,-0.015 0.061,-0.022 0.104,-0.022c0.051,0 0.088,0.014 0.109,0.042c0.022,0.027 0.033,0.072 0.033,0.136l0,0.28l0.049,0l0,0.084l-0.188,0l0,-0.315c0,-0.046 -0.005,-0.077 -0.014,-0.092c-0.009,-0.016 -0.025,-0.024 -0.049,-0.024c-0.037,0 -0.077,0.028 -0.12,0.084l0,0.263l0.059,0l0,0.084l-0.249,0Z" style="fill:#007cc2;fill-rule:nonzero;"/></g><g transform="matrix(12.0455,0,0,12.0455,99.0754,53.308)"><path d="M0.576,-0.13l0,0.105c-0.077,0.025 -0.149,0.037 -0.218,0.037c-0.103,0 -0.183,-0.024 -0.241,-0.073c-0.058,-0.049 -0.087,-0.117 -0.087,-0.203c0,-0.085 0.03,-0.153 0.09,-0.203c0.06,-0.05 0.141,-0.075 0.245,-0.075c0.068,0 0.136,0.009 0.205,0.026l0,0.179l-0.084,0l-0.012,-0.1c-0.037,-0.015 -0.074,-0.022 -0.114,-0.022c-0.118,0 -0.176,0.06 -0.176,0.18c0,0.067 0.018,0.117 0.055,0.15c0.034,0.03 0.082,0.045 0.144,0.045c0.048,0 0.112,-0.015 0.193,-0.046Z" style="fill:#007cc2;fill-rule:nonzero;"/></g><g transform="matrix(12.0455,0,0,12.0455,106.304,53.308)"><path d="M0.072,0l0,-0.084l0.177,0l0,-0.508l-0.177,0.071l0,-0.091l0.322,-0.129l0,0.657l0.177,0l0,0.084l-0.499,0Z" style="fill:#007cc2;fill-rule:nonzero;"/></g><g transform="matrix(12.0455,0,0,12.0455,113.532,53.308)"><path d="M0.504,0.145c-0.075,-0.002 -0.144,-0.023 -0.206,-0.063c-0.136,-0.088 -0.204,-0.219 -0.204,-0.394c0,-0.151 0.053,-0.272 0.158,-0.365c0.042,-0.037 0.088,-0.063 0.139,-0.078c0.031,-0.009 0.069,-0.015 0.113,-0.016l0,0.084c-0.075,0.014 -0.135,0.048 -0.178,0.101c-0.058,0.07 -0.087,0.161 -0.087,0.274c0,0.118 0.032,0.213 0.097,0.284c0.043,0.048 0.099,0.077 0.168,0.088l0,0.085Z" style="fill:#4a5159;fill-rule:nonzero;"/></g><g transform="matrix(12.0455,0,0,12.0455,120.761,53.308)"><path d="M0.078,-0.377l0,-0.124c0.083,-0.027 0.16,-0.041 0.232,-0.041c0.075,0 0.129,0.011 0.162,0.033c0.033,0.022 0.049,0.06 0.049,0.112l0,0.313l0.055,0l0,0.084l-0.18,0l-0.019,-0.051c-0.051,0.042 -0.106,0.063 -0.168,0.063c-0.05,0 -0.091,-0.014 -0.121,-0.042c-0.031,-0.027 -0.046,-0.064 -0.046,-0.11c0,-0.06 0.025,-0.106 0.075,-0.138c0.05,-0.031 0.122,-0.047 0.216,-0.047l0.044,0l0,-0.055c0,-0.03 -0.007,-0.051 -0.02,-0.062c-0.013,-0.011 -0.038,-0.017 -0.072,-0.017c-0.042,0 -0.079,0.008 -0.113,0.025l-0.009,0.057l-0.085,0Zm0.299,0.234l0,-0.11l-0.022,0c-0.05,0 -0.09,0.01 -0.12,0.029c-0.03,0.019 -0.046,0.044 -0.046,0.076c0,0.043 0.023,0.065 0.069,0.065c0.042,0 0.082,-0.02 0.119,-0.06Z" style="fill:#4a5159;fill-rule:nonzero;"/></g><g transform="matrix(12.0455,0,0,12.0455,135.218,53.308)"><path d="M0.091,-0.025l0,-0.156l0.085,0l0.012,0.073c0.048,0.024 0.09,0.036 0.126,0.036c0.054,0 0.08,-0.019 0.08,-0.057c0,-0.019 -0.006,-0.034 -0.018,-0.044c-0.011,-0.01 -0.034,-0.02 -0.066,-0.03l-0.071,-0.02c-0.105,-0.03 -0.157,-0.082 -0.157,-0.157c0,-0.058 0.023,-0.101 0.07,-0.129c0.038,-0.022 0.092,-0.033 0.161,-0.033c0.065,0 0.128,0.01 0.19,0.029l0,0.152l-0.084,0l-0.012,-0.077c-0.033,-0.013 -0.067,-0.02 -0.102,-0.02c-0.057,0 -0.085,0.02 -0.085,0.061c0,0.018 0.007,0.031 0.02,0.039c0.012,0.006 0.034,0.015 0.066,0.025l0.082,0.025c0.054,0.016 0.091,0.036 0.112,0.058c0.021,0.022 0.032,0.052 0.032,0.09c0,0.054 -0.019,0.097 -0.058,0.127c-0.038,0.03 -0.092,0.045 -0.162,0.045c-0.064,0 -0.138,-0.012 -0.221,-0.037Z" style="fill:#00b27d;fill-rule:nonzero;"/></g><g transform="matrix(12.0455,0,0,12.0455,142.446,53.308)"><path d="M0.042,-0.434l0,-0.084l0.126,0l0,-0.132l0.145,0l0,0.132l0.221,0l0,0.084l-0.221,0l0,0.232c0,0.043 0.006,0.073 0.016,0.088c0.01,0.016 0.029,0.024 0.057,0.024c0.036,0 0.084,-0.014 0.144,-0.042l0,0.099c-0.069,0.03 -0.13,0.045 -0.183,0.045c-0.063,0 -0.108,-0.016 -0.137,-0.049c-0.028,-0.033 -0.042,-0.086 -0.042,-0.161l0,-0.236l-0.126,0Z" style="fill:#00b27d;fill-rule:nonzero;"/></g><g transform="matrix(12.0455,0,0,12.0455,149.675,53.308)"><path d="M0.027,0l0,-0.084l0.121,0l0,-0.362l-0.121,0l0,-0.084l0.265,0l0,0.078c0.022,-0.026 0.042,-0.047 0.063,-0.06c0.03,-0.02 0.062,-0.03 0.098,-0.03c0.039,0 0.079,0.009 0.12,0.026l0,0.173l-0.084,0l-0.012,-0.074c-0.018,-0.01 -0.036,-0.015 -0.053,-0.015c-0.039,0 -0.083,0.03 -0.132,0.09l0,0.258l0.157,0l0,0.084l-0.422,0Z" style="fill:#00b27d;fill-rule:nonzero;"/></g><g transform="matrix(12.0455,0,0,12.0455,156.903,53.308)"><path d="M0.068,0l0,-0.084l0.181,0l0,-0.362l-0.181,0l0,-0.084l0.326,0l0,0.446l0.18,0l0,0.084l-0.506,0Zm0.181,-0.626l0,-0.145l0.145,0l0,0.145l-0.145,0Z" style="fill:#00b27d;fill-rule:nonzero;"/></g><g transform="matrix(12.0455,0,0,12.0455,164.132,53.308)"><path d="M0.022,0l0,-0.084l0.051,0l0,-0.362l-0.051,0l0,-0.084l0.19,0l0,0.078c0.028,-0.032 0.053,-0.055 0.076,-0.068c0.026,-0.015 0.061,-0.022 0.104,-0.022c0.051,0 0.088,0.014 0.109,0.042c0.022,0.027 0.033,0.072 0.033,0.136l0,0.28l0.049,0l0,0.084l-0.188,0l0,-0.315c0,-0.046 -0.005,-0.077 -0.014,-0.092c-0.009,-0.016 -0.025,-0.024 -0.049,-0.024c-0.037,0 -0.077,0.028 -0.12,0.084l0,0.263l0.059,0l0,0.084l-0.249,0Z" style="fill:#00b27d;fill-rule:nonzero;"/></g><g transform="matrix(12.0455,0,0,12.0455,171.36,53.308)"><path d="M0.39,-0.431l-0.014,-0.004c-0.027,-0.006 -0.051,-0.01 -0.074,-0.01c-0.084,0 -0.127,0.052 -0.127,0.154c0,0.092 0.029,0.138 0.087,0.138c0.047,0 0.09,-0.028 0.128,-0.083l0,-0.195Zm0,-0.099l0.193,0l0,0.084l-0.049,0l0,0.395c0,0.084 -0.02,0.146 -0.059,0.187c-0.039,0.041 -0.107,0.064 -0.204,0.069c-0.061,0 -0.129,-0.01 -0.204,-0.031l0,-0.162l0.085,0l0.012,0.077c0.035,0.022 0.074,0.034 0.116,0.034c0.054,-0.005 0.087,-0.024 0.097,-0.057c0.009,-0.025 0.013,-0.061 0.013,-0.109l0,-0.089c-0.049,0.06 -0.104,0.09 -0.167,0.09c-0.062,0 -0.11,-0.023 -0.144,-0.069c-0.032,-0.042 -0.049,-0.097 -0.049,-0.163c0,-0.076 0.023,-0.14 0.068,-0.191c0.045,-0.052 0.109,-0.077 0.191,-0.077c0.03,0 0.063,0.004 0.101,0.012Z" style="fill:#00b27d;fill-rule:nonzero;"/></g><g transform="matrix(12.0455,0,0,12.0455,178.589,53.308)"><path d="M0.096,-0.771c0.075,0.002 0.144,0.023 0.206,0.063c0.136,0.087 0.204,0.219 0.204,0.394c0,0.15 -0.053,0.272 -0.158,0.364c-0.042,0.037 -0.088,0.063 -0.139,0.078c-0.031,0.01 -0.069,0.015 -0.113,0.017l0,-0.085c0.075,-0.014 0.135,-0.047 0.178,-0.1c0.058,-0.07 0.087,-0.161 0.087,-0.274c0,-0.118 -0.032,-0.213 -0.097,-0.285c-0.043,-0.047 -0.099,-0.076 -0.168,-0.088l0,-0.084Z" style="fill:#4a5159;fill-rule:nonzero;"/></g><g transform="matrix(12.0455,0,0,12.0455,193.046,53.308)"><path d="M0.504,0.145c-0.075,-0.002 -0.144,-0.023 -0.206,-0.063c-0.136,-0.088 -0.204,-0.219 -0.204,-0.394c0,-0.151 0.053,-0.272 0.158,-0.365c0.042,-0.037 0.088,-0.063 0.139,-0.078c0.031,-0.009 0.069,-0.015 0.113,-0.016l0,0.084c-0.075,0.014 -0.135,0.048 -0.178,0.101c-0.058,0.07 -0.087,0.161 -0.087,0.274c0,0.118 0.032,0.213 0.097,0.284c0.043,0.048 0.099,0.077 0.168,0.088l0,0.085Z" style="fill:#4a5159;fill-rule:nonzero;"/></g><g transform="matrix(12.0455,0,0,12.0455,200.274,53.308)"><path d="M0.068,0l0,-0.084l0.181,0l0,-0.362l-0.181,0l0,-0.084l0.326,0l0,0.446l0.18,0l0,0.084l-0.506,0Zm0.181,-0.626l0,-0.145l0.145,0l0,0.145l-0.145,0Z" style="fill:#00b27d;fill-rule:nonzero;"/></g><g transform="matrix(12.0455,0,0,12.0455,207.503,53.308)"><path d="M0.022,0l0,-0.084l0.051,0l0,-0.362l-0.051,0l0,-0.084l0.19,0l0,0.078c0.028,-0.032 0.053,-0.055 0.076,-0.068c0.026,-0.015 0.061,-0.022 0.104,-0.022c0.051,0 0.088,0.014 0.109,0.042c0.022,0.027 0.033,0.072 0.033,0.136l0,0.28l0.049,0l0,0.084l-0.188,0l0,-0.315c0,-0.046 -0.005,-0.077 -0.014,-0.092c-0.009,-0.016 -0.025,-0.024 -0.049,-0.024c-0.037,0 -0.077,0.028 -0.12,0.084l0,0.263l0.059,0l0,0.084l-0.249,0Z" style="fill:#00b27d;fill-rule:nonzero;"/></g><g transform="matrix(12.0455,0,0,12.0455,214.731,53.308)"><path d="M0.042,-0.434l0,-0.084l0.126,0l0,-0.132l0.145,0l0,0.132l0.221,0l0,0.084l-0.221,0l0,0.232c0,0.043 0.006,0.073 0.016,0.088c0.01,0.016 0.029,0.024 0.057,0.024c0.036,0 0.084,-0.014 0.144,-0.042l0,0.099c-0.069,0.03 -0.13,0.045 -0.183,0.045c-0.063,0 -0.108,-0.016 -0.137,-0.049c-0.028,-0.033 -0.042,-0.086 -0.042,-0.161l0,-0.236l-0.126,0Z" style="fill:#00b27d;fill-rule:nonzero;"/></g><g transform="matrix(12.0455,0,0,12.0455,221.96,53.308)"><path d="M0.211,0l0,-0.178l0.178,0l0,0.148c0,0.091 -0.011,0.151 -0.035,0.18c-0.022,0.029 -0.067,0.043 -0.133,0.043l-0.01,0l0,-0.06l0.007,0c0.031,0 0.049,-0.011 0.056,-0.032c0.005,-0.017 0.008,-0.05 0.008,-0.101l-0.071,0Z" style="fill-rule:nonzero;"/></g><g transform="matrix(12.0455,0,0,12.0455,236.417,53.308)"><path d="M0.57,-0.124l0,0.099c-0.078,0.025 -0.155,0.037 -0.229,0.037c-0.098,0 -0.174,-0.024 -0.229,-0.073c-0.054,-0.049 -0.082,-0.115 -0.082,-0.2c0,-0.084 0.026,-0.152 0.079,-0.204c0.052,-0.052 0.12,-0.077 0.204,-0.077c0.081,0 0.143,0.024 0.187,0.073c0.043,0.048 0.065,0.117 0.065,0.206l0,0.028l-0.384,0c0.005,0.029 0.011,0.051 0.019,0.066c0.029,0.058 0.085,0.086 0.169,0.086c0.054,0 0.121,-0.013 0.201,-0.041Zm-0.386,-0.195l0.235,0c-0.001,-0.039 -0.009,-0.07 -0.025,-0.093c-0.02,-0.029 -0.049,-0.044 -0.087,-0.044c-0.041,0 -0.073,0.016 -0.096,0.048c-0.016,0.022 -0.025,0.052 -0.027,0.089Z" style="fill:#00b27d;fill-rule:nonzero;"/></g><g transform="matrix(12.0455,0,0,12.0455,243.645,53.308)"><path d="M0.027,0l0,-0.084l0.121,0l0,-0.362l-0.121,0l0,-0.084l0.265,0l0,0.078c0.022,-0.026 0.042,-0.047 0.063,-0.06c0.03,-0.02 0.062,-0.03 0.098,-0.03c0.039,0 0.079,0.009 0.12,0.026l0,0.173l-0.084,0l-0.012,-0.074c-0.018,-0.01 -0.036,-0.015 -0.053,-0.015c-0.039,0 -0.083,0.03 -0.132,0.09l0,0.258l0.157,0l0,0.084l-0.422,0Z" style="fill:#00b27d;fill-rule:nonzero;"/></g><g transform="matrix(12.0455,0,0,12.0455,250.874,53.308)"><path d="M0.027,0l0,-0.084l0.121,0l0,-0.362l-0.121,0l0,-0.084l0.265,0l0,0.078c0.022,-0.026 0.042,-0.047 0.063,-0.06c0.03,-0.02 0.062,-0.03 0.098,-0.03c0.039,0 0.079,0.009 0.12,0.026l0,0.173l-0.084,0l-0.012,-0.074c-0.018,-0.01 -0.036,-0.015 -0.053,-0.015c-0.039,0 -0.083,0.03 -0.132,0.09l0,0.258l0.157,0l0,0.084l-0.422,0Z" style="fill:#00b27d;fill-rule:nonzero;"/></g><g transform="matrix(12.0455,0,0,12.0455,258.102,53.308)"><path d="M0.3,-0.542c0.079,0 0.144,0.026 0.195,0.077c0.05,0.052 0.075,0.118 0.075,0.2c0,0.082 -0.025,0.149 -0.075,0.2c-0.051,0.051 -0.117,0.077 -0.198,0.077c-0.07,0 -0.129,-0.021 -0.177,-0.063c-0.06,-0.054 -0.09,-0.125 -0.09,-0.214c0,-0.082 0.025,-0.148 0.075,-0.2c0.051,-0.051 0.116,-0.077 0.195,-0.077Zm0,0.084c-0.036,0 -0.064,0.017 -0.086,0.052c-0.021,0.035 -0.032,0.082 -0.032,0.141c0,0.058 0.01,0.105 0.032,0.14c0.022,0.035 0.05,0.053 0.086,0.053c0.036,-0.002 0.065,-0.02 0.086,-0.054c0.022,-0.035 0.033,-0.081 0.033,-0.139c0,-0.059 -0.011,-0.106 -0.033,-0.141c-0.021,-0.035 -0.05,-0.052 -0.086,-0.052Z" style="fill:#00b27d;fill-rule:nonzero;"/></g><g transform="matrix(12.0455,0,0,12.0455,265.331,53.308)"><path d="M0.027,0l0,-0.084l0.121,0l0,-0.362l-0.121,0l0,-0.084l0.265,0l0,0.078c0.022,-0.026 0.042,-0.047 0.063,-0.06c0.03,-0.02 0.062,-0.03 0.098,-0.03c0.039,0 0.079,0.009 0.12,0.026l0,0.173l-0.084,0l-0.012,-0.074c-0.018,-0.01 -0.036,-0.015 -0.053,-0.015c-0.039,0 -0.083,0.03 -0.132,0.09l0,0.258l0.157,0l0,0.084l-0.422,0Z" style="fill:#00b27d;fill-rule:nonzero;"/></g><g transform="matrix(12.0455,0,0,12.0455,272.559,53.308)"><path d="M0.096,-0.771c0.075,0.002 0.144,0.023 0.206,0.063c0.136,0.087 0.204,0.219 0.204,0.394c0,0.15 -0.053,0.272 -0.158,0.364c-0.042,0.037 -0.088,0.063 -0.139,0.078c-0.031,0.01 -0.069,0.015 -0.113,0.017l0,-0.085c0.075,-0.014 0.135,-0.047 0.178,-0.1c0.058,-0.07 0.087,-0.161 0.087,-0.274c0,-0.118 -0.032,-0.213 -0.097,-0.285c-0.043,-0.047 -0.099,-0.076 -0.168,-0.088l0,-0.084Z" style="fill:#4a5159;fill-rule:nonzero;"/></g><g transform="matrix(12.0455,0,0,12.0455,41.3899,65.3535)"><path d="M0.529,-0.271l-0.04,0c-0.08,0 -0.12,0.024 -0.12,0.073c0,0.013 0.003,0.03 0.007,0.052l0.018,0.076c0.006,0.026 0.009,0.05 0.009,0.072c0,0.051 -0.019,0.087 -0.059,0.109c-0.039,0.022 -0.104,0.034 -0.194,0.034l-0.061,0l0,-0.085l0.048,0c0.084,0 0.126,-0.018 0.126,-0.056c0,-0.009 -0.002,-0.023 -0.006,-0.043l-0.011,-0.053c-0.006,-0.027 -0.009,-0.053 -0.009,-0.076c0,-0.04 0.014,-0.073 0.042,-0.1c0.017,-0.016 0.041,-0.032 0.074,-0.046c-0.035,-0.013 -0.061,-0.028 -0.079,-0.045c-0.025,-0.026 -0.037,-0.059 -0.037,-0.099c0,-0.024 0.003,-0.05 0.009,-0.077l0.011,-0.052c0.004,-0.02 0.006,-0.035 0.006,-0.044c0,-0.037 -0.042,-0.056 -0.126,-0.056l-0.048,0l0,-0.084l0.061,0c0.091,0 0.156,0.011 0.195,0.033c0.039,0.022 0.058,0.059 0.058,0.111c0,0.02 -0.003,0.044 -0.009,0.071l-0.018,0.076c-0.004,0.021 -0.007,0.039 -0.007,0.053c0,0.048 0.04,0.072 0.12,0.072l0.04,0l0,0.084Z" style="fill:#4a5159;fill-rule:nonzero;"/></g></g><g transform="matrix(0.998486,0,0,1,443.05,-20.8169)"><g transform="matrix(11,0,0,11,41.3899,41.2625)"><path d="M0.042,-0.434l0,-0.084l0.126,0l0,-0.132l0.145,0l0,0.132l0.221,0l0,0.084l-0.221,0l0,0.232c0,0.043 0.006,0.073 0.016,0.088c0.01,0.016 0.029,0.024 0.057,0.024c0.036,0 0.084,-0.014 0.144,-0.042l0,0.099c-0.069,0.03 -0.13,0.045 -0.183,0.045c-0.063,0 -0.108,-0.016 -0.137,-0.049c-0.028,-0.033 -0.042,-0.086 -0.042,-0.161l0,-0.236l-0.126,0Z" style="fill:#00b27d;fill-rule:nonzero;"/></g><g transform="matrix(11,0,0,11,47.991,41.2625)"><path d="M0.246,-0.016l-0.191,-0.43l-0.049,0l0,-0.084l0.28,0l0,0.084l-0.067,0l0.112,0.253l0.116,-0.253l-0.067,0l0,-0.084l0.214,0l0,0.084l-0.05,0l-0.257,0.554l0.098,0l0,0.085l-0.334,0l0,-0.085l0.096,0l0.099,-0.124Z" style="fill:#00b27d;fill-rule:nonzero;"/></g><g transform="matrix(11,0,0,11,54.5921,41.2625)"><path d="M0.022,-0.446l0,-0.084l0.186,0l0,0.078c0.05,-0.06 0.106,-0.09 0.169,-0.09c0.059,0 0.105,0.023 0.14,0.07c0.035,0.046 0.052,0.11 0.052,0.189c0,0.094 -0.022,0.167 -0.067,0.218c-0.045,0.051 -0.109,0.077 -0.191,0.077c-0.03,0 -0.064,-0.004 -0.103,-0.012l0,0.108l0.063,0l0,0.085l-0.249,0l0,-0.085l0.049,0l0,-0.554l-0.049,0Zm0.186,0.35l0.016,0.004c0.027,0.006 0.051,0.009 0.074,0.009c0.085,0 0.127,-0.061 0.127,-0.184c0,-0.112 -0.032,-0.168 -0.096,-0.168c-0.041,0 -0.081,0.029 -0.121,0.087l0,0.252Z" style="fill:#00b27d;fill-rule:nonzero;"/></g><g transform="matrix(11,0,0,11,61.1932,41.2625)"><path d="M0.57,-0.124l0,0.099c-0.078,0.025 -0.155,0.037 -0.229,0.037c-0.098,0 -0.174,-0.024 -0.229,-0.073c-0.054,-0.049 -0.082,-0.115 -0.082,-0.2c0,-0.084 0.026,-0.152 0.079,-0.204c0.052,-0.052 0.12,-0.077 0.204,-0.077c0.081,0 0.143,0.024 0.187,0.073c0.043,0.048 0.065,0.117 0.065,0.206l0,0.028l-0.384,0c0.005,0.029 0.011,0.051 0.019,0.066c0.029,0.058 0.085,0.086 0.169,0.086c0.054,0 0.121,-0.013 0.201,-0.041Zm-0.386,-0.195l0.235,0c-0.001,-0.039 -0.009,-0.07 -0.025,-0.093c-0.02,-0.029 -0.049,-0.044 -0.087,-0.044c-0.041,0 -0.073,0.016 -0.096,0.048c-0.016,0.022 -0.025,0.052 -0.027,0.089Z" style="fill:#00b27d;fill-rule:nonzero;"/></g><g transform="matrix(11,0,0,11,74.3953,41.2625)"><path d="M0.06,0l0,-0.084l0.168,0l0,-0.555l-0.168,0l0,-0.084l0.48,0l0,0.084l-0.168,0l0,0.555l0.168,0l0,0.084l-0.48,0Z" style="fill:#4a5159;fill-rule:nonzero;"/></g><g transform="matrix(11,0,0,11,80.9964,41.2625)"><path d="M0.051,0l0,-0.446l-0.039,0l0,-0.084l0.148,0l0,0.09c0.039,-0.068 0.079,-0.102 0.12,-0.102c0.04,0 0.065,0.034 0.074,0.102c0.035,-0.068 0.074,-0.102 0.117,-0.102c0.032,0 0.053,0.014 0.064,0.042c0.009,0.023 0.014,0.059 0.014,0.109l0,0.307l0.042,0l0,0.084l-0.151,0l0,-0.311l-0.001,-0.056c0,-0.046 -0.007,-0.069 -0.02,-0.069c-0.017,0 -0.038,0.035 -0.065,0.105l0,0.331l-0.108,0l0,-0.311l-0.001,-0.056c-0.001,-0.046 -0.007,-0.069 -0.02,-0.069c-0.017,0 -0.039,0.035 -0.065,0.105l0,0.331l-0.109,0Z" style="fill:#4a5159;fill-rule:nonzero;"/></g><g transform="matrix(11,0,0,11,87.5975,41.2625)"><path d="M0.022,-0.446l0,-0.084l0.186,0l0,0.078c0.05,-0.06 0.106,-0.09 0.169,-0.09c0.059,0 0.105,0.023 0.14,0.07c0.035,0.046 0.052,0.11 0.052,0.189c0,0.094 -0.022,0.167 -0.067,0.218c-0.045,0.051 -0.109,0.077 -0.191,0.077c-0.03,0 -0.064,-0.004 -0.103,-0.012l0,0.108l0.063,0l0,0.085l-0.249,0l0,-0.085l0.049,0l0,-0.554l-0.049,0Zm0.186,0.35l0.016,0.004c0.027,0.006 0.051,0.009 0.074,0.009c0.085,0 0.127,-0.061 0.127,-0.184c0,-0.112 -0.032,-0.168 -0.096,-0.168c-0.041,0 -0.081,0.029 -0.121,0.087l0,0.252Z" style="fill:#4a5159;fill-rule:nonzero;"/></g><g transform="matrix(11,0,0,11,94.1985,41.2625)"><path d="M0.034,-0.687l0,-0.084l0.301,0l0,0.535c0,0.022 0.001,0.041 0.002,0.059c0.001,0.018 0.004,0.034 0.009,0.046c0.006,0.013 0.014,0.023 0.026,0.03c0.011,0.008 0.027,0.011 0.047,0.011c0.009,0 0.019,0 0.028,-0.001c0.01,-0.001 0.02,-0.002 0.031,-0.005c0.011,-0.002 0.022,-0.005 0.034,-0.009c0.013,-0.004 0.023,-0.008 0.03,-0.012l0,0.098c-0.01,0.006 -0.024,0.011 -0.04,0.016c-0.016,0.004 -0.032,0.008 -0.047,0.01c-0.016,0.002 -0.031,0.004 -0.045,0.004c-0.014,0.001 -0.028,0.001 -0.041,0.001c-0.033,0 -0.061,-0.004 -0.084,-0.013c-0.022,-0.01 -0.041,-0.024 -0.055,-0.043c-0.014,-0.019 -0.024,-0.044 -0.03,-0.074c-0.006,-0.03 -0.01,-0.066 -0.01,-0.108l0,-0.461l-0.156,0Z" style="fill:#4a5159;fill-rule:nonzero;"/></g><g transform="matrix(11,0,0,11,107.401,41.2625)"><path d="M0.091,-0.025l0,-0.156l0.085,0l0.012,0.073c0.048,0.024 0.09,0.036 0.126,0.036c0.054,0 0.08,-0.019 0.08,-0.057c0,-0.019 -0.006,-0.034 -0.018,-0.044c-0.011,-0.01 -0.034,-0.02 -0.066,-0.03l-0.071,-0.02c-0.105,-0.03 -0.157,-0.082 -0.157,-0.157c0,-0.058 0.023,-0.101 0.07,-0.129c0.038,-0.022 0.092,-0.033 0.161,-0.033c0.065,0 0.128,0.01 0.19,0.029l0,0.152l-0.084,0l-0.012,-0.077c-0.033,-0.013 -0.067,-0.02 -0.102,-0.02c-0.057,0 -0.085,0.02 -0.085,0.061c0,0.018 0.007,0.031 0.02,0.039c0.012,0.006 0.034,0.015 0.066,0.025l0.082,0.025c0.054,0.016 0.091,0.036 0.112,0.058c0.021,0.022 0.032,0.052 0.032,0.09c0,0.054 -0.019,0.097 -0.058,0.127c-0.038,0.03 -0.092,0.045 -0.162,0.045c-0.064,0 -0.138,-0.012 -0.221,-0.037Z" style="fill:#00b27d;fill-rule:nonzero;"/></g><g transform="matrix(11,0,0,11,114.002,41.2625)"><path d="M0.042,-0.434l0,-0.084l0.126,0l0,-0.132l0.145,0l0,0.132l0.221,0l0,0.084l-0.221,0l0,0.232c0,0.043 0.006,0.073 0.016,0.088c0.01,0.016 0.029,0.024 0.057,0.024c0.036,0 0.084,-0.014 0.144,-0.042l0,0.099c-0.069,0.03 -0.13,0.045 -0.183,0.045c-0.063,0 -0.108,-0.016 -0.137,-0.049c-0.028,-0.033 -0.042,-0.086 -0.042,-0.161l0,-0.236l-0.126,0Z" style="fill:#00b27d;fill-rule:nonzero;"/></g><g transform="matrix(11,0,0,11,120.603,41.2625)"><path d="M0.027,0l0,-0.084l0.121,0l0,-0.362l-0.121,0l0,-0.084l0.265,0l0,0.078c0.022,-0.026 0.042,-0.047 0.063,-0.06c0.03,-0.02 0.062,-0.03 0.098,-0.03c0.039,0 0.079,0.009 0.12,0.026l0,0.173l-0.084,0l-0.012,-0.074c-0.018,-0.01 -0.036,-0.015 -0.053,-0.015c-0.039,0 -0.083,0.03 -0.132,0.09l0,0.258l0.157,0l0,0.084l-0.422,0Z" style="fill:#00b27d;fill-rule:nonzero;"/></g><g transform="matrix(11,0,0,11,127.204,41.2625)"><path d="M0.015,-0.446l0,-0.084l0.191,0l0,0.315c0,0.045 0.004,0.076 0.013,0.092c0.009,0.016 0.026,0.024 0.052,0.024c0.037,0 0.077,-0.028 0.121,-0.084l0,-0.263l-0.059,0l0,-0.084l0.198,0l0,0.446l0.051,0l0,0.084l-0.19,0l0,-0.078c-0.029,0.032 -0.055,0.055 -0.078,0.068c-0.026,0.015 -0.061,0.022 -0.105,0.022c-0.051,0 -0.088,-0.014 -0.11,-0.041c-0.022,-0.028 -0.033,-0.074 -0.033,-0.138l0,-0.279l-0.051,0Z" style="fill:#00b27d;fill-rule:nonzero;"/></g><g transform="matrix(11,0,0,11,133.805,41.2625)"><path d="M0.576,-0.13l0,0.105c-0.077,0.025 -0.149,0.037 -0.218,0.037c-0.103,0 -0.183,-0.024 -0.241,-0.073c-0.058,-0.049 -0.087,-0.117 -0.087,-0.203c0,-0.085 0.03,-0.153 0.09,-0.203c0.06,-0.05 0.141,-0.075 0.245,-0.075c0.068,0 0.136,0.009 0.205,0.026l0,0.179l-0.084,0l-0.012,-0.1c-0.037,-0.015 -0.074,-0.022 -0.114,-0.022c-0.118,0 -0.176,0.06 -0.176,0.18c0,0.067 0.018,0.117 0.055,0.15c0.034,0.03 0.082,0.045 0.144,0.045c0.048,0 0.112,-0.015 0.193,-0.046Z" style="fill:#00b27d;fill-rule:nonzero;"/></g><g transform="matrix(11,0,0,11,140.406,41.2625)"><path d="M0.042,-0.434l0,-0.084l0.126,0l0,-0.132l0.145,0l0,0.132l0.221,0l0,0.084l-0.221,0l0,0.232c0,0.043 0.006,0.073 0.016,0.088c0.01,0.016 0.029,0.024 0.057,0.024c0.036,0 0.084,-0.014 0.144,-0.042l0,0.099c-0.069,0.03 -0.13,0.045 -0.183,0.045c-0.063,0 -0.108,-0.016 -0.137,-0.049c-0.028,-0.033 -0.042,-0.086 -0.042,-0.161l0,-0.236l-0.126,0Z" style="fill:#00b27d;fill-rule:nonzero;"/></g><g transform="matrix(11,0,0,11,153.608,41.2625)"><path d="M0.071,-0.355l0.041,0c0.08,0 0.119,-0.025 0.119,-0.073c0,-0.014 -0.002,-0.031 -0.007,-0.052l-0.017,-0.076c-0.006,-0.026 -0.009,-0.049 -0.009,-0.071c0,-0.052 0.019,-0.089 0.058,-0.111c0.039,-0.022 0.104,-0.033 0.195,-0.033l0.06,0l0,0.084l-0.047,0c-0.084,0 -0.126,0.019 -0.126,0.057c0,0.01 0.002,0.024 0.006,0.043l0.011,0.052c0.006,0.027 0.009,0.053 0.009,0.077c0,0.04 -0.014,0.073 -0.042,0.1c-0.017,0.016 -0.042,0.031 -0.074,0.045c0.035,0.013 0.061,0.028 0.078,0.046c0.025,0.025 0.038,0.058 0.038,0.098c0,0.025 -0.003,0.051 -0.009,0.078l-0.011,0.052c-0.004,0.018 -0.006,0.033 -0.006,0.044c0,0.037 0.042,0.055 0.126,0.055l0.047,0l0,0.085l-0.06,0c-0.091,0 -0.156,-0.012 -0.195,-0.034c-0.039,-0.022 -0.058,-0.059 -0.058,-0.111c0,-0.021 0.003,-0.045 0.009,-0.07l0.017,-0.076c0.005,-0.022 0.007,-0.039 0.007,-0.053c0,-0.048 -0.039,-0.072 -0.119,-0.072l-0.041,0l0,-0.084Z" style="fill:#4a5159;fill-rule:nonzero;"/></g><g transform="matrix(11,0,0,11,77.3899,52.2625)"><path d="M0.018,0l0,-0.084l0.072,0l0,-0.555l-0.072,0l0,-0.084l0.548,0l0,0.181l-0.09,0l0,-0.097l-0.241,0l0,0.26l0.139,0l0,-0.061l0.084,0l0,0.205l-0.084,0l0,-0.06l-0.139,0l0,0.205l0.097,0l0,0.09l-0.314,0Z" style="fill:#f75c03;fill-rule:nonzero;"/></g><g transform="matrix(11,0,0,11,83.991,52.2625)"><path d="M0.015,-0.446l0,-0.084l0.191,0l0,0.315c0,0.045 0.004,0.076 0.013,0.092c0.009,0.016 0.026,0.024 0.052,0.024c0.037,0 0.077,-0.028 0.121,-0.084l0,-0.263l-0.059,0l0,-0.084l0.198,0l0,0.446l0.051,0l0,0.084l-0.19,0l0,-0.078c-0.029,0.032 -0.055,0.055 -0.078,0.068c-0.026,0.015 -0.061,0.022 -0.105,0.022c-0.051,0 -0.088,-0.014 -0.11,-0.041c-0.022,-0.028 -0.033,-0.074 -0.033,-0.138l0,-0.279l-0.051,0Z" style="fill:#f75c03;fill-rule:nonzero;"/></g><g transform="matrix(11,0,0,11,90.5921,52.2625)"><path d="M0.022,0l0,-0.084l0.051,0l0,-0.362l-0.051,0l0,-0.084l0.19,0l0,0.078c0.028,-0.032 0.053,-0.055 0.076,-0.068c0.026,-0.015 0.061,-0.022 0.104,-0.022c0.051,0 0.088,0.014 0.109,0.042c0.022,0.027 0.033,0.072 0.033,0.136l0,0.28l0.049,0l0,0.084l-0.188,0l0,-0.315c0,-0.046 -0.005,-0.077 -0.014,-0.092c-0.009,-0.016 -0.025,-0.024 -0.049,-0.024c-0.037,0 -0.077,0.028 -0.12,0.084l0,0.263l0.059,0l0,0.084l-0.249,0Z" style="fill:#f75c03;fill-rule:nonzero;"/></g><g transform="matrix(11,0,0,11,97.1932,52.2625)"><path d="M0.576,-0.13l0,0.105c-0.077,0.025 -0.149,0.037 -0.218,0.037c-0.103,0 -0.183,-0.024 -0.241,-0.073c-0.058,-0.049 -0.087,-0.117 -0.087,-0.203c0,-0.085 0.03,-0.153 0.09,-0.203c0.06,-0.05 0.141,-0.075 0.245,-0.075c0.068,0 0.136,0.009 0.205,0.026l0,0.179l-0.084,0l-0.012,-0.1c-0.037,-0.015 -0.074,-0.022 -0.114,-0.022c-0.118,0 -0.176,0.06 -0.176,0.18c0,0.067 0.018,0.117 0.055,0.15c0.034,0.03 0.082,0.045 0.144,0.045c0.048,0 0.112,-0.015 0.193,-0.046Z" style="fill:#f75c03;fill-rule:nonzero;"/></g><g transform="matrix(11,0,0,11,103.794,52.2625)"><path d="M0.072,0l0,-0.084l0.177,0l0,-0.508l-0.177,0.071l0,-0.091l0.322,-0.129l0,0.657l0.177,0l0,0.084l-0.499,0Z" style="fill:#f75c03;fill-rule:nonzero;"/></g><g transform="matrix(11,0,0,11,110.395,52.2625)"><path d="M0.018,0l0,-0.084l0.072,0l0,-0.555l-0.072,0l0,-0.084l0.548,0l0,0.181l-0.09,0l0,-0.097l-0.241,0l0,0.26l0.139,0l0,-0.061l0.084,0l0,0.205l-0.084,0l0,-0.06l-0.139,0l0,0.205l0.097,0l0,0.09l-0.314,0Z" style="fill:#f75c03;fill-rule:nonzero;"/></g><g transform="matrix(11,0,0,11,123.597,52.2625)"><path d="M0.059,0l0,-0.084l0.132,0l0,-0.344l-0.132,0l0,-0.09l0.132,0l0,-0.045c0,-0.147 0.078,-0.22 0.234,-0.22c0.053,0 0.108,0.012 0.165,0.037l0,0.125l-0.082,0l-0.012,-0.059c-0.025,-0.012 -0.049,-0.018 -0.072,-0.018c-0.059,0 -0.089,0.043 -0.089,0.13l0,0.05l0.203,0l0,0.09l-0.203,0l0,0.344l0.155,0l0,0.084l-0.431,0Z" style="fill:#00b27d;fill-rule:nonzero;"/></g><g transform="matrix(11,0,0,11,130.199,52.2625)"><path d="M0.015,-0.446l0,-0.084l0.191,0l0,0.315c0,0.045 0.004,0.076 0.013,0.092c0.009,0.016 0.026,0.024 0.052,0.024c0.037,0 0.077,-0.028 0.121,-0.084l0,-0.263l-0.059,0l0,-0.084l0.198,0l0,0.446l0.051,0l0,0.084l-0.19,0l0,-0.078c-0.029,0.032 -0.055,0.055 -0.078,0.068c-0.026,0.015 -0.061,0.022 -0.105,0.022c-0.051,0 -0.088,-0.014 -0.11,-0.041c-0.022,-0.028 -0.033,-0.074 -0.033,-0.138l0,-0.279l-0.051,0Z" style="fill:#00b27d;fill-rule:nonzero;"/></g><g transform="matrix(11,0,0,11,136.8,52.2625)"><path d="M0.022,0l0,-0.084l0.051,0l0,-0.362l-0.051,0l0,-0.084l0.19,0l0,0.078c0.028,-0.032 0.053,-0.055 0.076,-0.068c0.026,-0.015 0.061,-0.022 0.104,-0.022c0.051,0 0.088,0.014 0.109,0.042c0.022,0.027 0.033,0.072 0.033,0.136l0,0.28l0.049,0l0,0.084l-0.188,0l0,-0.315c0,-0.046 -0.005,-0.077 -0.014,-0.092c-0.009,-0.016 -0.025,-0.024 -0.049,-0.024c-0.037,0 -0.077,0.028 -0.12,0.084l0,0.263l0.059,0l0,0.084l-0.249,0Z" style="fill:#00b27d;fill-rule:nonzero;"/></g><g transform="matrix(11,0,0,11,143.401,52.2625)"><path d="M0.576,-0.13l0,0.105c-0.077,0.025 -0.149,0.037 -0.218,0.037c-0.103,0 -0.183,-0.024 -0.241,-0.073c-0.058,-0.049 -0.087,-0.117 -0.087,-0.203c0,-0.085 0.03,-0.153 0.09,-0.203c0.06,-0.05 0.141,-0.075 0.245,-0.075c0.068,0 0.136,0.009 0.205,0.026l0,0.179l-0.084,0l-0.012,-0.1c-0.037,-0.015 -0.074,-0.022 -0.114,-0.022c-0.118,0 -0.176,0.06 -0.176,0.18c0,0.067 0.018,0.117 0.055,0.15c0.034,0.03 0.082,0.045 0.144,0.045c0.048,0 0.112,-0.015 0.193,-0.046Z" style="fill:#00b27d;fill-rule:nonzero;"/></g><g transform="matrix(11,0,0,11,150.002,52.2625)"><path d="M0.504,0.145c-0.075,-0.002 -0.144,-0.023 -0.206,-0.063c-0.136,-0.088 -0.204,-0.219 -0.204,-0.394c0,-0.151 0.053,-0.272 0.158,-0.365c0.042,-0.037 0.088,-0.063 0.139,-0.078c0.031,-0.009 0.069,-0.015 0.113,-0.016l0,0.084c-0.075,0.014 -0.135,0.048 -0.178,0.101c-0.058,0.07 -0.087,0.161 -0.087,0.274c0,0.118 0.032,0.213 0.097,0.284c0.043,0.048 0.099,0.077 0.168,0.088l0,0.085Z" style="fill:#4a5159;fill-rule:nonzero;"/></g><g transform="matrix(11,0,0,11,156.603,52.2625)"><path d="M0.091,-0.025l0,-0.156l0.085,0l0.012,0.073c0.048,0.024 0.09,0.036 0.126,0.036c0.054,0 0.08,-0.019 0.08,-0.057c0,-0.019 -0.006,-0.034 -0.018,-0.044c-0.011,-0.01 -0.034,-0.02 -0.066,-0.03l-0.071,-0.02c-0.105,-0.03 -0.157,-0.082 -0.157,-0.157c0,-0.058 0.023,-0.101 0.07,-0.129c0.038,-0.022 0.092,-0.033 0.161,-0.033c0.065,0 0.128,0.01 0.19,0.029l0,0.152l-0.084,0l-0.012,-0.077c-0.033,-0.013 -0.067,-0.02 -0.102,-0.02c-0.057,0 -0.085,0.02 -0.085,0.061c0,0.018 0.007,0.031 0.02,0.039c0.012,0.006 0.034,0.015 0.066,0.025l0.082,0.025c0.054,0.016 0.091,0.036 0.112,0.058c0.021,0.022 0.032,0.052 0.032,0.09c0,0.054 -0.019,0.097 -0.058,0.127c-0.038,0.03 -0.092,0.045 -0.162,0.045c-0.064,0 -0.138,-0.012 -0.221,-0.037Z" style="fill:#00b27d;fill-rule:nonzero;"/></g><g transform="matrix(11,0,0,11,163.204,52.2625)"><path d="M0.042,-0.434l0,-0.084l0.126,0l0,-0.132l0.145,0l0,0.132l0.221,0l0,0.084l-0.221,0l0,0.232c0,0.043 0.006,0.073 0.016,0.088c0.01,0.016 0.029,0.024 0.057,0.024c0.036,0 0.084,-0.014 0.144,-0.042l0,0.099c-0.069,0.03 -0.13,0.045 -0.183,0.045c-0.063,0 -0.108,-0.016 -0.137,-0.049c-0.028,-0.033 -0.042,-0.086 -0.042,-0.161l0,-0.236l-0.126,0Z" style="fill:#00b27d;fill-rule:nonzero;"/></g><g transform="matrix(11,0,0,11,169.805,52.2625)"><path d="M0.027,0l0,-0.084l0.121,0l0,-0.362l-0.121,0l0,-0.084l0.265,0l0,0.078c0.022,-0.026 0.042,-0.047 0.063,-0.06c0.03,-0.02 0.062,-0.03 0.098,-0.03c0.039,0 0.079,0.009 0.12,0.026l0,0.173l-0.084,0l-0.012,-0.074c-0.018,-0.01 -0.036,-0.015 -0.053,-0.015c-0.039,0 -0.083,0.03 -0.132,0.09l0,0.258l0.157,0l0,0.084l-0.422,0Z" style="fill:#00b27d;fill-rule:nonzero;"/></g><g transform="matrix(11,0,0,11,176.406,52.2625)"><path d="M0.068,0l0,-0.084l0.181,0l0,-0.362l-0.181,0l0,-0.084l0.326,0l0,0.446l0.18,0l0,0.084l-0.506,0Zm0.181,-0.626l0,-0.145l0.145,0l0,0.145l-0.145,0Z" style="fill:#00b27d;fill-rule:nonzero;"/></g><g transform="matrix(11,0,0,11,183.007,52.2625)"><path d="M0.022,0l0,-0.084l0.051,0l0,-0.362l-0.051,0l0,-0.084l0.19,0l0,0.078c0.028,-0.032 0.053,-0.055 0.076,-0.068c0.026,-0.015 0.061,-0.022 0.104,-0.022c0.051,0 0.088,0.014 0.109,0.042c0.022,0.027 0.033,0.072 0.033,0.136l0,0.28l0.049,0l0,0.084l-0.188,0l0,-0.315c0,-0.046 -0.005,-0.077 -0.014,-0.092c-0.009,-0.016 -0.025,-0.024 -0.049,-0.024c-0.037,0 -0.077,0.028 -0.12,0.084l0,0.263l0.059,0l0,0.084l-0.249,0Z" style="fill:#00b27d;fill-rule:nonzero;"/></g><g transform="matrix(11,0,0,11,189.608,52.2625)"><path d="M0.39,-0.431l-0.014,-0.004c-0.027,-0.006 -0.051,-0.01 -0.074,-0.01c-0.084,0 -0.127,0.052 -0.127,0.154c0,0.092 0.029,0.138 0.087,0.138c0.047,0 0.09,-0.028 0.128,-0.083l0,-0.195Zm0,-0.099l0.193,0l0,0.084l-0.049,0l0,0.395c0,0.084 -0.02,0.146 -0.059,0.187c-0.039,0.041 -0.107,0.064 -0.204,0.069c-0.061,0 -0.129,-0.01 -0.204,-0.031l0,-0.162l0.085,0l0.012,0.077c0.035,0.022 0.074,0.034 0.116,0.034c0.054,-0.005 0.087,-0.024 0.097,-0.057c0.009,-0.025 0.013,-0.061 0.013,-0.109l0,-0.089c-0.049,0.06 -0.104,0.09 -0.167,0.09c-0.062,0 -0.11,-0.023 -0.144,-0.069c-0.032,-0.042 -0.049,-0.097 -0.049,-0.163c0,-0.076 0.023,-0.14 0.068,-0.191c0.045,-0.052 0.109,-0.077 0.191,-0.077c0.03,0 0.063,0.004 0.101,0.012Z" style="fill:#00b27d;fill-rule:nonzero;"/></g><g transform="matrix(11,0,0,11,196.209,52.2625)"><path d="M0.096,-0.771c0.075,0.002 0.144,0.023 0.206,0.063c0.136,0.087 0.204,0.219 0.204,0.394c0,0.15 -0.053,0.272 -0.158,0.364c-0.042,0.037 -0.088,0.063 -0.139,0.078c-0.031,0.01 -0.069,0.015 -0.113,0.017l0,-0.085c0.075,-0.014 0.135,-0.047 0.178,-0.1c0.058,-0.07 0.087,-0.161 0.087,-0.274c0,-0.118 -0.032,-0.213 -0.097,-0.285c-0.043,-0.047 -0.099,-0.076 -0.168,-0.088l0,-0.084Z" style="fill:#4a5159;fill-rule:nonzero;"/></g><g transform="matrix(11,0,0,11,209.411,52.2625)"><path d="M0.504,0.145c-0.075,-0.002 -0.144,-0.023 -0.206,-0.063c-0.136,-0.088 -0.204,-0.219 -0.204,-0.394c0,-0.151 0.053,-0.272 0.158,-0.365c0.042,-0.037 0.088,-0.063 0.139,-0.078c0.031,-0.009 0.069,-0.015 0.113,-0.016l0,0.084c-0.075,0.014 -0.135,0.048 -0.178,0.101c-0.058,0.07 -0.087,0.161 -0.087,0.274c0,0.118 0.032,0.213 0.097,0.284c0.043,0.048 0.099,0.077 0.168,0.088l0,0.085Z" style="fill:#4a5159;fill-rule:nonzero;"/></g><g transform="matrix(11,0,0,11,216.013,52.2625)"><path d="M0.068,0l0,-0.084l0.181,0l0,-0.362l-0.181,0l0,-0.084l0.326,0l0,0.446l0.18,0l0,0.084l-0.506,0Zm0.181,-0.626l0,-0.145l0.145,0l0,0.145l-0.145,0Z" style="fill:#00b27d;fill-rule:nonzero;"/></g><g transform="matrix(11,0,0,11,222.614,52.2625)"><path d="M0.022,0l0,-0.084l0.051,0l0,-0.362l-0.051,0l0,-0.084l0.19,0l0,0.078c0.028,-0.032 0.053,-0.055 0.076,-0.068c0.026,-0.015 0.061,-0.022 0.104,-0.022c0.051,0 0.088,0.014 0.109,0.042c0.022,0.027 0.033,0.072 0.033,0.136l0,0.28l0.049,0l0,0.084l-0.188,0l0,-0.315c0,-0.046 -0.005,-0.077 -0.014,-0.092c-0.009,-0.016 -0.025,-0.024 -0.049,-0.024c-0.037,0 -0.077,0.028 -0.12,0.084l0,0.263l0.059,0l0,0.084l-0.249,0Z" style="fill:#00b27d;fill-rule:nonzero;"/></g><g transform="matrix(11,0,0,11,229.215,52.2625)"><path d="M0.042,-0.434l0,-0.084l0.126,0l0,-0.132l0.145,0l0,0.132l0.221,0l0,0.084l-0.221,0l0,0.232c0,0.043 0.006,0.073 0.016,0.088c0.01,0.016 0.029,0.024 0.057,0.024c0.036,0 0.084,-0.014 0.144,-0.042l0,0.099c-0.069,0.03 -0.13,0.045 -0.183,0.045c-0.063,0 -0.108,-0.016 -0.137,-0.049c-0.028,-0.033 -0.042,-0.086 -0.042,-0.161l0,-0.236l-0.126,0Z" style="fill:#00b27d;fill-rule:nonzero;"/></g><g transform="matrix(11,0,0,11,235.816,52.2625)"><path d="M0.211,0l0,-0.178l0.178,0l0,0.148c0,0.091 -0.011,0.151 -0.035,0.18c-0.022,0.029 -0.067,0.043 -0.133,0.043l-0.01,0l0,-0.06l0.007,0c0.031,0 0.049,-0.011 0.056,-0.032c0.005,-0.017 0.008,-0.05 0.008,-0.101l-0.071,0Z" style="fill:#4a5159;fill-rule:nonzero;"/></g><g transform="matrix(11,0,0,11,249.018,52.2625)"><path d="M0.57,-0.124l0,0.099c-0.078,0.025 -0.155,0.037 -0.229,0.037c-0.098,0 -0.174,-0.024 -0.229,-0.073c-0.054,-0.049 -0.082,-0.115 -0.082,-0.2c0,-0.084 0.026,-0.152 0.079,-0.204c0.052,-0.052 0.12,-0.077 0.204,-0.077c0.081,0 0.143,0.024 0.187,0.073c0.043,0.048 0.065,0.117 0.065,0.206l0,0.028l-0.384,0c0.005,0.029 0.011,0.051 0.019,0.066c0.029,0.058 0.085,0.086 0.169,0.086c0.054,0 0.121,-0.013 0.201,-0.041Zm-0.386,-0.195l0.235,0c-0.001,-0.039 -0.009,-0.07 -0.025,-0.093c-0.02,-0.029 -0.049,-0.044 -0.087,-0.044c-0.041,0 -0.073,0.016 -0.096,0.048c-0.016,0.022 -0.025,0.052 -0.027,0.089Z" style="fill:#00b27d;fill-rule:nonzero;"/></g><g transform="matrix(11,0,0,11,255.619,52.2625)"><path d="M0.027,0l0,-0.084l0.121,0l0,-0.362l-0.121,0l0,-0.084l0.265,0l0,0.078c0.022,-0.026 0.042,-0.047 0.063,-0.06c0.03,-0.02 0.062,-0.03 0.098,-0.03c0.039,0 0.079,0.009 0.12,0.026l0,0.173l-0.084,0l-0.012,-0.074c-0.018,-0.01 -0.036,-0.015 -0.053,-0.015c-0.039,0 -0.083,0.03 -0.132,0.09l0,0.258l0.157,0l0,0.084l-0.422,0Z" style="fill:#00b27d;fill-rule:nonzero;"/></g><g transform="matrix(11,0,0,11,262.22,52.2625)"><path d="M0.027,0l0,-0.084l0.121,0l0,-0.362l-0.121,0l0,-0.084l0.265,0l0,0.078c0.022,-0.026 0.042,-0.047 0.063,-0.06c0.03,-0.02 0.062,-0.03 0.098,-0.03c0.039,0 0.079,0.009 0.12,0.026l0,0.173l-0.084,0l-0.012,-0.074c-0.018,-0.01 -0.036,-0.015 -0.053,-0.015c-0.039,0 -0.083,0.03 -0.132,0.09l0,0.258l0.157,0l0,0.084l-0.422,0Z" style="fill:#00b27d;fill-rule:nonzero;"/></g><g transform="matrix(11,0,0,11,268.821,52.2625)"><path d="M0.3,-0.542c0.079,0 0.144,0.026 0.195,0.077c0.05,0.052 0.075,0.118 0.075,0.2c0,0.082 -0.025,0.149 -0.075,0.2c-0.051,0.051 -0.117,0.077 -0.198,0.077c-0.07,0 -0.129,-0.021 -0.177,-0.063c-0.06,-0.054 -0.09,-0.125 -0.09,-0.214c0,-0.082 0.025,-0.148 0.075,-0.2c0.051,-0.051 0.116,-0.077 0.195,-0.077Zm0,0.084c-0.036,0 -0.064,0.017 -0.086,0.052c-0.021,0.035 -0.032,0.082 -0.032,0.141c0,0.058 0.01,0.105 0.032,0.14c0.022,0.035 0.05,0.053 0.086,0.053c0.036,-0.002 0.065,-0.02 0.086,-0.054c0.022,-0.035 0.033,-0.081 0.033,-0.139c0,-0.059 -0.011,-0.106 -0.033,-0.141c-0.021,-0.035 -0.05,-0.052 -0.086,-0.052Z" style="fill:#00b27d;fill-rule:nonzero;"/></g><g transform="matrix(11,0,0,11,275.422,52.2625)"><path d="M0.027,0l0,-0.084l0.121,0l0,-0.362l-0.121,0l0,-0.084l0.265,0l0,0.078c0.022,-0.026 0.042,-0.047 0.063,-0.06c0.03,-0.02 0.062,-0.03 0.098,-0.03c0.039,0 0.079,0.009 0.12,0.026l0,0.173l-0.084,0l-0.012,-0.074c-0.018,-0.01 -0.036,-0.015 -0.053,-0.015c-0.039,0 -0.083,0.03 -0.132,0.09l0,0.258l0.157,0l0,0.084l-0.422,0Z" style="fill:#00b27d;fill-rule:nonzero;"/></g><g transform="matrix(11,0,0,11,282.023,52.2625)"><path d="M0.096,-0.771c0.075,0.002 0.144,0.023 0.206,0.063c0.136,0.087 0.204,0.219 0.204,0.394c0,0.15 -0.053,0.272 -0.158,0.364c-0.042,0.037 -0.088,0.063 -0.139,0.078c-0.031,0.01 -0.069,0.015 -0.113,0.017l0,-0.085c0.075,-0.014 0.135,-0.047 0.178,-0.1c0.058,-0.07 0.087,-0.161 0.087,-0.274c0,-0.118 -0.032,-0.213 -0.097,-0.285c-0.043,-0.047 -0.099,-0.076 -0.168,-0.088l0,-0.084Z" style="fill:#4a5159;fill-rule:nonzero;"/></g><g transform="matrix(11,0,0,11,41.3899,63.2625)"><path d="M0.529,-0.271l-0.04,0c-0.08,0 -0.12,0.024 -0.12,0.073c0,0.013 0.003,0.03 0.007,0.052l0.018,0.076c0.006,0.026 0.009,0.05 0.009,0.072c0,0.051 -0.019,0.087 -0.059,0.109c-0.039,0.022 -0.104,0.034 -0.194,0.034l-0.061,0l0,-0.085l0.048,0c0.084,0 0.126,-0.018 0.126,-0.056c0,-0.009 -0.002,-0.023 -0.006,-0.043l-0.011,-0.053c-0.006,-0.027 -0.009,-0.053 -0.009,-0.076c0,-0.04 0.014,-0.073 0.042,-0.1c0.017,-0.016 0.041,-0.032 0.074,-0.046c-0.035,-0.013 -0.061,-0.028 -0.079,-0.045c-0.025,-0.026 -0.037,-0.059 -0.037,-0.099c0,-0.024 0.003,-0.05 0.009,-0.077l0.011,-0.052c0.004,-0.02 0.006,-0.035 0.006,-0.044c0,-0.037 -0.042,-0.056 -0.126,-0.056l-0.048,0l0,-0.084l0.061,0c0.091,0 0.156,0.011 0.195,0.033c0.039,0.022 0.058,0.059 0.058,0.111c0,0.02 -0.003,0.044 -0.009,0.071l-0.018,0.076c-0.004,0.021 -0.007,0.039 -0.007,0.053c0,0.048 0.04,0.072 0.12,0.072l0.04,0l0,0.084Z" style="fill:#4a5159;fill-rule:nonzero;"/></g><g transform="matrix(11,0,0,11,41.3899,85.2625)"><path d="M0.059,0l0,-0.084l0.132,0l0,-0.344l-0.132,0l0,-0.09l0.132,0l0,-0.045c0,-0.147 0.078,-0.22 0.234,-0.22c0.053,0 0.108,0.012 0.165,0.037l0,0.125l-0.082,0l-0.012,-0.059c-0.025,-0.012 -0.049,-0.018 -0.072,-0.018c-0.059,0 -0.089,0.043 -0.089,0.13l0,0.05l0.203,0l0,0.09l-0.203,0l0,0.344l0.155,0l0,0.084l-0.431,0Z" style="fill:#00b27d;fill-rule:nonzero;"/></g><g transform="matrix(11,0,0,11,47.991,85.2625)"><path d="M0.015,-0.446l0,-0.084l0.191,0l0,0.315c0,0.045 0.004,0.076 0.013,0.092c0.009,0.016 0.026,0.024 0.052,0.024c0.037,0 0.077,-0.028 0.121,-0.084l0,-0.263l-0.059,0l0,-0.084l0.198,0l0,0.446l0.051,0l0,0.084l-0.19,0l0,-0.078c-0.029,0.032 -0.055,0.055 -0.078,0.068c-0.026,0.015 -0.061,0.022 -0.105,0.022c-0.051,0 -0.088,-0.014 -0.11,-0.041c-0.022,-0.028 -0.033,-0.074 -0.033,-0.138l0,-0.279l-0.051,0Z" style="fill:#00b27d;fill-rule:nonzero;"/></g><g transform="matrix(11,0,0,11,54.5921,85.2625)"><path d="M0.022,0l0,-0.084l0.051,0l0,-0.362l-0.051,0l0,-0.084l0.19,0l0,0.078c0.028,-0.032 0.053,-0.055 0.076,-0.068c0.026,-0.015 0.061,-0.022 0.104,-0.022c0.051,0 0.088,0.014 0.109,0.042c0.022,0.027 0.033,0.072 0.033,0.136l0,0.28l0.049,0l0,0.084l-0.188,0l0,-0.315c0,-0.046 -0.005,-0.077 -0.014,-0.092c-0.009,-0.016 -0.025,-0.024 -0.049,-0.024c-0.037,0 -0.077,0.028 -0.12,0.084l0,0.263l0.059,0l0,0.084l-0.249,0Z" style="fill:#00b27d;fill-rule:nonzero;"/></g><g transform="matrix(11,0,0,11,61.1932,85.2625)"><path d="M0.576,-0.13l0,0.105c-0.077,0.025 -0.149,0.037 -0.218,0.037c-0.103,0 -0.183,-0.024 -0.241,-0.073c-0.058,-0.049 -0.087,-0.117 -0.087,-0.203c0,-0.085 0.03,-0.153 0.09,-0.203c0.06,-0.05 0.141,-0.075 0.245,-0.075c0.068,0 0.136,0.009 0.205,0.026l0,0.179l-0.084,0l-0.012,-0.1c-0.037,-0.015 -0.074,-0.022 -0.114,-0.022c-0.118,0 -0.176,0.06 -0.176,0.18c0,0.067 0.018,0.117 0.055,0.15c0.034,0.03 0.082,0.045 0.144,0.045c0.048,0 0.112,-0.015 0.193,-0.046Z" style="fill:#00b27d;fill-rule:nonzero;"/></g><g transform="matrix(11,0,0,11,74.3953,85.2625)"><path d="M0.504,0.145c-0.075,-0.002 -0.144,-0.023 -0.206,-0.063c-0.136,-0.088 -0.204,-0.219 -0.204,-0.394c0,-0.151 0.053,-0.272 0.158,-0.365c0.042,-0.037 0.088,-0.063 0.139,-0.078c0.031,-0.009 0.069,-0.015 0.113,-0.016l0,0.084c-0.075,0.014 -0.135,0.048 -0.178,0.101c-0.058,0.07 -0.087,0.161 -0.087,0.274c0,0.118 0.032,0.213 0.097,0.284c0.043,0.048 0.099,0.077 0.168,0.088l0,0.085Z" style="fill:#4a5159;fill-rule:nonzero;"/></g><g transform="matrix(11,0,0,11,80.9964,85.2625)"><path d="M0.051,0l0,-0.446l-0.039,0l0,-0.084l0.148,0l0,0.09c0.039,-0.068 0.079,-0.102 0.12,-0.102c0.04,0 0.065,0.034 0.074,0.102c0.035,-0.068 0.074,-0.102 0.117,-0.102c0.032,0 0.053,0.014 0.064,0.042c0.009,0.023 0.014,0.059 0.014,0.109l0,0.307l0.042,0l0,0.084l-0.151,0l0,-0.311l-0.001,-0.056c0,-0.046 -0.007,-0.069 -0.02,-0.069c-0.017,0 -0.038,0.035 -0.065,0.105l0,0.331l-0.108,0l0,-0.311l-0.001,-0.056c-0.001,-0.046 -0.007,-0.069 -0.02,-0.069c-0.017,0 -0.039,0.035 -0.065,0.105l0,0.331l-0.109,0Z" style="fill:#4a5159;fill-rule:nonzero;"/></g><g transform="matrix(11,0,0,11,94.1985,85.2625)"><path d="M0.272,-0.476l-0.053,-0.181l0.161,0l-0.052,0.181c-0.011,-0.005 -0.021,-0.007 -0.028,-0.007c-0.007,0 -0.016,0.002 -0.028,0.007Zm0.078,0.017l0.156,-0.107l0.05,0.153l-0.189,0.006c0.001,-0.012 0.001,-0.021 -0.002,-0.029c-0.002,-0.006 -0.007,-0.014 -0.015,-0.023Zm-0.118,0.052l-0.188,-0.006l0.05,-0.153l0.156,0.107c-0.008,0.009 -0.013,0.017 -0.016,0.023c-0.002,0.007 -0.003,0.017 -0.002,0.029Zm0.054,0.059l-0.064,0.178l-0.13,-0.095l0.149,-0.115c0.006,0.01 0.012,0.017 0.018,0.022c0.006,0.004 0.015,0.007 0.027,0.01Zm0.073,-0.032l0.148,0.115l-0.13,0.095l-0.063,-0.178c0.012,-0.003 0.02,-0.006 0.026,-0.01c0.006,-0.004 0.012,-0.012 0.019,-0.022Z" style="fill:#00b27d;fill-rule:nonzero;"/></g><g transform="matrix(11,0,0,11,100.8,85.2625)"><path d="M0.06,0l0,-0.084l0.168,0l0,-0.555l-0.168,0l0,-0.084l0.48,0l0,0.084l-0.168,0l0,0.555l0.168,0l0,0.084l-0.48,0Z" style="fill:#4a5159;fill-rule:nonzero;"/></g><g transform="matrix(11,0,0,11,107.401,85.2625)"><path d="M0.051,0l0,-0.446l-0.039,0l0,-0.084l0.148,0l0,0.09c0.039,-0.068 0.079,-0.102 0.12,-0.102c0.04,0 0.065,0.034 0.074,0.102c0.035,-0.068 0.074,-0.102 0.117,-0.102c0.032,0 0.053,0.014 0.064,0.042c0.009,0.023 0.014,0.059 0.014,0.109l0,0.307l0.042,0l0,0.084l-0.151,0l0,-0.311l-0.001,-0.056c0,-0.046 -0.007,-0.069 -0.02,-0.069c-0.017,0 -0.038,0.035 -0.065,0.105l0,0.331l-0.108,0l0,-0.311l-0.001,-0.056c-0.001,-0.046 -0.007,-0.069 -0.02,-0.069c-0.017,0 -0.039,0.035 -0.065,0.105l0,0.331l-0.109,0Z" style="fill:#4a5159;fill-rule:nonzero;"/></g><g transform="matrix(11,0,0,11,114.002,85.2625)"><path d="M0.022,-0.446l0,-0.084l0.186,0l0,0.078c0.05,-0.06 0.106,-0.09 0.169,-0.09c0.059,0 0.105,0.023 0.14,0.07c0.035,0.046 0.052,0.11 0.052,0.189c0,0.094 -0.022,0.167 -0.067,0.218c-0.045,0.051 -0.109,0.077 -0.191,0.077c-0.03,0 -0.064,-0.004 -0.103,-0.012l0,0.108l0.063,0l0,0.085l-0.249,0l0,-0.085l0.049,0l0,-0.554l-0.049,0Zm0.186,0.35l0.016,0.004c0.027,0.006 0.051,0.009 0.074,0.009c0.085,0 0.127,-0.061 0.127,-0.184c0,-0.112 -0.032,-0.168 -0.096,-0.168c-0.041,0 -0.081,0.029 -0.121,0.087l0,0.252Z" style="fill:#4a5159;fill-rule:nonzero;"/></g><g transform="matrix(11,0,0,11,120.603,85.2625)"><path d="M0.034,-0.687l0,-0.084l0.301,0l0,0.535c0,0.022 0.001,0.041 0.002,0.059c0.001,0.018 0.004,0.034 0.009,0.046c0.006,0.013 0.014,0.023 0.026,0.03c0.011,0.008 0.027,0.011 0.047,0.011c0.009,0 0.019,0 0.028,-0.001c0.01,-0.001 0.02,-0.002 0.031,-0.005c0.011,-0.002 0.022,-0.005 0.034,-0.009c0.013,-0.004 0.023,-0.008 0.03,-0.012l0,0.098c-0.01,0.006 -0.024,0.011 -0.04,0.016c-0.016,0.004 -0.032,0.008 -0.047,0.01c-0.016,0.002 -0.031,0.004 -0.045,0.004c-0.014,0.001 -0.028,0.001 -0.041,0.001c-0.033,0 -0.061,-0.004 -0.084,-0.013c-0.022,-0.01 -0.041,-0.024 -0.055,-0.043c-0.014,-0.019 -0.024,-0.044 -0.03,-0.074c-0.006,-0.03 -0.01,-0.066 -0.01,-0.108l0,-0.461l-0.156,0Z" style="fill:#4a5159;fill-rule:nonzero;"/></g><g transform="matrix(11,0,0,11,127.204,85.2625)"><path d="M0.096,-0.771c0.075,0.002 0.144,0.023 0.206,0.063c0.136,0.087 0.204,0.219 0.204,0.394c0,0.15 -0.053,0.272 -0.158,0.364c-0.042,0.037 -0.088,0.063 -0.139,0.078c-0.031,0.01 -0.069,0.015 -0.113,0.017l0,-0.085c0.075,-0.014 0.135,-0.047 0.178,-0.1c0.058,-0.07 0.087,-0.161 0.087,-0.274c0,-0.118 -0.032,-0.213 -0.097,-0.285c-0.043,-0.047 -0.099,-0.076 -0.168,-0.088l0,-0.084Z" style="fill:#4a5159;fill-rule:nonzero;"/></g><g transform="matrix(11,0,0,11,140.406,85.2625)"><path d="M0.018,0l0,-0.084l0.072,0l0,-0.555l-0.072,0l0,-0.084l0.548,0l0,0.181l-0.09,0l0,-0.097l-0.241,0l0,0.26l0.139,0l0,-0.061l0.084,0l0,0.205l-0.084,0l0,-0.06l-0.139,0l0,0.205l0.097,0l0,0.09l-0.314,0Z" style="fill:#007cc2;fill-rule:nonzero;"/></g><g transform="matrix(11,0,0,11,147.007,85.2625)"><path d="M0.015,-0.446l0,-0.084l0.191,0l0,0.315c0,0.045 0.004,0.076 0.013,0.092c0.009,0.016 0.026,0.024 0.052,0.024c0.037,0 0.077,-0.028 0.121,-0.084l0,-0.263l-0.059,0l0,-0.084l0.198,0l0,0.446l0.051,0l0,0.084l-0.19,0l0,-0.078c-0.029,0.032 -0.055,0.055 -0.078,0.068c-0.026,0.015 -0.061,0.022 -0.105,0.022c-0.051,0 -0.088,-0.014 -0.11,-0.041c-0.022,-0.028 -0.033,-0.074 -0.033,-0.138l0,-0.279l-0.051,0Z" style="fill:#007cc2;fill-rule:nonzero;"/></g><g transform="matrix(11,0,0,11,153.608,85.2625)"><path d="M0.022,0l0,-0.084l0.051,0l0,-0.362l-0.051,0l0,-0.084l0.19,0l0,0.078c0.028,-0.032 0.053,-0.055 0.076,-0.068c0.026,-0.015 0.061,-0.022 0.104,-0.022c0.051,0 0.088,0.014 0.109,0.042c0.022,0.027 0.033,0.072 0.033,0.136l0,0.28l0.049,0l0,0.084l-0.188,0l0,-0.315c0,-0.046 -0.005,-0.077 -0.014,-0.092c-0.009,-0.016 -0.025,-0.024 -0.049,-0.024c-0.037,0 -0.077,0.028 -0.12,0.084l0,0.263l0.059,0l0,0.084l-0.249,0Z" style="fill:#007cc2;fill-rule:nonzero;"/></g><g transform="matrix(11,0,0,11,160.209,85.2625)"><path d="M0.576,-0.13l0,0.105c-0.077,0.025 -0.149,0.037 -0.218,0.037c-0.103,0 -0.183,-0.024 -0.241,-0.073c-0.058,-0.049 -0.087,-0.117 -0.087,-0.203c0,-0.085 0.03,-0.153 0.09,-0.203c0.06,-0.05 0.141,-0.075 0.245,-0.075c0.068,0 0.136,0.009 0.205,0.026l0,0.179l-0.084,0l-0.012,-0.1c-0.037,-0.015 -0.074,-0.022 -0.114,-0.022c-0.118,0 -0.176,0.06 -0.176,0.18c0,0.067 0.018,0.117 0.055,0.15c0.034,0.03 0.082,0.045 0.144,0.045c0.048,0 0.112,-0.015 0.193,-0.046Z" style="fill:#007cc2;fill-rule:nonzero;"/></g><g transform="matrix(11,0,0,11,166.81,85.2625)"><path d="M0.072,0l0,-0.084l0.177,0l0,-0.508l-0.177,0.071l0,-0.091l0.322,-0.129l0,0.657l0.177,0l0,0.084l-0.499,0Z" style="fill:#007cc2;fill-rule:nonzero;"/></g><g transform="matrix(11,0,0,11,173.411,85.2625)"><path d="M0.504,0.145c-0.075,-0.002 -0.144,-0.023 -0.206,-0.063c-0.136,-0.088 -0.204,-0.219 -0.204,-0.394c0,-0.151 0.053,-0.272 0.158,-0.365c0.042,-0.037 0.088,-0.063 0.139,-0.078c0.031,-0.009 0.069,-0.015 0.113,-0.016l0,0.084c-0.075,0.014 -0.135,0.048 -0.178,0.101c-0.058,0.07 -0.087,0.161 -0.087,0.274c0,0.118 0.032,0.213 0.097,0.284c0.043,0.048 0.099,0.077 0.168,0.088l0,0.085Z" style="fill:#4a5159;fill-rule:nonzero;"/></g><g transform="matrix(11,0,0,11,180.013,85.2625)"><path d="M0.078,-0.377l0,-0.124c0.083,-0.027 0.16,-0.041 0.232,-0.041c0.075,0 0.129,0.011 0.162,0.033c0.033,0.022 0.049,0.06 0.049,0.112l0,0.313l0.055,0l0,0.084l-0.18,0l-0.019,-0.051c-0.051,0.042 -0.106,0.063 -0.168,0.063c-0.05,0 -0.091,-0.014 -0.121,-0.042c-0.031,-0.027 -0.046,-0.064 -0.046,-0.11c0,-0.06 0.025,-0.106 0.075,-0.138c0.05,-0.031 0.122,-0.047 0.216,-0.047l0.044,0l0,-0.055c0,-0.03 -0.007,-0.051 -0.02,-0.062c-0.013,-0.011 -0.038,-0.017 -0.072,-0.017c-0.042,0 -0.079,0.008 -0.113,0.025l-0.009,0.057l-0.085,0Zm0.299,0.234l0,-0.11l-0.022,0c-0.05,0 -0.09,0.01 -0.12,0.029c-0.03,0.019 -0.046,0.044 -0.046,0.076c0,0.043 0.023,0.065 0.069,0.065c0.042,0 0.082,-0.02 0.119,-0.06Z" style="fill:#4a5159;fill-rule:nonzero;"/></g><g transform="matrix(11,0,0,11,193.215,85.2625)"><path d="M0.091,-0.025l0,-0.156l0.085,0l0.012,0.073c0.048,0.024 0.09,0.036 0.126,0.036c0.054,0 0.08,-0.019 0.08,-0.057c0,-0.019 -0.006,-0.034 -0.018,-0.044c-0.011,-0.01 -0.034,-0.02 -0.066,-0.03l-0.071,-0.02c-0.105,-0.03 -0.157,-0.082 -0.157,-0.157c0,-0.058 0.023,-0.101 0.07,-0.129c0.038,-0.022 0.092,-0.033 0.161,-0.033c0.065,0 0.128,0.01 0.19,0.029l0,0.152l-0.084,0l-0.012,-0.077c-0.033,-0.013 -0.067,-0.02 -0.102,-0.02c-0.057,0 -0.085,0.02 -0.085,0.061c0,0.018 0.007,0.031 0.02,0.039c0.012,0.006 0.034,0.015 0.066,0.025l0.082,0.025c0.054,0.016 0.091,0.036 0.112,0.058c0.021,0.022 0.032,0.052 0.032,0.09c0,0.054 -0.019,0.097 -0.058,0.127c-0.038,0.03 -0.092,0.045 -0.162,0.045c-0.064,0 -0.138,-0.012 -0.221,-0.037Z" style="fill:#00b27d;fill-rule:nonzero;"/></g><g transform="matrix(11,0,0,11,199.816,85.2625)"><path d="M0.042,-0.434l0,-0.084l0.126,0l0,-0.132l0.145,0l0,0.132l0.221,0l0,0.084l-0.221,0l0,0.232c0,0.043 0.006,0.073 0.016,0.088c0.01,0.016 0.029,0.024 0.057,0.024c0.036,0 0.084,-0.014 0.144,-0.042l0,0.099c-0.069,0.03 -0.13,0.045 -0.183,0.045c-0.063,0 -0.108,-0.016 -0.137,-0.049c-0.028,-0.033 -0.042,-0.086 -0.042,-0.161l0,-0.236l-0.126,0Z" style="fill:#00b27d;fill-rule:nonzero;"/></g><g transform="matrix(11,0,0,11,206.417,85.2625)"><path d="M0.027,0l0,-0.084l0.121,0l0,-0.362l-0.121,0l0,-0.084l0.265,0l0,0.078c0.022,-0.026 0.042,-0.047 0.063,-0.06c0.03,-0.02 0.062,-0.03 0.098,-0.03c0.039,0 0.079,0.009 0.12,0.026l0,0.173l-0.084,0l-0.012,-0.074c-0.018,-0.01 -0.036,-0.015 -0.053,-0.015c-0.039,0 -0.083,0.03 -0.132,0.09l0,0.258l0.157,0l0,0.084l-0.422,0Z" style="fill:#00b27d;fill-rule:nonzero;"/></g><g transform="matrix(11,0,0,11,213.018,85.2625)"><path d="M0.068,0l0,-0.084l0.181,0l0,-0.362l-0.181,0l0,-0.084l0.326,0l0,0.446l0.18,0l0,0.084l-0.506,0Zm0.181,-0.626l0,-0.145l0.145,0l0,0.145l-0.145,0Z" style="fill:#00b27d;fill-rule:nonzero;"/></g><g transform="matrix(11,0,0,11,219.619,85.2625)"><path d="M0.022,0l0,-0.084l0.051,0l0,-0.362l-0.051,0l0,-0.084l0.19,0l0,0.078c0.028,-0.032 0.053,-0.055 0.076,-0.068c0.026,-0.015 0.061,-0.022 0.104,-0.022c0.051,0 0.088,0.014 0.109,0.042c0.022,0.027 0.033,0.072 0.033,0.136l0,0.28l0.049,0l0,0.084l-0.188,0l0,-0.315c0,-0.046 -0.005,-0.077 -0.014,-0.092c-0.009,-0.016 -0.025,-0.024 -0.049,-0.024c-0.037,0 -0.077,0.028 -0.12,0.084l0,0.263l0.059,0l0,0.084l-0.249,0Z" style="fill:#00b27d;fill-rule:nonzero;"/></g><g transform="matrix(11,0,0,11,226.22,85.2625)"><path d="M0.39,-0.431l-0.014,-0.004c-0.027,-0.006 -0.051,-0.01 -0.074,-0.01c-0.084,0 -0.127,0.052 -0.127,0.154c0,0.092 0.029,0.138 0.087,0.138c0.047,0 0.09,-0.028 0.128,-0.083l0,-0.195Zm0,-0.099l0.193,0l0,0.084l-0.049,0l0,0.395c0,0.084 -0.02,0.146 -0.059,0.187c-0.039,0.041 -0.107,0.064 -0.204,0.069c-0.061,0 -0.129,-0.01 -0.204,-0.031l0,-0.162l0.085,0l0.012,0.077c0.035,0.022 0.074,0.034 0.116,0.034c0.054,-0.005 0.087,-0.024 0.097,-0.057c0.009,-0.025 0.013,-0.061 0.013,-0.109l0,-0.089c-0.049,0.06 -0.104,0.09 -0.167,0.09c-0.062,0 -0.11,-0.023 -0.144,-0.069c-0.032,-0.042 -0.049,-0.097 -0.049,-0.163c0,-0.076 0.023,-0.14 0.068,-0.191c0.045,-0.052 0.109,-0.077 0.191,-0.077c0.03,0 0.063,0.004 0.101,0.012Z" style="fill:#00b27d;fill-rule:nonzero;"/></g><g transform="matrix(11,0,0,11,232.821,85.2625)"><path d="M0.096,-0.771c0.075,0.002 0.144,0.023 0.206,0.063c0.136,0.087 0.204,0.219 0.204,0.394c0,0.15 -0.053,0.272 -0.158,0.364c-0.042,0.037 -0.088,0.063 -0.139,0.078c-0.031,0.01 -0.069,0.015 -0.113,0.017l0,-0.085c0.075,-0.014 0.135,-0.047 0.178,-0.1c0.058,-0.07 0.087,-0.161 0.087,-0.274c0,-0.118 -0.032,-0.213 -0.097,-0.285c-0.043,-0.047 -0.099,-0.076 -0.168,-0.088l0,-0.084Z" style="fill:#4a5159;fill-rule:nonzero;"/></g><g transform="matrix(11,0,0,11,246.023,85.2625)"><path d="M0.504,0.145c-0.075,-0.002 -0.144,-0.023 -0.206,-0.063c-0.136,-0.088 -0.204,-0.219 -0.204,-0.394c0,-0.151 0.053,-0.272 0.158,-0.365c0.042,-0.037 0.088,-0.063 0.139,-0.078c0.031,-0.009 0.069,-0.015 0.113,-0.016l0,0.084c-0.075,0.014 -0.135,0.048 -0.178,0.101c-0.058,0.07 -0.087,0.161 -0.087,0.274c0,0.118 0.032,0.213 0.097,0.284c0.043,0.048 0.099,0.077 0.168,0.088l0,0.085Z" style="fill:#4a5159;fill-rule:nonzero;"/></g><g transform="matrix(11,0,0,11,252.624,85.2625)"><path d="M0.068,0l0,-0.084l0.181,0l0,-0.362l-0.181,0l0,-0.084l0.326,0l0,0.446l0.18,0l0,0.084l-0.506,0Zm0.181,-0.626l0,-0.145l0.145,0l0,0.145l-0.145,0Z" style="fill:#00b27d;fill-rule:nonzero;"/></g><g transform="matrix(11,0,0,11,259.225,85.2625)"><path d="M0.022,0l0,-0.084l0.051,0l0,-0.362l-0.051,0l0,-0.084l0.19,0l0,0.078c0.028,-0.032 0.053,-0.055 0.076,-0.068c0.026,-0.015 0.061,-0.022 0.104,-0.022c0.051,0 0.088,0.014 0.109,0.042c0.022,0.027 0.033,0.072 0.033,0.136l0,0.28l0.049,0l0,0.084l-0.188,0l0,-0.315c0,-0.046 -0.005,-0.077 -0.014,-0.092c-0.009,-0.016 -0.025,-0.024 -0.049,-0.024c-0.037,0 -0.077,0.028 -0.12,0.084l0,0.263l0.059,0l0,0.084l-0.249,0Z" style="fill:#00b27d;fill-rule:nonzero;"/></g><g transform="matrix(11,0,0,11,265.826,85.2625)"><path d="M0.042,-0.434l0,-0.084l0.126,0l0,-0.132l0.145,0l0,0.132l0.221,0l0,0.084l-0.221,0l0,0.232c0,0.043 0.006,0.073 0.016,0.088c0.01,0.016 0.029,0.024 0.057,0.024c0.036,0 0.084,-0.014 0.144,-0.042l0,0.099c-0.069,0.03 -0.13,0.045 -0.183,0.045c-0.063,0 -0.108,-0.016 -0.137,-0.049c-0.028,-0.033 -0.042,-0.086 -0.042,-0.161l0,-0.236l-0.126,0Z" style="fill:#00b27d;fill-rule:nonzero;"/></g><g transform="matrix(11,0,0,11,272.428,85.2625)"><path d="M0.211,0l0,-0.178l0.178,0l0,0.148c0,0.091 -0.011,0.151 -0.035,0.18c-0.022,0.029 -0.067,0.043 -0.133,0.043l-0.01,0l0,-0.06l0.007,0c0.031,0 0.049,-0.011 0.056,-0.032c0.005,-0.017 0.008,-0.05 0.008,-0.101l-0.071,0Z" style="fill:#4a5159;fill-rule:nonzero;"/></g><g transform="matrix(11,0,0,11,285.63,85.2625)"><path d="M0.57,-0.124l0,0.099c-0.078,0.025 -0.155,0.037 -0.229,0.037c-0.098,0 -0.174,-0.024 -0.229,-0.073c-0.054,-0.049 -0.082,-0.115 -0.082,-0.2c0,-0.084 0.026,-0.152 0.079,-0.204c0.052,-0.052 0.12,-0.077 0.204,-0.077c0.081,0 0.143,0.024 0.187,0.073c0.043,0.048 0.065,0.117 0.065,0.206l0,0.028l-0.384,0c0.005,0.029 0.011,0.051 0.019,0.066c0.029,0.058 0.085,0.086 0.169,0.086c0.054,0 0.121,-0.013 0.201,-0.041Zm-0.386,-0.195l0.235,0c-0.001,-0.039 -0.009,-0.07 -0.025,-0.093c-0.02,-0.029 -0.049,-0.044 -0.087,-0.044c-0.041,0 -0.073,0.016 -0.096,0.048c-0.016,0.022 -0.025,0.052 -0.027,0.089Z" style="fill:#00b27d;fill-rule:nonzero;"/></g><g transform="matrix(11,0,0,11,292.231,85.2625)"><path d="M0.027,0l0,-0.084l0.121,0l0,-0.362l-0.121,0l0,-0.084l0.265,0l0,0.078c0.022,-0.026 0.042,-0.047 0.063,-0.06c0.03,-0.02 0.062,-0.03 0.098,-0.03c0.039,0 0.079,0.009 0.12,0.026l0,0.173l-0.084,0l-0.012,-0.074c-0.018,-0.01 -0.036,-0.015 -0.053,-0.015c-0.039,0 -0.083,0.03 -0.132,0.09l0,0.258l0.157,0l0,0.084l-0.422,0Z" style="fill:#00b27d;fill-rule:nonzero;"/></g><g transform="matrix(11,0,0,11,298.832,85.2625)"><path d="M0.027,0l0,-0.084l0.121,0l0,-0.362l-0.121,0l0,-0.084l0.265,0l0,0.078c0.022,-0.026 0.042,-0.047 0.063,-0.06c0.03,-0.02 0.062,-0.03 0.098,-0.03c0.039,0 0.079,0.009 0.12,0.026l0,0.173l-0.084,0l-0.012,-0.074c-0.018,-0.01 -0.036,-0.015 -0.053,-0.015c-0.039,0 -0.083,0.03 -0.132,0.09l0,0.258l0.157,0l0,0.084l-0.422,0Z" style="fill:#00b27d;fill-rule:nonzero;"/></g><g transform="matrix(11,0,0,11,305.433,85.2625)"><path d="M0.3,-0.542c0.079,0 0.144,0.026 0.195,0.077c0.05,0.052 0.075,0.118 0.075,0.2c0,0.082 -0.025,0.149 -0.075,0.2c-0.051,0.051 -0.117,0.077 -0.198,0.077c-0.07,0 -0.129,-0.021 -0.177,-0.063c-0.06,-0.054 -0.09,-0.125 -0.09,-0.214c0,-0.082 0.025,-0.148 0.075,-0.2c0.051,-0.051 0.116,-0.077 0.195,-0.077Zm0,0.084c-0.036,0 -0.064,0.017 -0.086,0.052c-0.021,0.035 -0.032,0.082 -0.032,0.141c0,0.058 0.01,0.105 0.032,0.14c0.022,0.035 0.05,0.053 0.086,0.053c0.036,-0.002 0.065,-0.02 0.086,-0.054c0.022,-0.035 0.033,-0.081 0.033,-0.139c0,-0.059 -0.011,-0.106 -0.033,-0.141c-0.021,-0.035 -0.05,-0.052 -0.086,-0.052Z" style="fill:#00b27d;fill-rule:nonzero;"/></g><g transform="matrix(11,0,0,11,312.034,85.2625)"><path d="M0.027,0l0,-0.084l0.121,0l0,-0.362l-0.121,0l0,-0.084l0.265,0l0,0.078c0.022,-0.026 0.042,-0.047 0.063,-0.06c0.03,-0.02 0.062,-0.03 0.098,-0.03c0.039,0 0.079,0.009 0.12,0.026l0,0.173l-0.084,0l-0.012,-0.074c-0.018,-0.01 -0.036,-0.015 -0.053,-0.015c-0.039,0 -0.083,0.03 -0.132,0.09l0,0.258l0.157,0l0,0.084l-0.422,0Z" style="fill:#00b27d;fill-rule:nonzero;"/></g><g transform="matrix(11,0,0,11,318.635,85.2625)"><path d="M0.096,-0.771c0.075,0.002 0.144,0.023 0.206,0.063c0.136,0.087 0.204,0.219 0.204,0.394c0,0.15 -0.053,0.272 -0.158,0.364c-0.042,0.037 -0.088,0.063 -0.139,0.078c-0.031,0.01 -0.069,0.015 -0.113,0.017l0,-0.085c0.075,-0.014 0.135,-0.047 0.178,-0.1c0.058,-0.07 0.087,-0.161 0.087,-0.274c0,-0.118 -0.032,-0.213 -0.097,-0.285c-0.043,-0.047 -0.099,-0.076 -0.168,-0.088l0,-0.084Z" style="fill:#4a5159;fill-rule:nonzero;"/></g><g transform="matrix(11,0,0,11,331.837,85.2625)"><path d="M0.071,-0.355l0.041,0c0.08,0 0.119,-0.025 0.119,-0.073c0,-0.014 -0.002,-0.031 -0.007,-0.052l-0.017,-0.076c-0.006,-0.026 -0.009,-0.049 -0.009,-0.071c0,-0.052 0.019,-0.089 0.058,-0.111c0.039,-0.022 0.104,-0.033 0.195,-0.033l0.06,0l0,0.084l-0.047,0c-0.084,0 -0.126,0.019 -0.126,0.057c0,0.01 0.002,0.024 0.006,0.043l0.011,0.052c0.006,0.027 0.009,0.053 0.009,0.077c0,0.04 -0.014,0.073 -0.042,0.1c-0.017,0.016 -0.042,0.031 -0.074,0.045c0.035,0.013 0.061,0.028 0.078,0.046c0.025,0.025 0.038,0.058 0.038,0.098c0,0.025 -0.003,0.051 -0.009,0.078l-0.011,0.052c-0.004,0.018 -0.006,0.033 -0.006,0.044c0,0.037 0.042,0.055 0.126,0.055l0.047,0l0,0.085l-0.06,0c-0.091,0 -0.156,-0.012 -0.195,-0.034c-0.039,-0.022 -0.058,-0.059 -0.058,-0.111c0,-0.021 0.003,-0.045 0.009,-0.07l0.017,-0.076c0.005,-0.022 0.007,-0.039 0.007,-0.053c0,-0.048 -0.039,-0.072 -0.119,-0.072l-0.041,0l0,-0.084Z" style="fill:#4a5159;fill-rule:nonzero;"/></g><g transform="matrix(11,0,0,11,77.3899,96.2625)"><path d="M0.027,0l0,-0.084l0.121,0l0,-0.362l-0.121,0l0,-0.084l0.265,0l0,0.078c0.022,-0.026 0.042,-0.047 0.063,-0.06c0.03,-0.02 0.062,-0.03 0.098,-0.03c0.039,0 0.079,0.009 0.12,0.026l0,0.173l-0.084,0l-0.012,-0.074c-0.018,-0.01 -0.036,-0.015 -0.053,-0.015c-0.039,0 -0.083,0.03 -0.132,0.09l0,0.258l0.157,0l0,0.084l-0.422,0Z" style="fill:#00b27d;fill-rule:nonzero;"/></g><g transform="matrix(11,0,0,11,83.991,96.2625)"><path d="M0.57,-0.124l0,0.099c-0.078,0.025 -0.155,0.037 -0.229,0.037c-0.098,0 -0.174,-0.024 -0.229,-0.073c-0.054,-0.049 -0.082,-0.115 -0.082,-0.2c0,-0.084 0.026,-0.152 0.079,-0.204c0.052,-0.052 0.12,-0.077 0.204,-0.077c0.081,0 0.143,0.024 0.187,0.073c0.043,0.048 0.065,0.117 0.065,0.206l0,0.028l-0.384,0c0.005,0.029 0.011,0.051 0.019,0.066c0.029,0.058 0.085,0.086 0.169,0.086c0.054,0 0.121,-0.013 0.201,-0.041Zm-0.386,-0.195l0.235,0c-0.001,-0.039 -0.009,-0.07 -0.025,-0.093c-0.02,-0.029 -0.049,-0.044 -0.087,-0.044c-0.041,0 -0.073,0.016 -0.096,0.048c-0.016,0.022 -0.025,0.052 -0.027,0.089Z" style="fill:#00b27d;fill-rule:nonzero;"/></g><g transform="matrix(11,0,0,11,90.5921,96.2625)"><path d="M0.042,-0.434l0,-0.084l0.126,0l0,-0.132l0.145,0l0,0.132l0.221,0l0,0.084l-0.221,0l0,0.232c0,0.043 0.006,0.073 0.016,0.088c0.01,0.016 0.029,0.024 0.057,0.024c0.036,0 0.084,-0.014 0.144,-0.042l0,0.099c-0.069,0.03 -0.13,0.045 -0.183,0.045c-0.063,0 -0.108,-0.016 -0.137,-0.049c-0.028,-0.033 -0.042,-0.086 -0.042,-0.161l0,-0.236l-0.126,0Z" style="fill:#00b27d;fill-rule:nonzero;"/></g><g transform="matrix(11,0,0,11,97.1932,96.2625)"><path d="M0.015,-0.446l0,-0.084l0.191,0l0,0.315c0,0.045 0.004,0.076 0.013,0.092c0.009,0.016 0.026,0.024 0.052,0.024c0.037,0 0.077,-0.028 0.121,-0.084l0,-0.263l-0.059,0l0,-0.084l0.198,0l0,0.446l0.051,0l0,0.084l-0.19,0l0,-0.078c-0.029,0.032 -0.055,0.055 -0.078,0.068c-0.026,0.015 -0.061,0.022 -0.105,0.022c-0.051,0 -0.088,-0.014 -0.11,-0.041c-0.022,-0.028 -0.033,-0.074 -0.033,-0.138l0,-0.279l-0.051,0Z" style="fill:#00b27d;fill-rule:nonzero;"/></g><g transform="matrix(11,0,0,11,103.794,96.2625)"><path d="M0.027,0l0,-0.084l0.121,0l0,-0.362l-0.121,0l0,-0.084l0.265,0l0,0.078c0.022,-0.026 0.042,-0.047 0.063,-0.06c0.03,-0.02 0.062,-0.03 0.098,-0.03c0.039,0 0.079,0.009 0.12,0.026l0,0.173l-0.084,0l-0.012,-0.074c-0.018,-0.01 -0.036,-0.015 -0.053,-0.015c-0.039,0 -0.083,0.03 -0.132,0.09l0,0.258l0.157,0l0,0.084l-0.422,0Z" style="fill:#00b27d;fill-rule:nonzero;"/></g><g transform="matrix(11,0,0,11,110.395,96.2625)"><path d="M0.022,0l0,-0.084l0.051,0l0,-0.362l-0.051,0l0,-0.084l0.19,0l0,0.078c0.028,-0.032 0.053,-0.055 0.076,-0.068c0.026,-0.015 0.061,-0.022 0.104,-0.022c0.051,0 0.088,0.014 0.109,0.042c0.022,0.027 0.033,0.072 0.033,0.136l0,0.28l0.049,0l0,0.084l-0.188,0l0,-0.315c0,-0.046 -0.005,-0.077 -0.014,-0.092c-0.009,-0.016 -0.025,-0.024 -0.049,-0.024c-0.037,0 -0.077,0.028 -0.12,0.084l0,0.263l0.059,0l0,0.084l-0.249,0Z" style="fill:#00b27d;fill-rule:nonzero;"/></g><g transform="matrix(11,0,0,11,123.597,96.2625)"><path d="M0.051,0l0,-0.446l-0.039,0l0,-0.084l0.148,0l0,0.09c0.039,-0.068 0.079,-0.102 0.12,-0.102c0.04,0 0.065,0.034 0.074,0.102c0.035,-0.068 0.074,-0.102 0.117,-0.102c0.032,0 0.053,0.014 0.064,0.042c0.009,0.023 0.014,0.059 0.014,0.109l0,0.307l0.042,0l0,0.084l-0.151,0l0,-0.311l-0.001,-0.056c0,-0.046 -0.007,-0.069 -0.02,-0.069c-0.017,0 -0.038,0.035 -0.065,0.105l0,0.331l-0.108,0l0,-0.311l-0.001,-0.056c-0.001,-0.046 -0.007,-0.069 -0.02,-0.069c-0.017,0 -0.039,0.035 -0.065,0.105l0,0.331l-0.109,0Z" style="fill:#4a5159;fill-rule:nonzero;"/></g><g transform="matrix(11,0,0,11,130.199,96.2625)"><rect x="0.211" y="-0.178" width="0.178" height="0.178" style="fill:#4a5159;fill-rule:nonzero;"/></g><g transform="matrix(11,0,0,11,136.8,96.2625)"><path d="M0.018,0l0,-0.084l0.072,0l0,-0.555l-0.072,0l0,-0.084l0.548,0l0,0.181l-0.09,0l0,-0.097l-0.241,0l0,0.26l0.139,0l0,-0.061l0.084,0l0,0.205l-0.084,0l0,-0.06l-0.139,0l0,0.205l0.097,0l0,0.09l-0.314,0Z" style="fill:#f75c03;fill-rule:nonzero;"/></g><g transform="matrix(11,0,0,11,143.401,96.2625)"><path d="M0.015,-0.446l0,-0.084l0.191,0l0,0.315c0,0.045 0.004,0.076 0.013,0.092c0.009,0.016 0.026,0.024 0.052,0.024c0.037,0 0.077,-0.028 0.121,-0.084l0,-0.263l-0.059,0l0,-0.084l0.198,0l0,0.446l0.051,0l0,0.084l-0.19,0l0,-0.078c-0.029,0.032 -0.055,0.055 -0.078,0.068c-0.026,0.015 -0.061,0.022 -0.105,0.022c-0.051,0 -0.088,-0.014 -0.11,-0.041c-0.022,-0.028 -0.033,-0.074 -0.033,-0.138l0,-0.279l-0.051,0Z" style="fill:#f75c03;fill-rule:nonzero;"/></g><g transform="matrix(11,0,0,11,150.002,96.2625)"><path d="M0.022,0l0,-0.084l0.051,0l0,-0.362l-0.051,0l0,-0.084l0.19,0l0,0.078c0.028,-0.032 0.053,-0.055 0.076,-0.068c0.026,-0.015 0.061,-0.022 0.104,-0.022c0.051,0 0.088,0.014 0.109,0.042c0.022,0.027 0.033,0.072 0.033,0.136l0,0.28l0.049,0l0,0.084l-0.188,0l0,-0.315c0,-0.046 -0.005,-0.077 -0.014,-0.092c-0.009,-0.016 -0.025,-0.024 -0.049,-0.024c-0.037,0 -0.077,0.028 -0.12,0.084l0,0.263l0.059,0l0,0.084l-0.249,0Z" style="fill:#f75c03;fill-rule:nonzero;"/></g><g transform="matrix(11,0,0,11,156.603,96.2625)"><path d="M0.576,-0.13l0,0.105c-0.077,0.025 -0.149,0.037 -0.218,0.037c-0.103,0 -0.183,-0.024 -0.241,-0.073c-0.058,-0.049 -0.087,-0.117 -0.087,-0.203c0,-0.085 0.03,-0.153 0.09,-0.203c0.06,-0.05 0.141,-0.075 0.245,-0.075c0.068,0 0.136,0.009 0.205,0.026l0,0.179l-0.084,0l-0.012,-0.1c-0.037,-0.015 -0.074,-0.022 -0.114,-0.022c-0.118,0 -0.176,0.06 -0.176,0.18c0,0.067 0.018,0.117 0.055,0.15c0.034,0.03 0.082,0.045 0.144,0.045c0.048,0 0.112,-0.015 0.193,-0.046Z" style="fill:#f75c03;fill-rule:nonzero;"/></g><g transform="matrix(11,0,0,11,163.204,96.2625)"><path d="M0.072,0l0,-0.084l0.177,0l0,-0.508l-0.177,0.071l0,-0.091l0.322,-0.129l0,0.657l0.177,0l0,0.084l-0.499,0Z" style="fill:#f75c03;fill-rule:nonzero;"/></g><g transform="matrix(11,0,0,11,169.805,96.2625)"><path d="M0.018,0l0,-0.084l0.072,0l0,-0.555l-0.072,0l0,-0.084l0.548,0l0,0.181l-0.09,0l0,-0.097l-0.241,0l0,0.26l0.139,0l0,-0.061l0.084,0l0,0.205l-0.084,0l0,-0.06l-0.139,0l0,0.205l0.097,0l0,0.09l-0.314,0Z" style="fill:#f75c03;fill-rule:nonzero;"/></g><g transform="matrix(11,0,0,11,176.406,96.2625)"><path d="M0.504,0.145c-0.075,-0.002 -0.144,-0.023 -0.206,-0.063c-0.136,-0.088 -0.204,-0.219 -0.204,-0.394c0,-0.151 0.053,-0.272 0.158,-0.365c0.042,-0.037 0.088,-0.063 0.139,-0.078c0.031,-0.009 0.069,-0.015 0.113,-0.016l0,0.084c-0.075,0.014 -0.135,0.048 -0.178,0.101c-0.058,0.07 -0.087,0.161 -0.087,0.274c0,0.118 0.032,0.213 0.097,0.284c0.043,0.048 0.099,0.077 0.168,0.088l0,0.085Z" style="fill:#4a5159;fill-rule:nonzero;"/></g><g transform="matrix(11,0,0,11,183.007,96.2625)"><path d="M0.078,-0.377l0,-0.124c0.083,-0.027 0.16,-0.041 0.232,-0.041c0.075,0 0.129,0.011 0.162,0.033c0.033,0.022 0.049,0.06 0.049,0.112l0,0.313l0.055,0l0,0.084l-0.18,0l-0.019,-0.051c-0.051,0.042 -0.106,0.063 -0.168,0.063c-0.05,0 -0.091,-0.014 -0.121,-0.042c-0.031,-0.027 -0.046,-0.064 -0.046,-0.11c0,-0.06 0.025,-0.106 0.075,-0.138c0.05,-0.031 0.122,-0.047 0.216,-0.047l0.044,0l0,-0.055c0,-0.03 -0.007,-0.051 -0.02,-0.062c-0.013,-0.011 -0.038,-0.017 -0.072,-0.017c-0.042,0 -0.079,0.008 -0.113,0.025l-0.009,0.057l-0.085,0Zm0.299,0.234l0,-0.11l-0.022,0c-0.05,0 -0.09,0.01 -0.12,0.029c-0.03,0.019 -0.046,0.044 -0.046,0.076c0,0.043 0.023,0.065 0.069,0.065c0.042,0 0.082,-0.02 0.119,-0.06Z" style="fill:#4a5159;fill-rule:nonzero;"/></g><g transform="matrix(11,0,0,11,189.608,96.2625)"><path d="M0.096,-0.771c0.075,0.002 0.144,0.023 0.206,0.063c0.136,0.087 0.204,0.219 0.204,0.394c0,0.15 -0.053,0.272 -0.158,0.364c-0.042,0.037 -0.088,0.063 -0.139,0.078c-0.031,0.01 -0.069,0.015 -0.113,0.017l0,-0.085c0.075,-0.014 0.135,-0.047 0.178,-0.1c0.058,-0.07 0.087,-0.161 0.087,-0.274c0,-0.118 -0.032,-0.213 -0.097,-0.285c-0.043,-0.047 -0.099,-0.076 -0.168,-0.088l0,-0.084Z" style="fill:#4a5159;fill-rule:nonzero;"/></g><g transform="matrix(11,0,0,11,41.3899,107.262)"><path d="M0.529,-0.271l-0.04,0c-0.08,0 -0.12,0.024 -0.12,0.073c0,0.013 0.003,0.03 0.007,0.052l0.018,0.076c0.006,0.026 0.009,0.05 0.009,0.072c0,0.051 -0.019,0.087 -0.059,0.109c-0.039,0.022 -0.104,0.034 -0.194,0.034l-0.061,0l0,-0.085l0.048,0c0.084,0 0.126,-0.018 0.126,-0.056c0,-0.009 -0.002,-0.023 -0.006,-0.043l-0.011,-0.053c-0.006,-0.027 -0.009,-0.053 -0.009,-0.076c0,-0.04 0.014,-0.073 0.042,-0.1c0.017,-0.016 0.041,-0.032 0.074,-0.046c-0.035,-0.013 -0.061,-0.028 -0.079,-0.045c-0.025,-0.026 -0.037,-0.059 -0.037,-0.099c0,-0.024 0.003,-0.05 0.009,-0.077l0.011,-0.052c0.004,-0.02 0.006,-0.035 0.006,-0.044c0,-0.037 -0.042,-0.056 -0.126,-0.056l-0.048,0l0,-0.084l0.061,0c0.091,0 0.156,0.011 0.195,0.033c0.039,0.022 0.058,0.059 0.058,0.111c0,0.02 -0.003,0.044 -0.009,0.071l-0.018,0.076c-0.004,0.021 -0.007,0.039 -0.007,0.053c0,0.048 0.04,0.072 0.12,0.072l0.04,0l0,0.084Z" style="fill:#4a5159;fill-rule:nonzero;"/></g></g><rect x="272.298" y="0" width="197" height="100" style="fill:#f3f3fc;"/><path d="M466.798,7.25c0,-2.622 -2.128,-4.75 -4.75,-4.75l-182.5,0c-2.622,0 -4.75,2.128 -4.75,4.75l0,85.5c0,2.622 2.128,4.75 4.75,4.75l182.5,0c2.622,0 4.75,-2.128 4.75,-4.75l0,-85.5Z" style="fill:#fff;"/><g><g transform="matrix(1,0,0,1,-31.0736,19.5041)"><g transform="matrix(14,0,0,14,317.769,49.2914)"><path d="M0.309,0.018c-0.031,-0.055 -0.054,-0.095 -0.07,-0.121l-0.026,-0.04l-0.02,-0.03c-0.042,-0.066 -0.087,-0.121 -0.133,-0.164c0.026,-0.022 0.051,-0.033 0.074,-0.033c0.028,0 0.053,0.01 0.074,0.031c0.022,0.02 0.05,0.059 0.083,0.117c0.038,-0.123 0.086,-0.239 0.144,-0.349c0.032,-0.06 0.061,-0.1 0.086,-0.121c0.025,-0.021 0.059,-0.031 0.101,-0.031c0.022,0 0.049,0.003 0.082,0.01c-0.084,0.067 -0.151,0.148 -0.201,0.24c-0.05,0.093 -0.115,0.257 -0.194,0.491Z" style="fill:#00b27d;fill-rule:nonzero;"/></g><g transform="matrix(13,0,0,13,336.167,49.2914)"><path d="M0.247,-0.321c0.058,-0.178 0.071,-0.272 0.125,-0.272c0.031,0 0.06,0.03 0.06,0.068c0,0.013 -0.004,0.027 -0.011,0.041l0.024,0.014c0.027,-0.028 0.038,-0.06 0.038,-0.088c0,-0.062 -0.053,-0.105 -0.113,-0.105c-0.118,0 -0.145,0.196 -0.189,0.343l-0.108,0l0,0.064l0.084,0c-0.022,0.06 -0.045,0.171 -0.045,0.266c0,0.081 0.018,0.168 0.088,0.168c0.022,0 0.042,-0.01 0.062,-0.024c0.081,-0.057 0.11,-0.131 0.11,-0.205c0,-0.078 -0.031,-0.155 -0.063,-0.206l0.14,-0.001l0.003,-0.063l-0.205,0Zm0.052,0.262c0,0.06 -0.019,0.117 -0.069,0.152c-0.006,0.005 -0.012,0.006 -0.016,0.006c-0.022,0 -0.03,-0.038 -0.03,-0.091c0,-0.084 0.02,-0.203 0.043,-0.265l0.009,0c0.025,0.018 0.063,0.109 0.063,0.198Z" style="fill:#5a64d8;fill-rule:nonzero;"/></g><g transform="matrix(13,0,0,13,343.317,49.2914)"><path d="M0.254,-0.612c-0.005,0.035 0.011,0.053 0.045,0.053c0.033,0 0.054,-0.018 0.059,-0.053c0.005,-0.033 -0.011,-0.051 -0.044,-0.051c-0.033,0 -0.055,0.018 -0.06,0.051Zm0.152,0.48c-0.029,0.049 -0.074,0.078 -0.115,0.078c-0.052,0 -0.069,-0.038 -0.058,-0.108c0.014,-0.08 0.057,-0.229 0.077,-0.313l-0.164,0.009l-0.014,0.051l0.094,-0.003c-0.022,0.083 -0.051,0.191 -0.064,0.256c-0.02,0.105 0.02,0.175 0.116,0.175c0.072,0 0.116,-0.057 0.146,-0.12l-0.018,-0.025Z" style="fill:#5a64d8;fill-rule:nonzero;"/></g><g transform="matrix(13,0,0,13,350.467,49.2914)"><path d="M0.193,-0.448l-0.071,0.026c0.026,0.017 0.046,0.03 0.037,0.076l-0.065,0.346l0.068,0l0.058,-0.287c0.029,-0.071 0.162,-0.135 0.234,-0.096l0.054,-0.069c-0.049,-0.023 -0.077,-0.023 -0.098,-0.023c-0.034,0 -0.135,0.034 -0.18,0.099c0.007,-0.042 -0.021,-0.057 -0.037,-0.072Z" style="fill:#5a64d8;fill-rule:nonzero;"/></g><g transform="matrix(13,0,0,13,357.617,49.2914)"><path d="M0.377,-0.304c-0.027,-0.035 -0.035,-0.054 -0.035,-0.08c0,-0.029 0.007,-0.046 0.024,-0.091l-0.091,0c-0.048,0.138 -0.132,0.26 -0.222,0.325l0.052,0.055c0.052,-0.039 0.122,-0.132 0.181,-0.236c0.006,0.027 0.016,0.041 0.041,0.076c0.04,0.059 0.064,0.098 0.064,0.128c0,0.044 -0.043,0.074 -0.104,0.074c-0.013,0 -0.029,-0.001 -0.037,-0.003c-0.021,-0.002 -0.042,-0.01 -0.057,-0.02l-0.032,0.059c0.03,0.016 0.086,0.029 0.128,0.029c0.096,0 0.17,-0.061 0.17,-0.14c0,-0.039 -0.03,-0.114 -0.082,-0.176Z" style="fill:#5a64d8;fill-rule:nonzero;"/></g><g transform="matrix(13,0,0,13,364.767,49.2914)"><path d="M0.231,-0.162c0.007,-0.036 0.024,-0.12 0.044,-0.21l0.01,-0.045l0.151,0l0.008,-0.058l-0.147,0c0.017,-0.075 0.03,-0.142 0.035,-0.175l-0.07,0c-0.004,0.033 -0.018,0.1 -0.035,0.175l-0.092,0l-0.008,0.058l0.088,0c-0.003,0.017 -0.008,0.033 -0.011,0.05c-0.019,0.088 -0.038,0.17 -0.044,0.205c-0.003,0.014 -0.004,0.026 -0.005,0.039c-0.004,0.083 0.037,0.136 0.121,0.136c0.071,0 0.116,-0.057 0.146,-0.12l-0.019,-0.025c-0.029,0.049 -0.074,0.078 -0.115,0.078c-0.046,0 -0.065,-0.03 -0.06,-0.086c0,-0.007 0.001,-0.014 0.003,-0.022Z" style="fill:#5a64d8;fill-rule:nonzero;"/></g><g transform="matrix(13,0,0,13,371.917,49.2914)"><rect x="0.121" y="-0.275" width="0.309" height="0.058" style="fill:#5a64d8;fill-rule:nonzero;"/></g><g transform="matrix(13,0,0,13,379.067,49.2914)"><path d="M0.412,-0.044l-0.028,-0.048c-0.027,0.022 -0.079,0.038 -0.122,0.038c-0.079,0 -0.116,-0.031 -0.116,-0.099c0,-0.111 0.077,-0.269 0.181,-0.269c0.043,0 0.068,0.03 0.068,0.071c0,0.01 -0.002,0.021 -0.004,0.032l0.092,-0.015c0.001,-0.006 0.001,-0.012 0.001,-0.018c0,-0.078 -0.063,-0.136 -0.15,-0.136c-0.152,0 -0.265,0.167 -0.265,0.326c0,0.11 0.068,0.174 0.191,0.174c0.032,0 0.085,-0.019 0.152,-0.056Z" style="fill:#5a64d8;fill-rule:nonzero;"/></g><g transform="matrix(13,0,0,13,386.217,49.2914)"><path d="M0.309,-0.054c-0.042,0 -0.061,-0.024 -0.061,-0.071c0,-0.011 0.001,-0.023 0.004,-0.037c0.006,-0.035 0.012,-0.07 0.019,-0.101c0.133,-0.099 0.183,-0.183 0.183,-0.284c0,-0.066 -0.05,-0.116 -0.089,-0.116c-0.05,0 -0.103,0.148 -0.143,0.372c-0.045,0.044 -0.086,0.054 -0.135,0.075l0.01,0.047c0.042,-0.018 0.075,-0.034 0.11,-0.057c-0.009,0.041 -0.019,0.079 -0.019,0.124c0,0.075 0.029,0.115 0.109,0.115c0.074,0 0.118,-0.057 0.148,-0.12l-0.018,-0.025c-0.03,0.049 -0.075,0.078 -0.118,0.078Zm0.066,-0.53c0.022,0 0.027,0.031 0.027,0.052c0,0.051 -0.04,0.121 -0.115,0.194c0.033,-0.153 0.066,-0.246 0.088,-0.246Z" style="fill:#5a64d8;fill-rule:nonzero;"/></g><g transform="matrix(13,0,0,13,393.367,49.2914)"><path d="M0.397,-0.148c-0.041,0.059 -0.092,0.093 -0.15,0.093c-0.095,0 -0.145,-0.07 -0.126,-0.179c0.02,-0.112 0.094,-0.193 0.176,-0.193c0.058,0 0.095,0.036 0.127,0.122l0.014,-0.081c-0.02,-0.066 -0.07,-0.102 -0.141,-0.102c-0.122,0 -0.218,0.099 -0.245,0.254c-0.026,0.15 0.045,0.247 0.181,0.247c0.053,0 0.098,-0.019 0.144,-0.051l0.02,-0.11Zm-0.026,0.148l0.076,0c-0.005,-0.017 0.001,-0.037 0.005,-0.055l0.073,-0.42l-0.071,0l-0.083,0.475Z" style="fill:#5a64d8;fill-rule:nonzero;"/></g><g transform="matrix(13,0,0,13,400.517,49.2914)"><path d="M0.377,-0.304c-0.027,-0.035 -0.035,-0.054 -0.035,-0.08c0,-0.029 0.007,-0.046 0.024,-0.091l-0.091,0c-0.048,0.138 -0.132,0.26 -0.222,0.325l0.052,0.055c0.052,-0.039 0.122,-0.132 0.181,-0.236c0.006,0.027 0.016,0.041 0.041,0.076c0.04,0.059 0.064,0.098 0.064,0.128c0,0.044 -0.043,0.074 -0.104,0.074c-0.013,0 -0.029,-0.001 -0.037,-0.003c-0.021,-0.002 -0.042,-0.01 -0.057,-0.02l-0.032,0.059c0.03,0.016 0.086,0.029 0.128,0.029c0.096,0 0.17,-0.061 0.17,-0.14c0,-0.039 -0.03,-0.114 -0.082,-0.176Z" style="fill:#5a64d8;fill-rule:nonzero;"/></g><g transform="matrix(13,0,0,13,407.667,49.2914)"><path d="M0.377,-0.304c-0.027,-0.035 -0.035,-0.054 -0.035,-0.08c0,-0.029 0.007,-0.046 0.024,-0.091l-0.091,0c-0.048,0.138 -0.132,0.26 -0.222,0.325l0.052,0.055c0.052,-0.039 0.122,-0.132 0.181,-0.236c0.006,0.027 0.016,0.041 0.041,0.076c0.04,0.059 0.064,0.098 0.064,0.128c0,0.044 -0.043,0.074 -0.104,0.074c-0.013,0 -0.029,-0.001 -0.037,-0.003c-0.021,-0.002 -0.042,-0.01 -0.057,-0.02l-0.032,0.059c0.03,0.016 0.086,0.029 0.128,0.029c0.096,0 0.17,-0.061 0.17,-0.14c0,-0.039 -0.03,-0.114 -0.082,-0.176Z" style="fill:#5a64d8;fill-rule:nonzero;"/></g><g transform="matrix(13,0,0,13,421.967,49.2914)"><path d="M0.247,-0.321c0.058,-0.178 0.071,-0.272 0.125,-0.272c0.031,0 0.06,0.03 0.06,0.068c0,0.013 -0.004,0.027 -0.011,0.041l0.024,0.014c0.027,-0.028 0.038,-0.06 0.038,-0.088c0,-0.062 -0.053,-0.105 -0.113,-0.105c-0.118,0 -0.145,0.196 -0.189,0.343l-0.108,0l0,0.064l0.084,0c-0.022,0.06 -0.045,0.171 -0.045,0.266c0,0.081 0.018,0.168 0.088,0.168c0.022,0 0.042,-0.01 0.062,-0.024c0.081,-0.057 0.11,-0.131 0.11,-0.205c0,-0.078 -0.031,-0.155 -0.063,-0.206l0.14,-0.001l0.003,-0.063l-0.205,0Zm0.052,0.262c0,0.06 -0.019,0.117 -0.069,0.152c-0.006,0.005 -0.012,0.006 -0.016,0.006c-0.022,0 -0.03,-0.038 -0.03,-0.091c0,-0.084 0.02,-0.203 0.043,-0.265l0.009,0c0.025,0.018 0.063,0.109 0.063,0.198Z" style="fill:#5a64d8;fill-rule:nonzero;"/></g><g transform="matrix(13,0,0,13,429.117,49.2914)"><path d="M0.509,-0.475l-0.071,0l-0.072,0.376l0.007,-0.04c-0.046,0.057 -0.074,0.089 -0.126,0.089c-0.078,0 -0.119,-0.072 -0.103,-0.152l0.053,-0.274l-0.076,0l-0.049,0.256c-0.025,0.126 0.028,0.233 0.13,0.233c0.06,0 0.122,-0.032 0.158,-0.081l-0.013,0.068l0.075,0c-0.005,-0.017 0.002,-0.037 0.006,-0.055l0.081,-0.42Z" style="fill:#5a64d8;fill-rule:nonzero;"/></g><g transform="matrix(13,0,0,13,436.267,49.2914)"><path d="M0.471,-0.066c-0.024,0.011 -0.037,0.014 -0.044,0.014c-0.009,0 -0.015,-0.006 -0.01,-0.024c0.005,-0.021 0.027,-0.086 0.056,-0.199c0.029,-0.115 -0.027,-0.213 -0.121,-0.213c-0.078,0 -0.134,0.046 -0.187,0.156l-0.017,0.094l-0.002,0.016c0.07,-0.144 0.119,-0.2 0.181,-0.2c0.068,0 0.102,0.072 0.08,0.157c-0.036,0.146 -0.05,0.21 -0.054,0.22c-0.006,0.033 0.005,0.058 0.032,0.058c0,0 0.049,-0.001 0.097,-0.048l-0.011,-0.031Zm-0.306,-0.266l0.015,-0.085c0.003,-0.021 0.021,-0.047 0.028,-0.058l-0.089,0l-0.083,0.475l0.071,0l0.041,-0.238l0.017,-0.094Z" style="fill:#5a64d8;fill-rule:nonzero;"/></g><g transform="matrix(13,0,0,13,443.417,49.2914)"><path d="M0.412,-0.044l-0.028,-0.048c-0.027,0.022 -0.079,0.038 -0.122,0.038c-0.079,0 -0.116,-0.031 -0.116,-0.099c0,-0.111 0.077,-0.269 0.181,-0.269c0.043,0 0.068,0.03 0.068,0.071c0,0.01 -0.002,0.021 -0.004,0.032l0.092,-0.015c0.001,-0.006 0.001,-0.012 0.001,-0.018c0,-0.078 -0.063,-0.136 -0.15,-0.136c-0.152,0 -0.265,0.167 -0.265,0.326c0,0.11 0.068,0.174 0.191,0.174c0.032,0 0.085,-0.019 0.152,-0.056Z" style="fill:#5a64d8;fill-rule:nonzero;"/></g><g transform="matrix(13,0,0,13,450.567,49.2914)"><path d="M0.231,-0.162c0.007,-0.036 0.024,-0.12 0.044,-0.21l0.01,-0.045l0.151,0l0.008,-0.058l-0.147,0c0.017,-0.075 0.03,-0.142 0.035,-0.175l-0.07,0c-0.004,0.033 -0.018,0.1 -0.035,0.175l-0.092,0l-0.008,0.058l0.088,0c-0.003,0.017 -0.008,0.033 -0.011,0.05c-0.019,0.088 -0.038,0.17 -0.044,0.205c-0.003,0.014 -0.004,0.026 -0.005,0.039c-0.004,0.083 0.037,0.136 0.121,0.136c0.071,0 0.116,-0.057 0.146,-0.12l-0.019,-0.025c-0.029,0.049 -0.074,0.078 -0.115,0.078c-0.046,0 -0.065,-0.03 -0.06,-0.086c0,-0.007 0.001,-0.014 0.003,-0.022Z" style="fill:#5a64d8;fill-rule:nonzero;"/></g><g transform="matrix(13,0,0,13,457.717,49.2914)"><path d="M0.254,-0.612c-0.005,0.035 0.011,0.053 0.045,0.053c0.033,0 0.054,-0.018 0.059,-0.053c0.005,-0.033 -0.011,-0.051 -0.044,-0.051c-0.033,0 -0.055,0.018 -0.06,0.051Zm0.152,0.48c-0.029,0.049 -0.074,0.078 -0.115,0.078c-0.052,0 -0.069,-0.038 -0.058,-0.108c0.014,-0.08 0.057,-0.229 0.077,-0.313l-0.164,0.009l-0.014,0.051l0.094,-0.003c-0.022,0.083 -0.051,0.191 -0.064,0.256c-0.02,0.105 0.02,0.175 0.116,0.175c0.072,0 0.116,-0.057 0.146,-0.12l-0.018,-0.025Z" style="fill:#5a64d8;fill-rule:nonzero;"/></g><g transform="matrix(13,0,0,13,464.867,49.2914)"><path d="M0.242,0.013c0.131,0 0.231,-0.1 0.252,-0.251c0.021,-0.152 -0.052,-0.25 -0.187,-0.25c-0.133,0 -0.229,0.092 -0.25,0.241c-0.021,0.158 0.051,0.26 0.185,0.26Zm0.002,-0.061c-0.082,0 -0.122,-0.072 -0.105,-0.19c0.018,-0.122 0.078,-0.191 0.164,-0.192c0.087,-0.001 0.129,0.064 0.112,0.183c-0.018,0.125 -0.082,0.199 -0.171,0.199Z" style="fill:#5a64d8;fill-rule:nonzero;"/></g><g transform="matrix(13,0,0,13,472.017,49.2914)"><path d="M0.471,-0.066c-0.024,0.011 -0.037,0.014 -0.044,0.014c-0.009,0 -0.015,-0.006 -0.01,-0.024c0.005,-0.021 0.027,-0.086 0.056,-0.199c0.029,-0.115 -0.027,-0.213 -0.121,-0.213c-0.078,0 -0.134,0.046 -0.187,0.156l-0.017,0.094l-0.002,0.016c0.07,-0.144 0.119,-0.2 0.181,-0.2c0.068,0 0.102,0.072 0.08,0.157c-0.036,0.146 -0.05,0.21 -0.054,0.22c-0.006,0.033 0.005,0.058 0.032,0.058c0,0 0.049,-0.001 0.097,-0.048l-0.011,-0.031Zm-0.306,-0.266l0.015,-0.085c0.003,-0.021 0.021,-0.047 0.028,-0.058l-0.089,0l-0.083,0.475l0.071,0l0.041,-0.238l0.017,-0.094Z" style="fill:#5a64d8;fill-rule:nonzero;"/></g><g transform="matrix(13,0,0,13,479.167,49.2914)"><path d="M0.377,-0.304c-0.027,-0.035 -0.035,-0.054 -0.035,-0.08c0,-0.029 0.007,-0.046 0.024,-0.091l-0.091,0c-0.048,0.138 -0.132,0.26 -0.222,0.325l0.052,0.055c0.052,-0.039 0.122,-0.132 0.181,-0.236c0.006,0.027 0.016,0.041 0.041,0.076c0.04,0.059 0.064,0.098 0.064,0.128c0,0.044 -0.043,0.074 -0.104,0.074c-0.013,0 -0.029,-0.001 -0.037,-0.003c-0.021,-0.002 -0.042,-0.01 -0.057,-0.02l-0.032,0.059c0.03,0.016 0.086,0.029 0.128,0.029c0.096,0 0.17,-0.061 0.17,-0.14c0,-0.039 -0.03,-0.114 -0.082,-0.176Z" style="fill:#5a64d8;fill-rule:nonzero;"/></g></g><g transform="matrix(1,0,0,1,-31.0736,-10.2769)"><g transform="matrix(14,0,0,14,317.769,49.2914)"><path d="M0.309,0.018c-0.031,-0.055 -0.054,-0.095 -0.07,-0.121l-0.026,-0.04l-0.02,-0.03c-0.042,-0.066 -0.087,-0.121 -0.133,-0.164c0.026,-0.022 0.051,-0.033 0.074,-0.033c0.028,0 0.053,0.01 0.074,0.031c0.022,0.02 0.05,0.059 0.083,0.117c0.038,-0.123 0.086,-0.239 0.144,-0.349c0.032,-0.06 0.061,-0.1 0.086,-0.121c0.025,-0.021 0.059,-0.031 0.101,-0.031c0.022,0 0.049,0.003 0.082,0.01c-0.084,0.067 -0.151,0.148 -0.201,0.24c-0.05,0.093 -0.115,0.257 -0.194,0.491Z" style="fill:#00b27d;fill-rule:nonzero;"/></g><g transform="matrix(14,0,0,14,336.167,49.2914)"><path d="M0.377,-0.304c-0.027,-0.035 -0.035,-0.054 -0.035,-0.08c0,-0.029 0.007,-0.046 0.024,-0.091l-0.091,0c-0.048,0.138 -0.132,0.26 -0.222,0.325l0.052,0.055c0.052,-0.039 0.122,-0.132 0.181,-0.236c0.006,0.027 0.016,0.041 0.041,0.076c0.04,0.059 0.064,0.098 0.064,0.128c0,0.044 -0.043,0.074 -0.104,0.074c-0.013,0 -0.029,-0.001 -0.037,-0.003c-0.021,-0.002 -0.042,-0.01 -0.057,-0.02l-0.032,0.059c0.03,0.016 0.086,0.029 0.128,0.029c0.096,0 0.17,-0.061 0.17,-0.14c0,-0.039 -0.03,-0.114 -0.082,-0.176Z" style="fill:#5a64d8;fill-rule:nonzero;"/></g><g transform="matrix(14,0,0,14,343.867,49.2914)"><path d="M0.231,-0.162c0.007,-0.036 0.024,-0.12 0.044,-0.21l0.01,-0.045l0.151,0l0.008,-0.058l-0.147,0c0.017,-0.075 0.03,-0.142 0.035,-0.175l-0.07,0c-0.004,0.033 -0.018,0.1 -0.035,0.175l-0.092,0l-0.008,0.058l0.088,0c-0.003,0.017 -0.008,0.033 -0.011,0.05c-0.019,0.088 -0.038,0.17 -0.044,0.205c-0.003,0.014 -0.004,0.026 -0.005,0.039c-0.004,0.083 0.037,0.136 0.121,0.136c0.071,0 0.116,-0.057 0.146,-0.12l-0.019,-0.025c-0.029,0.049 -0.074,0.078 -0.115,0.078c-0.046,0 -0.065,-0.03 -0.06,-0.086c0,-0.007 0.001,-0.014 0.003,-0.022Z" style="fill:#5a64d8;fill-rule:nonzero;"/></g><g transform="matrix(14,0,0,14,351.567,49.2914)"><path d="M0.193,-0.448l-0.071,0.026c0.026,0.017 0.046,0.03 0.037,0.076l-0.065,0.346l0.068,0l0.058,-0.287c0.029,-0.071 0.162,-0.135 0.234,-0.096l0.054,-0.069c-0.049,-0.023 -0.077,-0.023 -0.098,-0.023c-0.034,0 -0.135,0.034 -0.18,0.099c0.007,-0.042 -0.021,-0.057 -0.037,-0.072Z" style="fill:#5a64d8;fill-rule:nonzero;"/></g><g transform="matrix(14,0,0,14,359.267,49.2914)"><path d="M0.509,-0.475l-0.071,0l-0.072,0.376l0.007,-0.04c-0.046,0.057 -0.074,0.089 -0.126,0.089c-0.078,0 -0.119,-0.072 -0.103,-0.152l0.053,-0.274l-0.076,0l-0.049,0.256c-0.025,0.126 0.028,0.233 0.13,0.233c0.06,0 0.122,-0.032 0.158,-0.081l-0.013,0.068l0.075,0c-0.005,-0.017 0.002,-0.037 0.006,-0.055l0.081,-0.42Z" style="fill:#5a64d8;fill-rule:nonzero;"/></g><g transform="matrix(14,0,0,14,366.967,49.2914)"><path d="M0.412,-0.044l-0.028,-0.048c-0.027,0.022 -0.079,0.038 -0.122,0.038c-0.079,0 -0.116,-0.031 -0.116,-0.099c0,-0.111 0.077,-0.269 0.181,-0.269c0.043,0 0.068,0.03 0.068,0.071c0,0.01 -0.002,0.021 -0.004,0.032l0.092,-0.015c0.001,-0.006 0.001,-0.012 0.001,-0.018c0,-0.078 -0.063,-0.136 -0.15,-0.136c-0.152,0 -0.265,0.167 -0.265,0.326c0,0.11 0.068,0.174 0.191,0.174c0.032,0 0.085,-0.019 0.152,-0.056Z" style="fill:#5a64d8;fill-rule:nonzero;"/></g><g transform="matrix(14,0,0,14,374.667,49.2914)"><path d="M0.231,-0.162c0.007,-0.036 0.024,-0.12 0.044,-0.21l0.01,-0.045l0.151,0l0.008,-0.058l-0.147,0c0.017,-0.075 0.03,-0.142 0.035,-0.175l-0.07,0c-0.004,0.033 -0.018,0.1 -0.035,0.175l-0.092,0l-0.008,0.058l0.088,0c-0.003,0.017 -0.008,0.033 -0.011,0.05c-0.019,0.088 -0.038,0.17 -0.044,0.205c-0.003,0.014 -0.004,0.026 -0.005,0.039c-0.004,0.083 0.037,0.136 0.121,0.136c0.071,0 0.116,-0.057 0.146,-0.12l-0.019,-0.025c-0.029,0.049 -0.074,0.078 -0.115,0.078c-0.046,0 -0.065,-0.03 -0.06,-0.086c0,-0.007 0.001,-0.014 0.003,-0.022Z" style="fill:#5a64d8;fill-rule:nonzero;"/></g><g transform="matrix(14,0,0,14,382.367,49.2914)"><path d="M0.509,-0.475l-0.071,0l-0.072,0.376l0.007,-0.04c-0.046,0.057 -0.074,0.089 -0.126,0.089c-0.078,0 -0.119,-0.072 -0.103,-0.152l0.053,-0.274l-0.076,0l-0.049,0.256c-0.025,0.126 0.028,0.233 0.13,0.233c0.06,0 0.122,-0.032 0.158,-0.081l-0.013,0.068l0.075,0c-0.005,-0.017 0.002,-0.037 0.006,-0.055l0.081,-0.42Z" style="fill:#5a64d8;fill-rule:nonzero;"/></g><g transform="matrix(14,0,0,14,390.067,49.2914)"><path d="M0.193,-0.448l-0.071,0.026c0.026,0.017 0.046,0.03 0.037,0.076l-0.065,0.346l0.068,0l0.058,-0.287c0.029,-0.071 0.162,-0.135 0.234,-0.096l0.054,-0.069c-0.049,-0.023 -0.077,-0.023 -0.098,-0.023c-0.034,0 -0.135,0.034 -0.18,0.099c0.007,-0.042 -0.021,-0.057 -0.037,-0.072Z" style="fill:#5a64d8;fill-rule:nonzero;"/></g><g transform="matrix(14,0,0,14,397.767,49.2914)"><path d="M0.397,-0.148c-0.041,0.059 -0.092,0.093 -0.15,0.093c-0.095,0 -0.145,-0.07 -0.126,-0.179c0.02,-0.112 0.094,-0.193 0.176,-0.193c0.058,0 0.095,0.036 0.127,0.122l0.014,-0.081c-0.02,-0.066 -0.07,-0.102 -0.141,-0.102c-0.122,0 -0.218,0.099 -0.245,0.254c-0.026,0.15 0.045,0.247 0.181,0.247c0.053,0 0.098,-0.019 0.144,-0.051l0.02,-0.11Zm-0.026,0.148l0.076,0c-0.005,-0.017 0.001,-0.037 0.005,-0.055l0.073,-0.42l-0.071,0l-0.083,0.475Z" style="fill:#5a64d8;fill-rule:nonzero;"/></g><g transform="matrix(14,0,0,14,405.467,49.2914)"><path d="M0.309,-0.054c-0.042,0 -0.061,-0.024 -0.061,-0.071c0,-0.011 0.001,-0.023 0.004,-0.037c0.006,-0.035 0.012,-0.07 0.019,-0.101c0.133,-0.099 0.183,-0.183 0.183,-0.284c0,-0.066 -0.05,-0.116 -0.089,-0.116c-0.05,0 -0.103,0.148 -0.143,0.372c-0.045,0.044 -0.086,0.054 -0.135,0.075l0.01,0.047c0.042,-0.018 0.075,-0.034 0.11,-0.057c-0.009,0.041 -0.019,0.079 -0.019,0.124c0,0.075 0.029,0.115 0.109,0.115c0.074,0 0.118,-0.057 0.148,-0.12l-0.018,-0.025c-0.03,0.049 -0.075,0.078 -0.118,0.078Zm0.066,-0.53c0.022,0 0.027,0.031 0.027,0.052c0,0.051 -0.04,0.121 -0.115,0.194c0.033,-0.153 0.066,-0.246 0.088,-0.246Z" style="fill:#5a64d8;fill-rule:nonzero;"/></g><g transform="matrix(14,0,0,14,420.867,49.2914)"><path d="M0.231,-0.162c0.007,-0.036 0.024,-0.12 0.044,-0.21l0.01,-0.045l0.151,0l0.008,-0.058l-0.147,0c0.017,-0.075 0.03,-0.142 0.035,-0.175l-0.07,0c-0.004,0.033 -0.018,0.1 -0.035,0.175l-0.092,0l-0.008,0.058l0.088,0c-0.003,0.017 -0.008,0.033 -0.011,0.05c-0.019,0.088 -0.038,0.17 -0.044,0.205c-0.003,0.014 -0.004,0.026 -0.005,0.039c-0.004,0.083 0.037,0.136 0.121,0.136c0.071,0 0.116,-0.057 0.146,-0.12l-0.019,-0.025c-0.029,0.049 -0.074,0.078 -0.115,0.078c-0.046,0 -0.065,-0.03 -0.06,-0.086c0,-0.007 0.001,-0.014 0.003,-0.022Z" style="fill:#5a64d8;fill-rule:nonzero;"/></g><g transform="matrix(14,0,0,14,428.567,49.2914)"><path d="M0.44,-0.475c-0.026,0.072 -0.103,0.22 -0.183,0.362c-0.032,-0.134 -0.074,-0.274 -0.072,-0.362l-0.069,0c-0.001,0.109 0.06,0.288 0.093,0.446l-0.042,0.072c-0.03,0.056 -0.07,0.086 -0.118,0.076l-0.018,0.055c0.084,0.015 0.146,-0.016 0.195,-0.102c0.109,-0.184 0.25,-0.441 0.293,-0.547l-0.079,0Z" style="fill:#5a64d8;fill-rule:nonzero;"/></g><g transform="matrix(14,0,0,14,436.267,49.2914)"><path d="M0.34,-0.488c-0.072,0 -0.134,0.036 -0.178,0.101l-0.014,0.081c0.061,-0.085 0.112,-0.121 0.169,-0.121c0.083,0 0.129,0.081 0.109,0.193c-0.019,0.109 -0.093,0.179 -0.189,0.179c-0.057,0 -0.096,-0.034 -0.117,-0.092l-0.019,0.109c0.035,0.032 0.073,0.051 0.126,0.051c0.136,0 0.242,-0.097 0.268,-0.247c0.027,-0.155 -0.033,-0.254 -0.155,-0.254Zm-0.22,0.34l0,0.001l0.028,-0.159c-0.001,0 -0.001,0.001 -0.001,0.001l0.015,-0.081l0,-0.001l0.005,-0.03c0.004,-0.021 0.021,-0.047 0.029,-0.058l-0.089,0l-0.114,0.647l0.072,-0.005l0.036,-0.205l0.019,-0.11Z" style="fill:#5a64d8;fill-rule:nonzero;"/></g><g transform="matrix(14,0,0,14,443.967,49.2914)"><path d="M0.254,-0.612c-0.005,0.035 0.011,0.053 0.045,0.053c0.033,0 0.054,-0.018 0.059,-0.053c0.005,-0.033 -0.011,-0.051 -0.044,-0.051c-0.033,0 -0.055,0.018 -0.06,0.051Zm0.152,0.48c-0.029,0.049 -0.074,0.078 -0.115,0.078c-0.052,0 -0.069,-0.038 -0.058,-0.108c0.014,-0.08 0.057,-0.229 0.077,-0.313l-0.164,0.009l-0.014,0.051l0.094,-0.003c-0.022,0.083 -0.051,0.191 -0.064,0.256c-0.02,0.105 0.02,0.175 0.116,0.175c0.072,0 0.116,-0.057 0.146,-0.12l-0.018,-0.025Z" style="fill:#5a64d8;fill-rule:nonzero;"/></g><g transform="matrix(14,0,0,14,451.667,49.2914)"><path d="M0.471,-0.066c-0.024,0.011 -0.037,0.014 -0.044,0.014c-0.009,0 -0.015,-0.006 -0.01,-0.024c0.005,-0.021 0.027,-0.086 0.056,-0.199c0.029,-0.115 -0.027,-0.213 -0.121,-0.213c-0.078,0 -0.134,0.046 -0.187,0.156l-0.017,0.094l-0.002,0.016c0.07,-0.144 0.119,-0.2 0.181,-0.2c0.068,0 0.102,0.072 0.08,0.157c-0.036,0.146 -0.05,0.21 -0.054,0.22c-0.006,0.033 0.005,0.058 0.032,0.058c0,0 0.049,-0.001 0.097,-0.048l-0.011,-0.031Zm-0.306,-0.266l0.015,-0.085c0.003,-0.021 0.021,-0.047 0.028,-0.058l-0.089,0l-0.083,0.475l0.071,0l0.041,-0.238l0.017,-0.094Z" style="fill:#5a64d8;fill-rule:nonzero;"/></g><g transform="matrix(14,0,0,14,459.367,49.2914)"><path d="M0.457,-0.475l-0.01,0.058c-0.025,-0.048 -0.066,-0.071 -0.129,-0.071c-0.132,0 -0.233,0.084 -0.259,0.215c-0.026,0.134 0.046,0.227 0.174,0.227c0.048,0 0.101,-0.019 0.152,-0.053l-0.019,0.099c-0.012,0.057 -0.076,0.086 -0.159,0.086c-0.04,0 -0.072,-0.007 -0.099,-0.018l-0.056,0.051c0.038,0.019 0.087,0.031 0.142,0.031c0.12,0 0.225,-0.059 0.243,-0.15l0.08,-0.42c0.005,-0.018 0.011,-0.038 0.016,-0.055l-0.076,0Zm-0.211,0.362c-0.083,0 -0.134,-0.071 -0.118,-0.16c0.017,-0.087 0.095,-0.154 0.179,-0.154c0.059,0 0.104,0.033 0.123,0.092l-0.028,0.143c-0.036,0.05 -0.095,0.079 -0.156,0.079Z" style="fill:#5a64d8;fill-rule:nonzero;"/></g></g></g></svg>