<?xml version="1.0" encoding="UTF-8" standalone="no"?><!DOCTYPE svg PUBLIC "-//W3C//DTD SVG 1.1//EN" "http://www.w3.org/Graphics/SVG/1.1/DTD/svg11.dtd"><svg width="100%" height="100%" viewBox="0 0 32 32" version="1.1" xmlns="http://www.w3.org/2000/svg" xmlns:xlink="http://www.w3.org/1999/xlink" xml:space="preserve" xmlns:serif="http://www.serif.com/" style="fill-rule:evenodd;clip-rule:evenodd;stroke-linecap:round;"><g id="icon"><path id="ellipse4216" d="M31.584,3.82c-0.972,-1.72 -3.251,-2.275 -5.087,-1.238c-1.837,1.037 -2.539,3.275 -1.568,4.996c0.972,1.72 3.251,2.275 5.087,1.238c1.837,-1.037 2.539,-3.275 1.568,-4.996Z" style="fill:#525ccb;"/><path id="ellipse4463" d="M0.51,3.82c0.971,-1.72 3.251,-2.275 5.087,-1.238c1.836,1.037 2.538,3.275 1.567,4.996c-0.971,1.72 -3.251,2.275 -5.087,1.238c-1.836,-1.037 -2.538,-3.275 -1.567,-4.996Z" style="fill:#525ccb;"/><path id="path4465" d="M16.092,1.002c-1.106,0.01 -2.211,0.049 -3.316,0.09c-5.934,0.22 -10.776,4.94 -10.776,10.908l0,20l28,0l0,-20c0,-5.968 -4.667,-10.491 -10.59,-10.908c-1.106,-0.078 -2.213,-0.099 -3.318,-0.09Z" style="fill:#525ccb;fill-rule:nonzero;"/><path id="path4469" d="M4.608,4.684c0.459,0.259 1.818,1.201 1.981,1.648c0.183,0.503 0.159,1.066 -0.115,1.551c-0.346,0.614 -1.005,0.949 -1.696,0.936c-0.34,-0.01 -1.72,-0.637 -2.043,-0.819c-0.977,-0.552 -1.351,-1.742 -0.833,-2.657c0.517,-0.916 1.728,-1.211 2.706,-0.659Z" style="fill:#9198e5;fill-rule:nonzero;"/><rect id="rect4473" x="14.406" y="15.322" width="3.087" height="3.531" style="fill-opacity:0.33;"/><path id="path4471" d="M16,3c-9,0 -12,3.715 -12,9l0,20l24,0c-0.049,-7.356 0,-18 0,-20c0,-5.285 -3,-9 -12,-9Z" style="fill:#9198e5;fill-rule:nonzero;"/><path id="path4481" d="M27.074,4.684c-0.459,0.259 -1.818,1.201 -1.981,1.648c-0.183,0.503 -0.159,1.066 0.115,1.551c0.346,0.614 1.005,0.949 1.696,0.936c0.34,-0.01 1.72,-0.637 2.043,-0.819c0.977,-0.552 1.35,-1.742 0.833,-2.657c-0.517,-0.916 -1.728,-1.211 -2.706,-0.659Z" style="fill:#9198e5;fill-rule:nonzero;"/><circle id="circle4477" cx="21.176" cy="9.992" r="4.654" style="fill:#fff;"/><circle id="circle4483" cx="10.339" cy="9.992" r="4.832" style="fill:#fff;"/><rect id="rect4246" x="14.116" y="15.555" width="3.667" height="4.106" style="fill-opacity:0.33;"/><rect id="rect4485" x="14.116" y="14.863" width="3.667" height="4.106" style="fill:#fffcfb;"/><path id="path4487" d="M20,16.167c0,0.838 -0.871,1.268 -2.145,1.166c-0.024,0 -0.048,-0.601 -0.254,-0.584c-0.504,0.042 -1.096,-0.02 -1.686,-0.02c-0.613,0 -1.206,0.183 -1.686,0.017c-0.11,-0.038 -0.178,0.584 -0.261,0.582c-1.244,-0.033 -2.079,-0.338 -2.079,-1.162c0,-1.212 1.816,-2.194 4.055,-2.194c2.24,0 4.056,0.982 4.056,2.194l0,0.001Z" style="fill-opacity:0.33;fill-rule:nonzero;"/><path id="path4489" d="M19.977,15.338c0,0.569 -0.433,0.856 -1.138,1c-0.292,0.06 -0.63,0.096 -1.003,0.117c-0.564,0.032 -1.208,0.031 -1.892,0.031c-0.672,0 -1.307,0 -1.865,-0.029c-0.306,-0.017 -0.589,-0.043 -0.843,-0.084c-0.814,-0.132 -1.325,-0.417 -1.325,-1.035c0,-1.16 1.806,-2.1 4.033,-2.1c2.228,0 4.033,0.94 4.033,2.1l0,0Z" style="fill:#ff4500;fill-rule:nonzero;"/><ellipse id="ellipse4491" cx="15.944" cy="13.488" rx="2.08" ry="1.344" style="fill:#23201f;"/><circle id="circle4493" cx="12.414" cy="9.992" r="1.963" style="fill:#171311;"/><circle id="circle4495" cx="23.11" cy="9.992" r="1.963" style="fill:#171311;"/><path id="path4497" d="M5.006,6.91c-1.171,-1.083 -2.027,-0.772 -2.045,-0.746" style="fill:#525ccb;stroke:#525ccb;stroke-width:0.4px;"/><path id="path4499" d="M4.385,6.553c-1.158,0.036 -1.346,0.63 -1.339,0.652" style="fill:#525ccb;stroke:#525ccb;stroke-width:0.4px;"/><path id="path4501" d="M26.631,6.81c1.17,-1.083 2.027,-0.772 2.044,-0.746" style="fill:#525ccb;stroke:#525ccb;stroke-width:0.4px;"/><path id="path4503" d="M27.322,6.311c1.158,0.036 1.346,0.63 1.339,0.652" style="fill:#525ccb;stroke:#525ccb;stroke-width:0.4px;"/></g></svg>