<?xml version="1.0" encoding="UTF-8" standalone="no"?><!DOCTYPE svg PUBLIC "-//W3C//DTD SVG 1.1//EN" "http://www.w3.org/Graphics/SVG/1.1/DTD/svg11.dtd"><svg width="100%" height="100%" viewBox="0 0 600 600" version="1.1" xmlns="http://www.w3.org/2000/svg" xmlns:xlink="http://www.w3.org/1999/xlink" xml:space="preserve" style="fill-rule:evenodd;clip-rule:evenodd;stroke-linejoin:round;stroke-miterlimit:1.41421;"><path d="M600,30c0,-16.557 -13.443,-30 -30,-30l-540,0c-16.557,0 -30,13.443 -30,30l0,540c0,16.557 13.443,30 30,30l540,0c16.557,0 30,-13.443 30,-30l0,-540Z" style="fill:#181818;"/><g><circle cx="300" cy="300" r="250" style="fill:#cc5f00;"/><circle cx="300" cy="300" r="222.222" style="fill:#181818;"/><circle cx="300" cy="300" r="166.667" style="fill:#37bb33;"/><path d="M157.408,455.556l103.704,-155.556l-103.704,-155.556l77.778,0l207.406,311.112l-77.778,0l-64.812,-97.221l-64.816,97.221l-77.778,0l0,0Z" style="fill:#181818;fill-rule:nonzero;"/></g></svg>